<svg width="30" height="24" viewBox="0 0 30 24" fill="none" xmlns="http://www.w3.org/2000/svg">
<path d="M4.55759 6C4.55759 4.4087 5.19782 2.88258 6.33744 1.75736C7.47706 0.632141 9.02272 0 10.6344 0C12.246 0 13.7917 0.632141 14.9313 1.75736C16.0709 2.88258 16.7112 4.4087 16.7112 6C16.7112 7.5913 16.0709 9.11742 14.9313 10.2426C13.7917 11.3679 12.246 12 10.6344 12C9.02272 12 7.47706 11.3679 6.33744 10.2426C5.19782 9.11742 4.55759 7.5913 4.55759 6ZM0 22.6078C0 17.9906 3.7885 14.25 8.46478 14.25H12.804C17.4803 14.25 21.2688 17.9906 21.2688 22.6078C21.2688 23.3766 20.6373 24 19.8588 24H1.41001C0.631417 24 0 23.3766 0 22.6078ZM29.6718 8.29688L23.595 14.2969C23.1488 14.7375 22.4272 14.7375 21.9856 14.2969L18.9472 11.2969C18.501 10.8563 18.501 10.1438 18.9472 9.70781C19.3935 9.27188 20.1151 9.26719 20.5566 9.70781L22.788 11.9109L28.0577 6.70312C28.5039 6.2625 29.2256 6.2625 29.6671 6.70312C30.1086 7.14375 30.1133 7.85625 29.6671 8.29219L29.6718 8.29688Z" fill="#473289"/>
</svg>
