<svg width="281" height="280" viewBox="0 0 281 280" fill="none" xmlns="http://www.w3.org/2000/svg">
<path d="M53.1601 127.026C53.1601 127.026 91.931 125.473 100.309 61.7424C107.75 5.14306 173.128 30.905 192.026 53.4669C216.507 82.6938 203.457 132.97 235.126 139.322C266.795 145.673 246.115 216.289 198.043 209.53C138.243 201.122 152.711 236.066 134.759 250.856C121.876 261.471 69.0484 251.253 67.2878 212.719C65.8062 180.294 52.1284 180.397 42.4336 176.72C28.4514 171.417 19.641 133.014 53.1601 127.026Z" fill="#F3F4F9"/>
<path d="M184.958 197.803L146.867 160.164L139.325 167.797L177.416 205.437L184.958 197.803Z" fill="#8A7EB5"/>
<path d="M199.512 207.915L169.877 178.631C169.712 178.468 169.446 178.47 169.283 178.635L158.066 189.986C157.903 190.151 157.905 190.417 158.07 190.58L187.705 219.863C187.87 220.027 188.136 220.025 188.299 219.86L199.516 208.509C199.679 208.344 199.677 208.078 199.512 207.915Z" fill="#473289"/>
<path d="M113.106 179.094C139.311 179.094 160.555 157.85 160.555 131.645C160.555 105.439 139.311 84.1953 113.106 84.1953C86.9001 84.1953 65.6562 105.439 65.6562 131.645C65.6562 157.85 86.9001 179.094 113.106 179.094Z" fill="#473289"/>
<path d="M113.106 171.352C135.035 171.352 152.813 153.574 152.813 131.645C152.813 109.715 135.035 91.9375 113.106 91.9375C91.176 91.9375 73.3984 109.715 73.3984 131.645C73.3984 153.574 91.176 171.352 113.106 171.352Z" fill="#AAA5CB"/>
<path d="M193.325 88.7482C182.195 85.1405 170.167 91.2422 166.545 102.418C162.938 113.548 169.039 125.576 180.215 129.198C191.391 132.82 203.388 126.659 206.996 115.529C210.604 104.398 204.456 92.3557 193.325 88.7482ZM189.967 99.1096C191.213 99.5134 192.311 100.278 193.121 101.307C193.932 102.335 194.419 103.582 194.52 104.887C194.621 106.193 194.333 107.499 193.69 108.641C193.048 109.782 192.082 110.707 190.913 111.298C189.744 111.889 188.427 112.12 187.127 111.961C185.827 111.802 184.603 111.261 183.611 110.406C182.619 109.551 181.904 108.42 181.555 107.158C181.207 105.895 181.241 104.558 181.654 103.315C182.769 99.8764 186.528 97.9951 189.967 99.1096ZM181.564 125.036C177.866 123.843 174.698 121.402 172.602 118.131C176.524 115.902 180.626 115.282 184.336 116.484C188.046 117.687 191.063 120.564 192.872 124.701C189.256 126.121 185.258 126.239 181.564 125.036Z" fill="#68589F"/>
<path d="M100.688 190.172C98.7549 191.159 97.1577 192.697 96.0985 194.592C95.0393 196.486 94.5657 198.652 94.7376 200.816C94.9095 202.98 95.7191 205.044 97.0641 206.747C98.4091 208.451 100.229 209.717 102.294 210.387C104.359 211.056 106.575 211.098 108.664 210.507C110.753 209.916 112.619 208.72 114.028 207.068C115.436 205.417 116.323 203.384 116.577 201.229C116.83 199.073 116.439 196.891 115.452 194.957C114.126 192.367 111.827 190.409 109.06 189.512C106.292 188.615 103.281 188.852 100.688 190.172ZM103.244 195.18C103.846 194.872 104.526 194.751 105.198 194.83C105.869 194.91 106.501 195.187 107.015 195.627C107.529 196.066 107.9 196.649 108.082 197.3C108.264 197.951 108.249 198.641 108.038 199.283C107.828 199.926 107.431 200.491 106.898 200.907C106.366 201.324 105.722 201.573 105.047 201.623C104.373 201.672 103.699 201.521 103.111 201.187C102.523 200.853 102.048 200.353 101.745 199.748C101.344 198.943 101.276 198.011 101.556 197.156C101.837 196.301 102.444 195.591 103.244 195.179V195.18ZM109.64 207.71C107.855 208.624 105.808 208.89 103.849 208.461C104.467 206.216 105.737 204.492 107.531 203.577C109.324 202.662 111.475 202.611 113.646 203.46C112.844 205.298 111.428 206.8 109.64 207.709V207.71Z" fill="#68589F"/>
</svg>
