<svg width="30" height="24" viewBox="0 0 30 24" fill="none" xmlns="http://www.w3.org/2000/svg">
<path d="M4.5 6C4.5 4.4087 5.13214 2.88258 6.25736 1.75736C7.38258 0.632141 8.9087 0 10.5 0C12.0913 0 13.6174 0.632141 14.7426 1.75736C15.8679 2.88258 16.5 4.4087 16.5 6C16.5 7.5913 15.8679 9.11742 14.7426 10.2426C13.6174 11.3679 12.0913 12 10.5 12C8.9087 12 7.38258 11.3679 6.25736 10.2426C5.13214 9.11742 4.5 7.5913 4.5 6ZM0 22.6078C0 17.9906 3.74063 14.25 8.35781 14.25H12.6422C17.2594 14.25 21 17.9906 21 22.6078C21 23.3766 20.3766 24 19.6078 24H1.39219C0.623438 24 0 23.3766 0 22.6078ZM22.0781 6.70312C22.5187 6.2625 23.2312 6.2625 23.6672 6.70312L25.8703 8.90625L28.0734 6.70312C28.5141 6.2625 29.2266 6.2625 29.6625 6.70312C30.0984 7.14375 30.1031 7.85625 29.6625 8.29219L27.4594 10.4953L29.6625 12.6984C30.1031 13.1391 30.1031 13.8516 29.6625 14.2875C29.2219 14.7234 28.5094 14.7281 28.0734 14.2875L25.8703 12.0844L23.6672 14.2875C23.2266 14.7281 22.5141 14.7281 22.0781 14.2875C21.6422 13.8469 21.6375 13.1344 22.0781 12.6984L24.2812 10.4953L22.0781 8.29219C21.6375 7.85156 21.6375 7.13906 22.0781 6.70312Z" fill="#432263"/>
</svg>
