<svg width="30" height="24" viewBox="0 0 30 24" fill="none" xmlns="http://www.w3.org/2000/svg">
<path d="M1.81901 0.239326C1.33151 -0.145049 0.623701 -0.0559865 0.239326 0.431513C-0.145049 0.919013 -0.0559865 1.62683 0.431513 2.0112L28.1815 23.7612C28.669 24.1456 29.3768 24.0565 29.7612 23.569C30.1456 23.0815 30.0565 22.3737 29.569 21.9893L16.5612 11.794C19.1206 11.1096 21.0003 8.77526 21.0003 6.00026C21.0003 2.6862 18.3143 0.000263483 15.0003 0.000263483C11.7284 0.000263483 9.07058 2.61589 9.00026 5.86901L1.81901 0.239326ZM12.3893 14.2643C7.99245 14.5034 4.50026 18.1503 4.50026 22.6081C4.50026 23.3768 5.1237 24.0003 5.89245 24.0003H24.1081C24.2909 24.0003 24.4643 23.9675 24.6237 23.9018L12.3893 14.2643Z" fill="#473289"/>
</svg>
