<svg width="32" height="32" viewBox="0 0 32 32" fill="none" xmlns="http://www.w3.org/2000/svg">
<path fill-rule="evenodd" clip-rule="evenodd" d="M18.2223 8.46094C18.2223 9.01294 18.6703 9.46094 19.2223 9.46094H22.5463V12.7849C22.5463 13.0502 22.6516 13.3045 22.8392 13.492C23.0267 13.6796 23.2811 13.7849 23.5463 13.7849C23.8115 13.7849 24.0658 13.6796 24.2534 13.492C24.4409 13.3045 24.5463 13.0502 24.5463 12.7849V8.46094C24.5463 8.19572 24.4409 7.94137 24.2534 7.75383C24.0658 7.56629 23.8115 7.46094 23.5463 7.46094H19.2223C18.9571 7.46094 18.7027 7.56629 18.5152 7.75383C18.3276 7.94137 18.2223 8.19572 18.2223 8.46094ZM23.5463 18.2223C23.2811 18.2223 23.0267 18.3276 22.8392 18.5152C22.6516 18.7027 22.5463 18.9571 22.5463 19.2223V22.5463H19.2223C18.9571 22.5463 18.7027 22.6516 18.5152 22.8392C18.3276 23.0267 18.2223 23.2811 18.2223 23.5463C18.2223 23.8115 18.3276 24.0658 18.5152 24.2534C18.7027 24.4409 18.9571 24.5463 19.2223 24.5463H23.5463C23.8115 24.5463 24.0658 24.4409 24.2534 24.2534C24.4409 24.0658 24.5463 23.8115 24.5463 23.5463V19.2223C24.5463 18.9571 24.4409 18.7027 24.2534 18.5152C24.0658 18.3276 23.8115 18.2223 23.5463 18.2223ZM8.46094 18.2223C8.72615 18.2223 8.98051 18.3276 9.16804 18.5152C9.35558 18.7027 9.46094 18.9571 9.46094 19.2223V22.5463H12.7849C13.0502 22.5463 13.3045 22.6516 13.492 22.8392C13.6796 23.0267 13.7849 23.2811 13.7849 23.5463C13.7849 23.8115 13.6796 24.0658 13.492 24.2534C13.3045 24.4409 13.0502 24.5463 12.7849 24.5463H8.46094C8.19572 24.5463 7.94137 24.4409 7.75383 24.2534C7.56629 24.0658 7.46094 23.8115 7.46094 23.5463V19.2223C7.46094 18.9571 7.56629 18.7027 7.75383 18.5152C7.94137 18.3276 8.19572 18.2223 8.46094 18.2223ZM13.7849 8.46094C13.7849 8.72615 13.6796 8.98051 13.492 9.16804C13.3045 9.35558 13.0502 9.46094 12.7849 9.46094H9.46094V12.7849C9.46094 13.0502 9.35558 13.3045 9.16804 13.492C8.98051 13.6796 8.72615 13.7849 8.46094 13.7849C8.19572 13.7849 7.94137 13.6796 7.75383 13.492C7.56629 13.3045 7.46094 13.0502 7.46094 12.7849V8.46094C7.46094 8.19572 7.56629 7.94137 7.75383 7.75383C7.94137 7.56629 8.19572 7.46094 8.46094 7.46094H12.7849C13.0502 7.46094 13.3045 7.56629 13.492 7.75383C13.6796 7.94137 13.7849 8.19572 13.7849 8.46094Z" fill="#4B5563"/>
</svg>
