<svg width="15" height="22" viewBox="0 0 15 22" fill="none" xmlns="http://www.w3.org/2000/svg">
<path d="M5.76923 2.89474C5.76923 4.49346 4.47774 5.78947 2.88462 5.78947C1.29149 5.78947 0 4.49346 0 2.89474C0 1.29602 1.29149 0 2.88462 0C4.47774 0 5.76923 1.29602 5.76923 2.89474Z" fill="#4E4E4E"/>
<path d="M5.76923 11C5.76923 12.5987 4.47774 13.8947 2.88462 13.8947C1.29149 13.8947 0 12.5987 0 11C0 9.40128 1.29149 8.10526 2.88462 8.10526C4.47774 8.10526 5.76923 9.40128 5.76923 11Z" fill="#4E4E4E"/>
<path d="M5.76923 19.1053C5.76923 20.704 4.47774 22 2.88462 22C1.29149 22 0 20.704 0 19.1053C0 17.5065 1.29149 16.2105 2.88462 16.2105C4.47774 16.2105 5.76923 17.5065 5.76923 19.1053Z" fill="#4E4E4E"/>
<path d="M15 2.89474C15 4.49346 13.7085 5.78947 12.1154 5.78947C10.5223 5.78947 9.23077 4.49346 9.23077 2.89474C9.23077 1.29602 10.5223 0 12.1154 0C13.7085 0 15 1.29602 15 2.89474Z" fill="#4E4E4E"/>
<path d="M15 11C15 12.5987 13.7085 13.8947 12.1154 13.8947C10.5223 13.8947 9.23077 12.5987 9.23077 11C9.23077 9.40128 10.5223 8.10526 12.1154 8.10526C13.7085 8.10526 15 9.40128 15 11Z" fill="#4E4E4E"/>
<path d="M15 19.1053C15 20.704 13.7085 22 12.1154 22C10.5223 22 9.23077 20.704 9.23077 19.1053C9.23077 17.5065 10.5223 16.2105 12.1154 16.2105C13.7085 16.2105 15 17.5065 15 19.1053Z" fill="#4E4E4E"/>
</svg>
