<svg width="279" height="198" viewBox="0 0 279 198" fill="none" xmlns="http://www.w3.org/2000/svg">
<g filter="url(#filter0_i_4557_4458)">
<circle cx="139.378" cy="102.557" r="54.7313" fill="url(#paint0_linear_4557_4458)"/>
</g>
<circle cx="139.378" cy="102.557" r="54.4016" stroke="#548FFC" stroke-width="0.659414"/>
<circle cx="139.708" cy="113.785" r="113.438" fill="url(#paint1_linear_4557_4458)"/>
<circle cx="139.378" cy="101.237" r="83.5027" transform="rotate(-180 139.378 101.237)" fill="url(#paint2_linear_4557_4458)"/>
<g filter="url(#filter1_i_4557_4458)">
<circle cx="139.378" cy="102.623" r="46.4887" stroke="#548FFC" stroke-width="0.659414"/>
</g>
<g filter="url(#filter2_i_4557_4458)">
<circle cx="35.0787" cy="102.443" r="34.6615" fill="url(#paint3_linear_4557_4458)"/>
</g>
<circle cx="35.0787" cy="102.443" r="34.3318" stroke="#548FFC" stroke-width="0.659414"/>
<g filter="url(#filter3_i_4557_4458)">
<circle cx="243.678" cy="102.443" r="34.6615" fill="url(#paint4_linear_4557_4458)"/>
</g>
<circle cx="243.678" cy="102.443" r="34.3318" stroke="#548FFC" stroke-width="0.659414"/>
<path d="M251.25 85.9238C249.222 86.0417 246.893 87.1718 245.508 88.6109C244.257 89.9199 243.27 91.8639 243.673 93.7446C245.878 93.8027 248.09 92.6433 249.415 91.1778C250.652 89.8073 251.59 87.8943 251.25 85.9238ZM251.37 93.7412C248.188 93.7412 246.857 95.6964 244.653 95.6964C242.385 95.6964 240.312 93.8649 237.567 93.8649C233.834 93.8666 228.159 97.3249 228.159 105.472C228.159 112.884 234.875 121.11 238.667 121.11C240.97 121.133 241.528 119.662 244.653 119.647C247.781 119.624 248.456 121.13 250.762 121.11C253.359 121.091 255.387 118.238 256.868 115.977C257.931 114.358 258.368 113.532 259.191 111.702C253.081 110.154 251.865 100.301 259.191 98.2632C257.808 95.9039 253.772 93.7412 251.37 93.7412Z" fill="#383838"/>
<path d="M24.2079 104.635C24.2079 105.603 23.4162 106.395 22.4485 106.395C21.4809 106.395 20.6892 105.603 20.6892 104.635V96.7183C20.6892 95.7507 21.4809 94.959 22.4485 94.959C23.4162 94.959 24.2079 95.7507 24.2079 96.7183V104.635ZM48.8385 104.635C48.8385 105.603 48.0468 106.395 47.0792 106.395C46.1116 106.395 45.3199 105.603 45.3199 104.635V96.7183C45.3199 95.7507 46.1116 94.959 47.0792 94.959C48.0468 94.959 48.8385 95.7507 48.8385 96.7183V104.635ZM33.0045 114.312C33.0045 115.279 32.2128 116.071 31.2452 116.071C30.2776 116.071 29.4859 115.279 29.4859 114.312V106.395C29.4859 105.427 30.2776 104.635 31.2452 104.635C32.2128 104.635 33.0045 105.427 33.0045 106.395V114.312ZM40.0419 114.312C40.0419 115.279 39.2502 116.071 38.2825 116.071C37.3149 116.071 36.5232 115.279 36.5232 114.312V106.395C36.5232 105.427 37.3149 104.635 38.2825 104.635C39.2502 104.635 40.0419 105.427 40.0419 106.395V114.312Z" fill="#4B9100"/>
<path d="M25.967 94.9588V108.154C25.967 109.121 26.7587 109.913 27.7264 109.913H41.801C42.7687 109.913 43.5604 109.121 43.5604 108.154V94.9588H25.967ZM34.7637 86.1621C29.4857 86.1621 26.2309 89.3289 25.967 93.1994H43.5604C43.2965 89.3289 40.0417 86.1621 34.7637 86.1621ZM31.245 91.0882C30.7172 91.0882 30.3654 90.7364 30.3654 90.2086C30.3654 89.6808 30.7172 89.3289 31.245 89.3289C31.7728 89.3289 32.1247 89.6808 32.1247 90.2086C32.1247 90.6484 31.7728 91.0882 31.245 91.0882ZM38.2824 91.0882C37.7546 91.0882 37.4027 90.7364 37.4027 90.2086C37.4027 89.6808 37.7546 89.3289 38.2824 89.3289C38.8102 89.3289 39.162 89.6808 39.162 90.2086C39.162 90.6484 38.8102 91.0882 38.2824 91.0882Z" fill="#4B9100"/>
<path d="M38.5463 88.3608C38.3704 88.3608 38.1944 88.2728 38.0185 88.1848C37.5787 87.9209 37.4907 87.3931 37.7546 86.9533L39.25 84.7541C39.5139 84.3143 40.0417 84.2263 40.4816 84.4902C40.9214 84.7541 41.0093 85.2819 40.7455 85.7218L39.25 87.9209C39.1621 88.1848 38.8982 88.3608 38.5463 88.3608ZM30.6293 88.0089C30.3654 88.0089 30.0135 87.833 29.9256 87.5691L28.782 85.7218C28.5181 85.2819 28.6061 84.7541 29.0459 84.4902C29.4857 84.2263 30.0135 84.3143 30.2774 84.7541L31.421 86.6014C31.6849 87.0413 31.5969 87.5691 31.1571 87.833C30.9812 87.9209 30.8052 88.0089 30.6293 88.0089Z" fill="#4B9100"/>
<path d="M107.684 82.1172C105.857 88.1107 103.694 102.027 109.658 109.746C115.622 117.464 123.399 114.57 126.542 112.158C123.034 109.176 122.01 102.875 121.937 100.098C121.937 90.1673 129.987 82.1172 139.918 82.1172C149.848 82.1172 157.898 90.1673 157.898 100.098C157.898 106.237 154.975 110.696 153.513 112.158C156.802 115.228 165.792 116.543 171.713 107.553C176.449 100.361 173.686 87.5991 171.713 82.1172" stroke="#4378FF" stroke-width="2.63765"/>
<path d="M157.898 100.097C157.898 106.236 154.974 110.695 153.513 112.157C156.802 115.227 165.792 116.542 171.712 107.552C176.449 100.36 173.686 87.598 171.712 82.1162C151.101 83.8703 146.276 94.6149 144.303 109.745C142.724 121.849 134.143 128.822 130.05 130.795L125.665 123.778C133.383 119.218 135.167 108.429 135.093 103.605C134.216 86.2385 116.455 82.0431 107.684 82.1162C105.857 88.1097 103.693 102.026 109.658 109.745C115.622 117.463 123.399 114.569 126.542 112.157C123.033 109.175 122.01 102.874 121.937 100.097" stroke="#4378FF" stroke-width="2.63765"/>
<path d="M139.237 157.27V165.264C139.237 172.329 133.51 178.056 126.445 178.056H73.68C61.7585 178.056 52.0942 187.72 52.0942 199.642V208.835" stroke="url(#paint5_linear_4557_4458)" stroke-width="0.799472"/>
<path d="M139.237 157.27V165.264C139.237 172.329 144.964 178.056 152.029 178.056H204.794C216.715 178.056 226.38 187.72 226.38 199.642V208.835" stroke="url(#paint6_linear_4557_4458)" stroke-width="0.799472"/>
<g filter="url(#filter4_i_4557_4458)">
<circle cx="139.063" cy="47.6146" r="4.41146" fill="white"/>
</g>
<circle cx="139.063" cy="47.6146" r="4.09636" stroke="#548FFC" stroke-width="0.630209"/>
<g filter="url(#filter5_i_4557_4458)">
<circle cx="139.063" cy="157.271" r="4.41146" fill="white"/>
</g>
<circle cx="139.063" cy="157.271" r="4.09636" stroke="#548FFC" stroke-width="0.630209"/>
<defs>
<filter id="filter0_i_4557_4458" x="84.647" y="47.8262" width="109.463" height="109.463" filterUnits="userSpaceOnUse" color-interpolation-filters="sRGB">
<feFlood flood-opacity="0" result="BackgroundImageFix"/>
<feBlend mode="normal" in="SourceGraphic" in2="BackgroundImageFix" result="shape"/>
<feColorMatrix in="SourceAlpha" type="matrix" values="0 0 0 0 0 0 0 0 0 0 0 0 0 0 0 0 0 0 127 0" result="hardAlpha"/>
<feMorphology radius="0.659414" operator="erode" in="SourceAlpha" result="effect1_innerShadow_4557_4458"/>
<feOffset/>
<feGaussianBlur stdDeviation="2.20904"/>
<feComposite in2="hardAlpha" operator="arithmetic" k2="-1" k3="1"/>
<feColorMatrix type="matrix" values="0 0 0 0 0.660553 0 0 0 0 0.779764 0 0 0 0 1 0 0 0 1 0"/>
<feBlend mode="normal" in2="shape" result="effect1_innerShadow_4557_4458"/>
</filter>
<filter id="filter1_i_4557_4458" x="92.5601" y="55.8047" width="93.6367" height="93.6367" filterUnits="userSpaceOnUse" color-interpolation-filters="sRGB">
<feFlood flood-opacity="0" result="BackgroundImageFix"/>
<feBlend mode="normal" in="SourceGraphic" in2="BackgroundImageFix" result="shape"/>
<feColorMatrix in="SourceAlpha" type="matrix" values="0 0 0 0 0 0 0 0 0 0 0 0 0 0 0 0 0 0 127 0" result="hardAlpha"/>
<feMorphology radius="0.659414" operator="erode" in="SourceAlpha" result="effect1_innerShadow_4557_4458"/>
<feOffset/>
<feGaussianBlur stdDeviation="2.20904"/>
<feComposite in2="hardAlpha" operator="arithmetic" k2="-1" k3="1"/>
<feColorMatrix type="matrix" values="0 0 0 0 0.660553 0 0 0 0 0.779764 0 0 0 0 1 0 0 0 1 0"/>
<feBlend mode="normal" in2="shape" result="effect1_innerShadow_4557_4458"/>
</filter>
<filter id="filter2_i_4557_4458" x="0.417236" y="67.7812" width="69.323" height="69.3223" filterUnits="userSpaceOnUse" color-interpolation-filters="sRGB">
<feFlood flood-opacity="0" result="BackgroundImageFix"/>
<feBlend mode="normal" in="SourceGraphic" in2="BackgroundImageFix" result="shape"/>
<feColorMatrix in="SourceAlpha" type="matrix" values="0 0 0 0 0 0 0 0 0 0 0 0 0 0 0 0 0 0 127 0" result="hardAlpha"/>
<feMorphology radius="0.659414" operator="erode" in="SourceAlpha" result="effect1_innerShadow_4557_4458"/>
<feOffset/>
<feGaussianBlur stdDeviation="2.20904"/>
<feComposite in2="hardAlpha" operator="arithmetic" k2="-1" k3="1"/>
<feColorMatrix type="matrix" values="0 0 0 0 0.660553 0 0 0 0 0.779764 0 0 0 0 1 0 0 0 1 0"/>
<feBlend mode="normal" in2="shape" result="effect1_innerShadow_4557_4458"/>
</filter>
<filter id="filter3_i_4557_4458" x="209.016" y="67.7812" width="69.323" height="69.3223" filterUnits="userSpaceOnUse" color-interpolation-filters="sRGB">
<feFlood flood-opacity="0" result="BackgroundImageFix"/>
<feBlend mode="normal" in="SourceGraphic" in2="BackgroundImageFix" result="shape"/>
<feColorMatrix in="SourceAlpha" type="matrix" values="0 0 0 0 0 0 0 0 0 0 0 0 0 0 0 0 0 0 127 0" result="hardAlpha"/>
<feMorphology radius="0.659414" operator="erode" in="SourceAlpha" result="effect1_innerShadow_4557_4458"/>
<feOffset/>
<feGaussianBlur stdDeviation="2.20904"/>
<feComposite in2="hardAlpha" operator="arithmetic" k2="-1" k3="1"/>
<feColorMatrix type="matrix" values="0 0 0 0 0.660553 0 0 0 0 0.779764 0 0 0 0 1 0 0 0 1 0"/>
<feBlend mode="normal" in2="shape" result="effect1_innerShadow_4557_4458"/>
</filter>
<filter id="filter4_i_4557_4458" x="134.652" y="43.2031" width="8.823" height="8.82227" filterUnits="userSpaceOnUse" color-interpolation-filters="sRGB">
<feFlood flood-opacity="0" result="BackgroundImageFix"/>
<feBlend mode="normal" in="SourceGraphic" in2="BackgroundImageFix" result="shape"/>
<feColorMatrix in="SourceAlpha" type="matrix" values="0 0 0 0 0 0 0 0 0 0 0 0 0 0 0 0 0 0 127 0" result="hardAlpha"/>
<feMorphology radius="0.630209" operator="erode" in="SourceAlpha" result="effect1_innerShadow_4557_4458"/>
<feOffset/>
<feGaussianBlur stdDeviation="1.41797"/>
<feComposite in2="hardAlpha" operator="arithmetic" k2="-1" k3="1"/>
<feColorMatrix type="matrix" values="0 0 0 0 0.329412 0 0 0 0 0.560784 0 0 0 0 0.988235 0 0 0 1 0"/>
<feBlend mode="normal" in2="shape" result="effect1_innerShadow_4557_4458"/>
</filter>
<filter id="filter5_i_4557_4458" x="134.652" y="152.859" width="8.823" height="8.82227" filterUnits="userSpaceOnUse" color-interpolation-filters="sRGB">
<feFlood flood-opacity="0" result="BackgroundImageFix"/>
<feBlend mode="normal" in="SourceGraphic" in2="BackgroundImageFix" result="shape"/>
<feColorMatrix in="SourceAlpha" type="matrix" values="0 0 0 0 0 0 0 0 0 0 0 0 0 0 0 0 0 0 127 0" result="hardAlpha"/>
<feMorphology radius="0.630209" operator="erode" in="SourceAlpha" result="effect1_innerShadow_4557_4458"/>
<feOffset/>
<feGaussianBlur stdDeviation="1.41797"/>
<feComposite in2="hardAlpha" operator="arithmetic" k2="-1" k3="1"/>
<feColorMatrix type="matrix" values="0 0 0 0 0.329412 0 0 0 0 0.560784 0 0 0 0 0.988235 0 0 0 1 0"/>
<feBlend mode="normal" in2="shape" result="effect1_innerShadow_4557_4458"/>
</filter>
<linearGradient id="paint0_linear_4557_4458" x1="139.378" y1="47.8262" x2="139.378" y2="157.289" gradientUnits="userSpaceOnUse">
<stop stop-color="#CEDFFF" stop-opacity="0"/>
<stop offset="1" stop-color="#CEDFFF"/>
</linearGradient>
<linearGradient id="paint1_linear_4557_4458" x1="139.708" y1="-11.3727" x2="135.912" y2="305.684" gradientUnits="userSpaceOnUse">
<stop stop-color="#DCE8FF" stop-opacity="0"/>
<stop offset="1" stop-color="#D7E5FF"/>
</linearGradient>
<linearGradient id="paint2_linear_4557_4458" x1="139.378" y1="32.2865" x2="139.378" y2="184.74" gradientUnits="userSpaceOnUse">
<stop stop-color="#DCE8FF" stop-opacity="0"/>
<stop offset="1" stop-color="#DBE7FF"/>
</linearGradient>
<linearGradient id="paint3_linear_4557_4458" x1="35.0787" y1="67.7812" x2="35.0787" y2="137.104" gradientUnits="userSpaceOnUse">
<stop stop-color="#CEDFFF" stop-opacity="0"/>
<stop offset="1" stop-color="#CEDFFF"/>
</linearGradient>
<linearGradient id="paint4_linear_4557_4458" x1="243.678" y1="67.7812" x2="243.678" y2="137.104" gradientUnits="userSpaceOnUse">
<stop stop-color="#CEDFFF" stop-opacity="0"/>
<stop offset="1" stop-color="#CEDFFF"/>
</linearGradient>
<linearGradient id="paint5_linear_4557_4458" x1="139.237" y1="157.27" x2="43.3" y2="209.235" gradientUnits="userSpaceOnUse">
<stop stop-color="#548FFC"/>
<stop offset="1" stop-color="#548FFC" stop-opacity="0"/>
</linearGradient>
<linearGradient id="paint6_linear_4557_4458" x1="139.237" y1="157.27" x2="235.174" y2="209.235" gradientUnits="userSpaceOnUse">
<stop stop-color="#548FFC"/>
<stop offset="1" stop-color="#548FFC" stop-opacity="0"/>
</linearGradient>
</defs>
</svg>
