<svg width="894" height="140" viewBox="0 0 894 140" fill="none" xmlns="http://www.w3.org/2000/svg">
<path d="M279.447 112.069C275.02 115.58 269.447 118.405 262.73 120.542C256.165 122.679 249.677 123.748 243.265 123.748C231.815 123.748 221.815 121.687 213.266 117.565C204.869 113.29 198.305 107.26 193.572 99.474C188.992 91.5353 186.702 81.9937 186.702 70.849C186.702 59.7043 189.221 50.239 194.259 42.453C199.297 34.5143 205.862 28.484 213.953 24.362C222.197 20.24 230.823 18.179 239.83 18.179C248.837 18.179 256.623 19.4003 263.188 21.843C269.905 24.2857 275.63 27.4917 280.363 31.461L264.791 52.071C262.654 50.3917 259.677 48.7123 255.86 47.033C252.196 45.201 247.845 44.285 242.807 44.285C238.38 44.285 234.334 45.43 230.67 47.72C227.006 50.01 224.105 53.1397 221.968 57.109C219.831 61.0783 218.762 65.6583 218.762 70.849C218.762 75.7343 219.907 80.238 222.197 84.36C224.487 88.482 227.617 91.7643 231.586 94.207C235.708 96.497 240.517 97.642 246.013 97.642C249.524 97.642 252.73 97.184 255.631 96.268C258.684 95.1993 261.28 93.749 263.417 91.917L279.447 112.069ZM296.506 69.704C296.506 59.4753 298.872 50.3153 303.605 42.224C308.49 34.1327 315.284 27.797 323.986 23.217C332.688 18.4843 342.687 16.118 353.985 16.118C365.435 16.118 375.358 18.4843 383.755 23.217C392.151 27.797 398.563 34.1327 402.991 42.224C407.571 50.3153 409.861 59.4753 409.861 69.704C409.861 79.9327 407.571 89.169 402.991 97.413C398.563 105.504 392.151 111.916 383.755 116.649C375.358 121.382 365.282 123.748 353.527 123.748C342.535 123.748 332.688 121.611 323.986 117.336C315.436 113.061 308.719 106.878 303.834 98.787C298.948 90.6957 296.506 81.0013 296.506 69.704ZM328.795 69.933C328.795 75.1237 329.863 79.8563 332.001 84.131C334.138 88.253 337.039 91.5353 340.703 93.978C344.367 96.4207 348.489 97.642 353.069 97.642C358.107 97.642 362.458 96.4207 366.122 93.978C369.786 91.5353 372.61 88.253 374.595 84.131C376.579 79.8563 377.572 75.1237 377.572 69.933C377.572 64.5897 376.579 59.857 374.595 55.735C372.61 51.613 369.786 48.3307 366.122 45.888C362.458 43.4453 358.107 42.224 353.069 42.224C348.489 42.224 344.367 43.4453 340.703 45.888C337.039 48.3307 334.138 51.613 332.001 55.735C329.863 59.857 328.795 64.5897 328.795 69.933ZM467.406 125.809C458.399 125.809 450.842 123.061 444.735 117.565C438.628 111.916 435.422 104.665 435.117 95.81V20.927H467.177V83.902C467.482 88.3293 468.627 91.917 470.612 94.665C472.597 97.2603 475.955 98.558 480.688 98.558C485.421 98.558 489.466 96.955 492.825 93.749C496.336 90.543 499.008 86.192 500.84 80.696C502.825 75.0473 503.817 68.7117 503.817 61.689V20.927H535.877V121H506.794L504.275 102.68L504.733 104.741C502.443 108.863 499.542 112.527 496.031 115.733C492.52 118.939 488.321 121.382 483.436 123.061C478.703 124.893 473.36 125.809 467.406 125.809ZM597.703 20.927L600.68 48.407L599.993 44.285C602.894 38.331 606.863 33.293 611.901 29.171C616.939 24.8963 621.901 21.614 626.786 19.324C631.824 17.034 635.641 15.889 638.236 15.889L636.633 47.949C629.153 47.033 622.741 48.2543 617.397 51.613C612.054 54.9717 607.932 59.399 605.031 64.895C602.131 70.391 600.68 76.0397 600.68 81.841V121H568.849V20.927H597.703ZM695.293 123.061C687.049 123.061 679.339 121.611 672.164 118.71C665.141 115.809 659.187 111.764 654.302 106.573L667.584 88.94C672.469 93.3673 676.973 96.5733 681.095 98.558C685.37 100.39 689.186 101.306 692.545 101.306C695.14 101.306 697.43 101.077 699.415 100.619C701.552 100.008 703.232 99.1687 704.453 98.1C705.674 96.8787 706.285 95.352 706.285 93.52C706.285 90.9247 705.216 88.8637 703.079 87.337C701.094 85.8103 698.499 84.589 695.293 83.673C692.087 82.6043 688.652 81.5357 684.988 80.467C675.828 77.5663 669.187 73.368 665.065 67.872C661.096 62.2233 659.111 56.1167 659.111 49.552C659.111 44.514 660.409 39.476 663.004 34.438C665.752 29.2473 670.027 24.9727 675.828 21.614C681.782 18.1027 689.415 16.347 698.728 16.347C707.125 16.347 714.224 17.1867 720.025 18.866C725.826 20.5453 731.322 23.2933 736.513 27.11L724.376 45.888C721.475 43.598 718.193 41.6897 714.529 40.163C711.018 38.4837 707.735 37.5677 704.682 37.415C701.934 37.2623 699.568 37.5677 697.583 38.331C695.751 39.0943 694.301 40.0867 693.232 41.308C692.163 42.5293 691.629 43.827 691.629 45.201C691.476 48.1017 692.545 50.3917 694.835 52.071C697.278 53.7503 700.331 55.048 703.995 55.964C707.659 56.88 711.247 57.9487 714.758 59.17C719.643 60.6967 723.842 62.7577 727.353 65.353C730.864 67.9483 733.536 71.078 735.368 74.742C737.353 78.2533 738.345 82.528 738.345 87.566C738.345 93.6727 736.742 99.474 733.536 104.97C730.483 110.313 725.75 114.664 719.338 118.023C713.079 121.382 705.064 123.061 695.293 123.061ZM807.335 123.748C798.022 123.748 789.549 121.916 781.916 118.252C774.435 114.435 768.481 108.634 764.054 100.848C759.627 93.062 757.413 83.1387 757.413 71.078C757.413 59.7807 759.703 50.01 764.283 41.766C768.863 33.522 774.893 27.1863 782.374 22.759C789.855 18.179 797.793 15.889 806.19 15.889C816.113 15.889 823.594 17.5683 828.632 20.927C833.823 24.133 838.097 27.7207 841.456 31.69L840.082 35.583L843.059 20.927H872.829V121H840.769V99.245L843.288 106.115C842.983 106.115 842.067 107.031 840.54 108.863C839.013 110.542 836.723 112.603 833.67 115.046C830.769 117.336 827.105 119.321 822.678 121C818.403 122.832 813.289 123.748 807.335 123.748ZM816.495 97.642C820.312 97.642 823.747 97.1077 826.8 96.039C829.853 94.8177 832.525 93.1383 834.815 91.001C837.105 88.711 839.09 85.8867 840.769 82.528V58.025C839.548 54.6663 837.716 51.842 835.273 49.552C832.83 47.1093 829.93 45.2773 826.571 44.056C823.212 42.682 819.472 41.995 815.35 41.995C810.77 41.995 806.495 43.2163 802.526 45.659C798.709 47.949 795.656 51.155 793.366 55.277C791.076 59.399 789.931 64.1317 789.931 69.475C789.931 74.8183 791.152 79.6273 793.595 83.902C796.038 88.1767 799.244 91.5353 803.213 93.978C807.335 96.4207 811.762 97.642 816.495 97.642Z" fill="#473289"/>
<rect width="140" height="140" rx="11" fill="#473289"/>
<path d="M94.265 111.395C90.625 114.385 86.14 116.79 80.81 118.61C75.61 120.3 70.345 121.145 65.015 121.145C55.915 121.145 47.92 119.39 41.03 115.88C34.14 112.24 28.745 107.235 24.845 100.865C21.075 94.365 19.19 86.63 19.19 77.66C19.19 68.69 21.205 60.955 25.235 54.455C29.395 47.955 34.79 43.015 41.42 39.635C48.18 36.125 55.33 34.37 62.87 34.37C69.76 34.37 75.87 35.345 81.2 37.295C86.53 39.115 91.145 41.65 95.045 44.9L84.125 59.135C82.045 57.445 79.315 55.885 75.935 54.455C72.685 52.895 68.98 52.115 64.82 52.115C60.4 52.115 56.37 53.22 52.73 55.43C49.22 57.64 46.36 60.695 44.15 64.595C42.07 68.365 41.03 72.72 41.03 77.66C41.03 82.34 42.135 86.63 44.345 90.53C46.555 94.43 49.61 97.55 53.51 99.89C57.41 102.1 61.895 103.205 66.965 103.205C70.215 103.205 73.205 102.75 75.935 101.84C78.795 100.8 81.265 99.435 83.345 97.745L94.265 111.395Z" fill="white"/>
<path d="M126 33.032C121.978 33.2868 118.185 35.0509 115.336 37.9921C112.487 40.9332 110.778 44.8484 110.531 49H110.469C110.223 44.8482 108.514 40.9328 105.664 37.9916C102.815 35.0503 99.022 33.2864 95 33.032V32.968C99.022 32.7136 102.815 30.9497 105.664 28.0084C108.514 25.0672 110.223 21.1518 110.469 17H110.531C110.778 21.1516 112.487 25.0668 115.336 28.0079C118.185 30.9491 121.978 32.7132 126 32.968V33.032Z" fill="white"/>
</svg>
