<svg width="20" height="20" viewBox="0 0 20 20" fill="none" xmlns="http://www.w3.org/2000/svg">
<path d="M2.5 4.79167H11.1392C11.4133 5.75083 12.2875 6.45833 13.3333 6.45833C14.3792 6.45833 15.2533 5.75083 15.5275 4.79167H17.5C17.845 4.79167 18.125 4.51167 18.125 4.16667C18.125 3.82167 17.845 3.54167 17.5 3.54167H15.5275C15.2533 2.5825 14.3792 1.875 13.3333 1.875C12.2875 1.875 11.4133 2.5825 11.1392 3.54167H2.5C2.155 3.54167 1.875 3.82167 1.875 4.16667C1.875 4.51167 2.155 4.79167 2.5 4.79167ZM13 4C13.2429 4.08187 13.5742 4 13 4C13 4.57417 13.5742 4 13 4C12.4258 4 13.3333 4.63681 13.3333 4.06264C13.3333 3.48848 12.4258 4 13 4ZM17.5 15.2083H15.5275C15.2533 14.2492 14.3792 13.5417 13.3333 13.5417C12.2875 13.5417 11.4133 14.2492 11.1392 15.2083H2.5C2.155 15.2083 1.875 15.4883 1.875 15.8333C1.875 16.1783 2.155 16.4583 2.5 16.4583H11.1392C11.4133 17.4175 12.2875 18.125 13.3333 18.125C14.3792 18.125 15.2533 17.4175 15.5275 16.4583H17.5C17.845 16.4583 18.125 16.1783 18.125 15.8333C18.125 15.4883 17.845 15.2083 17.5 15.2083ZM13.1828 15.589C12.6086 15.589 13.5811 16.4075 13.5811 15.8333C13.5811 15.2592 12.6086 16.8641 13.1828 16.8641C13.757 16.8641 13.2453 15.2592 13.2453 15.8333C13.2453 16.4075 13.757 15.589 13.1828 15.589ZM17.5 9.375H8.86083C8.58667 8.41583 7.7125 7.70833 6.66667 7.70833C5.62083 7.70833 4.74667 8.41583 4.4725 9.375H2.5C2.155 9.375 1.875 9.655 1.875 10C1.875 10.345 2.155 10.625 2.5 10.625H4.4725C4.74667 11.5842 5.62083 12.2917 6.66667 12.2917C7.7125 12.2917 8.58667 11.5842 8.86083 10.625H17.5C17.845 10.625 18.125 10.345 18.125 10C18.125 9.655 17.845 9.375 17.5 9.375ZM6.5 10C5.92583 10 6.67003 10.4097 6.67003 9.83558C6.67003 9.26141 6.0925 10.5504 6.66667 10.5504C7.24083 10.5504 6.66667 9.1758 6.66667 9.74996C6.66667 10.3241 7.07417 10 6.5 10Z" fill="white"/>
</svg>
