<svg width="24" height="24" viewBox="0 0 24 24" fill="none" xmlns="http://www.w3.org/2000/svg">
<rect width="24" height="24" rx="4" fill="#8A7EB5"/>
<path d="M11.2856 17.7132C11.2856 17.9026 11.3608 18.0843 11.4948 18.2182C11.6287 18.3522 11.8104 18.4275 11.9999 18.4275C12.1893 18.4275 12.371 18.3522 12.5049 18.2182C12.6389 18.0843 12.7141 17.9026 12.7141 17.7132V12.7132H17.7141C17.9036 12.7132 18.0853 12.6379 18.2192 12.504C18.3532 12.37 18.4284 12.1883 18.4284 11.9989C18.4284 11.8094 18.3532 11.6278 18.2192 11.4938C18.0853 11.3599 17.9036 11.2846 17.7141 11.2846H12.7141V6.2846C12.7141 6.09516 12.6389 5.91348 12.5049 5.77952C12.371 5.64557 12.1893 5.57031 11.9999 5.57031C11.8104 5.57031 11.6287 5.64557 11.4948 5.77952C11.3608 5.91348 11.2856 6.09516 11.2856 6.2846V11.2846H6.28557C6.09613 11.2846 5.91445 11.3599 5.7805 11.4938C5.64654 11.6278 5.57129 11.8094 5.57129 11.9989C5.57129 12.1883 5.64654 12.37 5.7805 12.504C5.91445 12.6379 6.09613 12.7132 6.28557 12.7132H11.2856V17.7132Z" fill="white"/>
</svg>
