<svg width="24" height="24" viewBox="0 0 24 24" fill="none" xmlns="http://www.w3.org/2000/svg">
<circle cx="11" cy="13" r="9" fill="#D8D7E8"/>
<path d="M19.25 6.25C19.25 6.6625 19.5875 7 20 7C20.4125 7 20.75 6.6625 20.75 6.25V4.75H22.25C22.6625 4.75 23 4.4125 23 4C23 3.5875 22.6625 3.25 22.25 3.25H20.75V1.75C20.75 1.3375 20.4125 1 20 1C19.5875 1 19.25 1.3375 19.25 1.75V3.25H17.75C17.3375 3.25 17 3.5875 17 4C17 4.4125 17.3375 4.75 17.75 4.75H19.25V6.25Z" fill="#473289"/>
<g clip-path="url(#clip0_1941_44932)">
<path d="M7.87507 9.25C7.87507 8.9043 8.15436 8.625 8.50007 8.625H13.5001C13.8458 8.625 14.1251 8.9043 14.1251 9.25C14.1251 9.5957 13.8458 9.875 13.5001 9.875H12.4024C12.5899 10.1562 12.7286 10.4727 12.8067 10.8125H13.5001C13.8458 10.8125 14.1251 11.0918 14.1251 11.4375C14.1251 11.7832 13.8458 12.0625 13.5001 12.0625H12.8048C12.5469 13.2012 11.5958 14.0781 10.418 14.2285L13.2383 16.2422C13.5196 16.4434 13.5841 16.834 13.3829 17.1133C13.1817 17.3926 12.7911 17.459 12.5118 17.2578L8.13679 14.1328C7.91608 13.9766 7.82233 13.6934 7.90436 13.4336C7.98639 13.1738 8.22858 13 8.50007 13H10.0626C10.7032 13 11.254 12.6152 11.4942 12.0625H8.50007C8.15436 12.0625 7.87507 11.7832 7.87507 11.4375C7.87507 11.0918 8.15436 10.8125 8.50007 10.8125H11.4942C11.254 10.2598 10.7032 9.875 10.0626 9.875H8.50007C8.15436 9.875 7.87507 9.5957 7.87507 9.25Z" fill="#473289"/>
</g>
<defs>
<clipPath id="clip0_1941_44932">
<rect width="6.25" height="10" fill="white" transform="translate(7.875 8)"/>
</clipPath>
</defs>
</svg>
