<svg width="24" height="24" viewBox="0 0 24 24" fill="none" xmlns="http://www.w3.org/2000/svg">
<path d="M20.0325 5.46751L15.5325 0.967513C15.4624 0.898001 15.3793 0.843008 15.2879 0.805684C15.1966 0.768361 15.0987 0.749442 15 0.750013H6C5.40326 0.750013 4.83097 0.987065 4.40901 1.40902C3.98705 1.83098 3.75 2.40328 3.75 3.00001V21C3.75 21.5968 3.98705 22.169 4.40901 22.591C4.83097 23.013 5.40326 23.25 6 23.25H18C18.5967 23.25 19.169 23.013 19.591 22.591C20.0129 22.169 20.25 21.5968 20.25 21V6.00001C20.2506 5.90131 20.2317 5.80346 20.1943 5.71208C20.157 5.6207 20.102 5.53759 20.0325 5.46751Z" fill="#D8D7E8"/>
<path d="M20.25 6.00001V21C20.25 21.5968 20.0129 22.169 19.591 22.591C19.169 23.013 18.5967 23.25 18 23.25H12V0.750013H15C15.0987 0.749442 15.1966 0.768361 15.2879 0.805684C15.3793 0.843008 15.4624 0.898001 15.5325 0.967513L20.0325 5.46751C20.102 5.53759 20.157 5.6207 20.1943 5.71208C20.2317 5.80346 20.2506 5.90131 20.25 6.00001Z" fill="#D8D7E8"/>
<path d="M15.5325 0.967513C15.4624 0.898001 15.3793 0.843008 15.2879 0.805684C15.1966 0.768361 15.0987 0.749442 15 0.750013H14.25V5.82001C14.252 6.06606 14.3506 6.30147 14.5246 6.47546C14.6985 6.64944 14.934 6.74805 15.18 6.75001H20.25V6.00001C20.2506 5.90131 20.2317 5.80346 20.1943 5.71208C20.157 5.6207 20.102 5.53759 20.0325 5.46751L15.5325 0.967513Z" fill="#9991BF"/>
<path d="M14.7819 11.0604L12.5324 9.18492C12.4627 9.12633 12.3798 9.07982 12.2884 9.04808C12.197 9.01634 12.099 9 12 9C11.901 9 11.803 9.01634 11.7116 9.04808C11.6202 9.07982 11.5373 9.12633 11.4676 9.18492L9.21805 11.0604C9.07839 11.1775 9 11.336 9 11.5012C9 11.6663 9.07839 11.8248 9.21805 11.9419C9.28776 12.0005 9.37069 12.047 9.46207 12.0787C9.55345 12.1105 9.65146 12.1268 9.75045 12.1268C9.84943 12.1268 9.94744 12.1105 10.0388 12.0787C10.1302 12.047 10.2131 12.0005 10.2828 11.9419L11.2501 11.1354V18.3748C11.2501 18.5406 11.3292 18.6997 11.4698 18.8169C11.6104 18.9341 11.8011 19 12 19C12.1989 19 12.3896 18.9341 12.5302 18.8169C12.6708 18.6997 12.7499 18.5406 12.7499 18.3748V11.1354L13.7172 11.9419C13.7869 12.0005 13.8698 12.047 13.9612 12.0787C14.0526 12.1105 14.1506 12.1268 14.2496 12.1268C14.3485 12.1268 14.4466 12.1105 14.5379 12.0787C14.6293 12.047 14.7122 12.0005 14.7819 11.9419C14.9216 11.8248 15 11.6663 15 11.5012C15 11.336 14.9216 11.1775 14.7819 11.0604Z" fill="#473289"/>
<path d="M15.5325 0.967513C15.4624 0.898001 15.3793 0.843008 15.2879 0.805684C15.1966 0.768361 15.0987 0.749442 15 0.750013H14.25V5.82001C14.252 6.06606 14.3506 6.30147 14.5246 6.47546C14.6985 6.64944 14.934 6.74805 15.18 6.75001H20.25V6.00001C20.2506 5.90131 20.2317 5.80346 20.1943 5.71208C20.157 5.6207 20.102 5.53759 20.0325 5.46751L15.5325 0.967513Z" fill="#8A7EB5"/>
<path d="M14.7819 11.9438C14.7122 12.0023 14.6293 12.0488 14.5379 12.0806C14.4466 12.1123 14.3485 12.1286 14.2496 12.1286C14.1506 12.1286 14.0526 12.1123 13.9612 12.0806C13.8698 12.0488 13.7869 12.0023 13.7172 11.9438L12.7499 11.1375V18.375C12.7499 18.5408 12.6708 18.6997 12.5302 18.8169C12.3896 18.9342 12.1989 19 12 19V9C12.0992 9.00034 12.1974 9.01709 12.2887 9.04928C12.3801 9.08146 12.4629 9.12844 12.5324 9.1875L14.7819 11.0625C14.9216 11.1796 15 11.338 15 11.5031C15 11.6682 14.9216 11.8266 14.7819 11.9438Z" fill="#473289"/>
</svg>
