<svg width="24" height="24" viewBox="0 0 24 24" fill="none" xmlns="http://www.w3.org/2000/svg">
<path d="M19.0325 5.46751L14.5325 0.967513C14.4624 0.898001 14.3793 0.843008 14.2879 0.805684C14.1966 0.768361 14.0987 0.749442 14 0.750013H5C4.40326 0.750013 3.83097 0.987065 3.40901 1.40902C2.98705 1.83098 2.75 2.40328 2.75 3.00001V21C2.75 21.5968 2.98705 22.169 3.40901 22.591C3.83097 23.013 4.40326 23.25 5 23.25H17C17.5967 23.25 18.169 23.013 18.591 22.591C19.0129 22.169 19.25 21.5968 19.25 21V6.00001C19.2506 5.90131 19.2317 5.80346 19.1943 5.71208C19.157 5.6207 19.102 5.53759 19.0325 5.46751Z" fill="#DDDDED"/>
<path d="M14.5325 0.967513C14.4624 0.898001 14.3793 0.843008 14.2879 0.805684C14.1966 0.768361 14.0987 0.749442 14 0.750013H13.25V5.82001C13.252 6.06606 13.3506 6.30147 13.5246 6.47546C13.6985 6.64944 13.934 6.74805 14.18 6.75001H19.25V6.00001C19.2506 5.90131 19.2317 5.80346 19.1943 5.71208C19.157 5.6207 19.102 5.53759 19.0325 5.46751L14.5325 0.967513Z" fill="#8A7EB5"/>
<rect x="6" y="10" width="10" height="1.4" rx="0.7" fill="#7A6CAB"/>
<rect x="6" y="13.3984" width="10" height="1.4" rx="0.7" fill="#7A6CAB"/>
<rect x="6" y="16.7969" width="10" height="1.4" rx="0.7" fill="#7A6CAB"/>
<g clip-path="url(#clip0_3110_98606)">
<path d="M22.7436 15.4935L22.1618 16.0753C22.1232 16.1139 22.0607 16.1144 22.0215 16.0764L20.9086 14.9976C20.8685 14.9588 20.868 14.8946 20.9075 14.8551L21.5064 14.2562C21.6704 14.0922 21.893 14 22.125 14C22.357 14 22.5796 14.0922 22.7436 14.2562C22.9077 14.4203 22.9999 14.6428 22.9999 14.8749C22.9999 15.1069 22.9077 15.3294 22.7436 15.4935ZM21.6382 16.4553C21.6781 16.4942 21.6785 16.5582 21.6391 16.5976L17.7239 20.5127C17.7118 20.5249 17.6967 20.5337 17.6801 20.5384L16.1697 20.9591C16.0949 20.98 16.026 20.9114 16.0464 20.8365L16.4607 19.3201C16.4653 19.3033 16.4742 19.288 16.4864 19.2757L20.3883 15.3739C20.427 15.3352 20.4896 15.3348 20.5288 15.373L21.6382 16.4553Z" fill="#473289"/>
</g>
<defs>
<clipPath id="clip0_3110_98606">
<rect width="7" height="7" fill="white" transform="translate(16 14)"/>
</clipPath>
</defs>
</svg>
