<svg width="49" height="48" viewBox="0 0 49 48" fill="none" xmlns="http://www.w3.org/2000/svg">
<g clip-path="url(#clip0_1822_14218)">
<path d="M27.1003 6.29687L44.3683 36.2049C44.6316 36.6609 44.7702 37.1782 44.7702 37.7048C44.7702 38.2315 44.6316 38.7488 44.3683 39.2048C44.105 39.6609 43.7263 40.0396 43.2703 40.3029C42.8142 40.5662 42.2969 40.7049 41.7703 40.7049H7.2343C6.7077 40.7049 6.19037 40.5662 5.73433 40.3029C5.27828 40.0396 4.89958 39.6609 4.63628 39.2048C4.37298 38.7488 4.23437 38.2315 4.23438 37.7048C4.23438 37.1782 4.373 36.6609 4.6363 36.2049L21.9043 6.29687C23.0583 4.29688 25.9443 4.29688 27.1003 6.29687ZM24.5023 30.0009C23.9719 30.0009 23.4632 30.2116 23.0881 30.5867C22.713 30.9617 22.5023 31.4704 22.5023 32.0009C22.5023 32.5313 22.713 33.04 23.0881 33.4151C23.4632 33.7902 23.9719 34.0009 24.5023 34.0009C25.0327 34.0009 25.5414 33.7902 25.9165 33.4151C26.2916 33.04 26.5023 32.5313 26.5023 32.0009C26.5023 31.4704 26.2916 30.9617 25.9165 30.5867C25.5414 30.2116 25.0327 30.0009 24.5023 30.0009ZM24.5023 16.0009C24.0124 16.0009 23.5396 16.1808 23.1736 16.5063C22.8075 16.8318 22.5736 17.2804 22.5163 17.7669L22.5023 18.0009V26.0009C22.5029 26.5106 22.6981 27.0009 23.048 27.3716C23.3979 27.7423 23.8762 27.9653 24.3851 27.9952C24.894 28.0251 25.3951 27.8595 25.786 27.5323C26.1769 27.2052 26.4281 26.7411 26.4883 26.2349L26.5023 26.0009V18.0009C26.5023 17.4704 26.2916 16.9617 25.9165 16.5867C25.5414 16.2116 25.0327 16.0009 24.5023 16.0009Z" fill="#D9342B"/>
</g>
<defs>
<clipPath id="clip0_1822_14218">
<rect width="48" height="48" fill="white" transform="translate(0.5)"/>
</clipPath>
</defs>
</svg>
