<svg width="211" height="200" viewBox="0 0 211 200" fill="none" xmlns="http://www.w3.org/2000/svg">
<path d="M93.8666 200C131.072 200 161.233 197.985 161.233 195.5C161.233 193.015 131.072 191 93.8666 191C56.6611 191 26.5 193.015 26.5 195.5C26.5 197.985 56.6611 200 93.8666 200Z" fill="#DDDDED"/>
<path d="M204.89 86.2775L153.495 48.2257C150.396 45.9307 145.998 46.5509 143.673 49.6108L99.2351 108.102C96.9103 111.162 97.5385 115.503 100.638 117.798L152.033 155.85C155.133 158.145 159.53 157.524 161.855 154.464L206.293 95.9734C208.618 92.9134 207.99 88.5724 204.89 86.2775Z" fill="#473289"/>
<path d="M121.299 0.74713L29.0172 27.6107C27.5968 28.0242 26.7849 29.4961 27.2037 30.8983L63.77 153.31C64.1889 154.712 65.6799 155.513 67.1003 155.1L159.382 128.236C160.803 127.823 161.615 126.351 161.196 124.949L124.63 2.53733C124.211 1.13515 122.72 0.333647 121.299 0.74713Z" fill="#7A6CAB"/>
<path d="M49.5623 11.8203H118.827L143.966 38.0669L145.212 138.713C145.222 139.518 145.068 140.316 144.76 141.061C144.451 141.806 143.994 142.483 143.416 143.053C142.837 143.622 142.148 144.072 141.39 144.376C140.632 144.681 139.82 144.833 139.001 144.825L49.499 143.912C47.8784 143.894 46.3303 143.249 45.191 142.117C44.0517 140.985 43.4132 139.457 43.4141 137.866V17.8585C43.4141 16.2571 44.0618 14.7212 45.2148 13.5889C46.3678 12.4565 47.9317 11.8203 49.5623 11.8203Z" fill="#EDEEF6"/>
<path d="M76.5004 34.0703H58.0572C56.9771 34.0703 56.1016 34.9628 56.1016 36.0637V54.8627C56.1016 55.9637 56.9771 56.8561 58.0572 56.8561H76.5004C77.5805 56.8561 78.4561 55.9637 78.4561 54.8627V36.0637C78.4561 34.9628 77.5805 34.0703 76.5004 34.0703Z" fill="#BBB8D6"/>
<path d="M114.479 39.0938H82.7929C82.5405 39.0938 82.3359 39.3023 82.3359 39.5596V42.9009C82.3359 43.1582 82.5405 43.3667 82.7929 43.3667H114.479C114.731 43.3667 114.936 43.1582 114.936 42.9009V39.5596C114.936 39.3023 114.731 39.0938 114.479 39.0938Z" fill="#BBB8D6"/>
<path d="M132.552 49.4297H82.7291C82.512 49.4297 82.3359 49.6091 82.3359 49.8304V53.3019C82.3359 53.5233 82.512 53.7027 82.7291 53.7027H132.552C132.769 53.7027 132.945 53.5233 132.945 53.3019V49.8304C132.945 49.6091 132.769 49.4297 132.552 49.4297Z" fill="#BBB8D6"/>
<path d="M132.553 64.6172H56.4947C56.2776 64.6172 56.1016 64.7966 56.1016 65.018V68.4894C56.1016 68.7108 56.2776 68.8902 56.4947 68.8902H132.553C132.77 68.8902 132.946 68.7108 132.946 68.4894V65.018C132.946 64.7966 132.77 64.6172 132.553 64.6172Z" fill="#BBB8D6"/>
<path d="M132.553 74.5938H56.4947C56.2776 74.5938 56.1016 74.7732 56.1016 74.9945V78.466C56.1016 78.6873 56.2776 78.8667 56.4947 78.8667H132.553C132.77 78.8667 132.946 78.6873 132.946 78.466V74.9945C132.946 74.7732 132.77 74.5938 132.553 74.5938Z" fill="#BBB8D6"/>
<path d="M118.61 11.6109V34.9528C118.607 35.6019 118.866 36.2254 119.328 36.687C119.79 37.1486 120.419 37.4107 121.076 37.416L143.447 37.6478C143.463 37.6476 143.479 37.6428 143.493 37.6338C143.507 37.6248 143.518 37.6121 143.524 37.5972C143.531 37.5823 143.533 37.5658 143.53 37.5497C143.528 37.5336 143.521 37.5186 143.51 37.5064L118.784 11.5459C118.772 11.5293 118.754 11.5173 118.734 11.5116C118.714 11.5058 118.692 11.5067 118.672 11.514C118.653 11.5213 118.636 11.5347 118.625 11.5522C118.613 11.5696 118.608 11.5902 118.61 11.6109Z" fill="#AAA5CB"/>
<path d="M34.8461 67.3594H63.5733C66.5985 67.3595 69.5026 68.5325 71.6604 70.6257L85.0614 83.6342C86.1574 84.6998 87.634 85.2971 89.1723 85.2971H152.058C154.532 85.2971 156.904 86.2672 158.654 87.994C160.403 89.7208 161.386 92.0628 161.386 94.5049V162.325C161.386 165.025 160.299 167.614 158.365 169.524C156.431 171.433 153.808 172.505 151.073 172.505H38.49C35.451 172.505 32.5364 171.314 30.3875 169.192C28.2385 167.071 27.0313 164.194 27.0313 161.194V75.0966C27.0312 73.0485 27.8539 71.0839 29.3188 69.6335C30.7837 68.1832 32.7714 67.3654 34.8461 67.3594Z" fill="#9991BF"/>
<path d="M27.2397 182.542C42.0076 182.542 53.9794 170.57 53.9794 155.802C53.9794 141.034 42.0076 129.062 27.2397 129.062C12.4718 129.062 0.5 141.034 0.5 155.802C0.5 170.57 12.4718 182.542 27.2397 182.542Z" fill="#473289"/>
<path d="M36.7526 146.352H20.7109H25.0859C26.633 146.352 28.1168 146.966 29.2107 148.06C30.3047 149.154 30.9193 150.638 30.9193 152.185C30.9193 153.732 30.3047 155.216 29.2107 156.31C28.1168 157.404 26.633 158.018 25.0859 158.018H20.7109L29.4609 166.768M20.7109 152.185H36.7526" stroke="white" stroke-width="2.91667" stroke-linecap="round" stroke-linejoin="round"/>
</svg>
