<svg width="20" height="20" viewBox="0 0 20 20" fill="none" xmlns="http://www.w3.org/2000/svg">
<circle cx="10" cy="10" r="10" fill="#22C55E"/>
<path fill-rule="evenodd" clip-rule="evenodd" d="M16.172 5.85812C16.2562 5.93027 16.3253 6.01829 16.3755 6.11717C16.4256 6.21604 16.4558 6.32383 16.4642 6.43436C16.4727 6.5449 16.4593 6.65602 16.4248 6.76138C16.3903 6.86673 16.3354 6.96426 16.2631 7.04837L9.51314 14.9234C9.43746 15.0117 9.34435 15.0834 9.23965 15.134C9.13495 15.1846 9.02092 15.213 8.90471 15.2174C8.78851 15.2218 8.67265 15.2022 8.56439 15.1597C8.45614 15.1173 8.35783 15.0529 8.27564 14.9706L4.33814 11.0331C4.18452 10.8739 4.09957 10.6607 4.1016 10.4395C4.10362 10.2183 4.19246 10.0067 4.34897 9.85034C4.50548 9.69397 4.71715 9.60534 4.93838 9.60352C5.15961 9.6017 5.37271 9.68685 5.53177 9.84062L8.82577 13.1335L14.9829 5.95037C15.1286 5.78071 15.3356 5.6758 15.5586 5.65872C15.7816 5.64163 16.0022 5.71263 16.172 5.85812Z" fill="white"/>
</svg>
