<svg width="24" height="24" viewBox="0 0 24 24" fill="none" xmlns="http://www.w3.org/2000/svg">
<path d="M9.39437 11.4684C11.1569 11.4684 12.5856 10.0397 12.5856 8.27719C12.5856 6.51471 11.1569 5.08594 9.39437 5.08594C7.6319 5.08594 6.20312 6.51471 6.20312 8.27719C6.20312 10.0397 7.6319 11.4684 9.39437 11.4684Z" fill="#BBB8D6" stroke="#BBB8D6" stroke-width="1.875" stroke-miterlimit="10"/>
<path d="M12.1788 13.5391H6.60438C4.57375 13.5391 2.92188 15.1909 2.92188 17.2216V19.5109H4.79688H13.9844H15.8594V17.2197C15.8594 15.1891 14.2094 13.5391 12.1788 13.5391Z" fill="#8A7EB5"/>
<path d="M18.8308 11.856H14.8193C14.4323 11.856 14.1068 11.5869 14.0222 11.2022C13.9017 10.6638 14.2875 10.1513 14.8078 10.1513H18.8437V9.318C18.8437 9.17662 18.9039 9.07466 19.0128 9.02301C19.1333 8.97135 19.2307 9.01077 19.3153 9.10049C19.8472 9.66465 20.3791 10.2288 20.9096 10.7916C21.0301 10.9194 21.0301 11.0866 20.9096 11.2144C20.3778 11.7785 19.8459 12.3427 19.3153 12.9055C19.2307 12.9952 19.1346 13.0211 19.0128 12.983C18.9039 12.9449 18.8437 12.8294 18.8437 12.688V11.8683L18.8321 11.856H18.8308Z" fill="#473289"/>
</svg>
