<svg width="24" height="24" viewBox="0 0 24 24" fill="none" xmlns="http://www.w3.org/2000/svg">
<path fill-rule="evenodd" clip-rule="evenodd" d="M15.4365 6.39485V5.58763C15.4365 3.61444 13.8713 2 11.9582 2C10.0452 2 8.52344 3.61444 8.52344 5.58763V6.39485H15.4365Z" fill="#BBB8D6"/>
<path fill-rule="evenodd" clip-rule="evenodd" d="M15.4365 7.56361V7.07031H8.52344V7.56361H15.4365Z" fill="#BBB8D6"/>
<path fill-rule="evenodd" clip-rule="evenodd" d="M7.47826 12.175V11.8611C7.47826 11.6368 7.30435 11.4575 7.08696 11.4575H6.3913C6.17391 11.4575 6 11.6368 6 11.8611V13.341C6 16.3905 8.30435 19.0363 11.2174 19.4399V20.4714H8.13043C7.91304 20.4714 7.73913 20.6508 7.73913 20.875V21.5925C7.73913 21.8168 7.91304 21.9961 8.13043 21.9961H15.8261C16.0435 21.9961 16.2174 21.8168 16.2174 21.5925V20.875C16.2174 20.6508 16.0435 20.4714 15.8261 20.4714H12.7391V19.4399C15.6957 19.0363 18 16.3456 18 13.341V11.8611C18 11.6368 17.8261 11.4575 17.6087 11.4575H16.8696C16.6522 11.4575 16.4783 11.6368 16.4783 11.8611V12.175H15.4783V8.27344H8.52174V12.175H7.47826Z" fill="#473289"/>
<path fill-rule="evenodd" clip-rule="evenodd" d="M11.9626 17.2036C13.8757 17.2036 15.4409 15.5892 15.4409 13.6608V12.8984H16.4409V13.3917C16.4409 15.9479 14.4409 18.0108 11.9626 18.0108C9.48437 18.0108 7.48438 15.9928 7.48438 13.3917V12.8984H8.52785V13.6608C8.52785 15.5892 10.0496 17.2036 11.9626 17.2036Z" fill="#FEFEFE"/>
</svg>
