<svg width="6" height="10" viewBox="0 0 6 10" fill="none" xmlns="http://www.w3.org/2000/svg">
<path d="M5.31122 0.496117C5.25317 0.437913 5.1842 0.391735 5.10826 0.360227C5.03233 0.328718 4.95093 0.3125 4.86872 0.3125C4.78651 0.3125 4.70511 0.328718 4.62918 0.360227C4.55325 0.391735 4.48428 0.437913 4.42622 0.496117L0.271222 4.65112C0.22487 4.69737 0.188097 4.75232 0.163006 4.8128C0.137915 4.87329 0.125 4.93813 0.125 5.00362C0.125 5.0691 0.137915 5.13394 0.163006 5.19443C0.188097 5.25492 0.22487 5.30986 0.271222 5.35612L4.42622 9.51112C4.67122 9.75612 5.06622 9.75612 5.31122 9.51112C5.55622 9.26612 5.55622 8.87112 5.31122 8.62612L1.69122 5.00112L5.31622 1.37612C5.55622 1.13612 5.55622 0.736117 5.31122 0.496117Z" fill="#473289"/>
</svg>
