<svg width="17" height="17" viewBox="0 0 17 17" fill="none" xmlns="http://www.w3.org/2000/svg">
<path d="M8.4974 2.83073C6.9945 2.83073 5.55316 3.42775 4.49046 4.49046C3.42775 5.55316 2.83073 6.9945 2.83073 8.4974C2.83073 10.0003 3.42775 11.4416 4.49046 12.5043C5.55316 13.567 6.9945 14.1641 8.4974 14.1641C10.0003 14.1641 11.4416 13.567 12.5043 12.5043C13.567 11.4416 14.1641 10.0003 14.1641 8.4974C14.1641 6.9945 13.567 5.55316 12.5043 4.49046C11.4416 3.42775 10.0003 2.83073 8.4974 2.83073ZM1.41406 8.4974C1.41406 4.58527 4.58527 1.41406 8.4974 1.41406C12.4095 1.41406 15.5807 4.58527 15.5807 8.4974C15.5807 12.4095 12.4095 15.5807 8.4974 15.5807C4.58527 15.5807 1.41406 12.4095 1.41406 8.4974Z" fill="#4B5563"/>
<path d="M8.5 7.08333C8.68786 7.08333 8.86803 7.15796 9.00087 7.2908C9.13371 7.42364 9.20833 7.6038 9.20833 7.79167V12.0417C9.20833 12.2295 9.13371 12.4097 9.00087 12.5425C8.86803 12.6754 8.68786 12.75 8.5 12.75C8.31214 12.75 8.13197 12.6754 7.99913 12.5425C7.86629 12.4097 7.79167 12.2295 7.79167 12.0417V7.79167C7.79167 7.6038 7.86629 7.42364 7.99913 7.2908C8.13197 7.15796 8.31214 7.08333 8.5 7.08333ZM9.5625 5.3125C9.5625 5.59429 9.45056 5.86454 9.2513 6.0638C9.05204 6.26306 8.78179 6.375 8.5 6.375C8.21821 6.375 7.94796 6.26306 7.7487 6.0638C7.54944 5.86454 7.4375 5.59429 7.4375 5.3125C7.4375 5.03071 7.54944 4.76046 7.7487 4.5612C7.94796 4.36194 8.21821 4.25 8.5 4.25C8.78179 4.25 9.05204 4.36194 9.2513 4.5612C9.45056 4.76046 9.5625 5.03071 9.5625 5.3125Z" fill="#4B5563"/>
</svg>
