<svg width="20" height="20" viewBox="0 0 20 20" fill="none" xmlns="http://www.w3.org/2000/svg">
<path d="M7.50033 8.33073C9.34128 8.33073 10.8337 6.83835 10.8337 4.9974C10.8337 3.15645 9.34128 1.66406 7.50033 1.66406C5.65938 1.66406 4.16699 3.15645 4.16699 4.9974C4.16699 6.83835 5.65938 8.33073 7.50033 8.33073Z" stroke="#4B5563" stroke-width="1.25"/>
<path d="M12.5 7.5C13.163 7.5 13.7989 7.23661 14.2678 6.76777C14.7366 6.29893 15 5.66304 15 5C15 4.33696 14.7366 3.70107 14.2678 3.23223C13.7989 2.76339 13.163 2.5 12.5 2.5" stroke="#4B5563" stroke-width="1.25" stroke-linecap="round"/>
<path d="M7.50033 17.4948C10.722 17.4948 13.3337 16.0024 13.3337 14.1615C13.3337 12.3205 10.722 10.8281 7.50033 10.8281C4.27866 10.8281 1.66699 12.3205 1.66699 14.1615C1.66699 16.0024 4.27866 17.4948 7.50033 17.4948Z" stroke="#4B5563" stroke-width="1.25"/>
<path d="M15 11.6641C16.4617 11.9849 17.5 12.7966 17.5 13.7474C17.5 14.6057 16.655 15.3499 15.4167 15.7224" stroke="#4B5563" stroke-width="1.25" stroke-linecap="round"/>
</svg>
