<svg width="24" height="24" viewBox="0 0 24 24" fill="none" xmlns="http://www.w3.org/2000/svg">
<path d="M9.39437 11.4684C11.1569 11.4684 12.5856 10.0397 12.5856 8.27719C12.5856 6.51471 11.1569 5.08594 9.39437 5.08594C7.6319 5.08594 6.20312 6.51471 6.20312 8.27719C6.20312 10.0397 7.6319 11.4684 9.39437 11.4684Z" fill="#BBB8D6" stroke="#BBB8D6" stroke-width="1.875" stroke-miterlimit="10"/>
<path d="M12.1788 13.5391H6.60438C4.57375 13.5391 2.92188 15.1909 2.92188 17.2216V19.5109H4.79688H13.9844H15.8594V17.2197C15.8594 15.1891 14.2094 13.5391 12.1788 13.5391Z" fill="#8A7EB5"/>
<path d="M15 10.5C15 11.1922 15.2053 11.8689 15.5899 12.4445C15.9744 13.0201 16.5211 13.4687 17.1606 13.7336C17.8001 13.9985 18.5039 14.0678 19.1828 13.9327C19.8617 13.7977 20.4854 13.4644 20.9749 12.9749C21.4644 12.4854 21.7977 11.8617 21.9327 11.1828C22.0678 10.5039 21.9985 9.80015 21.7336 9.16061C21.4687 8.52107 21.0201 7.97444 20.4445 7.58986C19.8689 7.20527 19.1922 7 18.5 7C17.5215 7.00368 16.5824 7.38548 15.8789 8.06556L15 8.94444" stroke="#473289" stroke-width="0.833333" stroke-linecap="round" stroke-linejoin="round"/>
<path d="M15 7V8.94444H16.9444" stroke="#473289" stroke-width="0.833333" stroke-linecap="round" stroke-linejoin="round"/>
</svg>
