<svg width="24" height="24" viewBox="0 0 24 24" fill="none" xmlns="http://www.w3.org/2000/svg">
<g clip-path="url(#clip0_1918_44793)">
<path d="M9.39313 11.4738C11.1531 11.4738 12.5831 10.0437 12.5831 8.28375C12.5831 6.52375 11.1531 5.09375 9.39313 5.09375C7.63313 5.09375 6.20313 6.52375 6.20313 8.28375C6.20312 10.0437 7.63313 11.4738 9.39313 11.4738Z" fill="#BBB8D6" stroke="#BBB8D6" stroke-width="1.875" stroke-miterlimit="10"/>
<path d="M12.1797 13.5469H6.60969C4.57969 13.5469 2.92969 15.1969 2.92969 17.2269V19.5169H4.79969H13.9897H15.8697V17.2269C15.8597 15.1969 14.2097 13.5469 12.1797 13.5469Z" fill="#8A7EB5"/>
<path d="M17.9793 10.8488C17.866 10.973 17.764 11.086 17.6507 11.199C17.118 11.7299 16.5854 12.2722 16.0414 12.8031C15.792 13.0517 15.4181 13.0517 15.1801 12.8144C14.9421 12.5659 14.9421 12.2044 15.1914 11.9559C15.8147 11.3345 16.4267 10.7132 17.05 10.1032C17.152 10.0015 17.152 10.0015 17.05 9.89982C16.438 9.28978 15.8147 8.66844 15.2027 8.05841C15.0214 7.87765 14.9534 7.67431 15.0327 7.42577C15.1121 7.18854 15.2821 7.05297 15.5314 7.00779C15.7354 6.97389 15.9167 7.05297 16.064 7.19983C16.4834 7.62912 16.914 8.04711 17.3333 8.47639C17.5373 8.67974 17.73 8.87179 17.9227 9.07514C17.9907 9.14292 18.0247 9.13162 18.0813 9.07514C18.7046 8.4538 19.3166 7.83247 19.9399 7.22243C20.2119 6.9513 20.5973 6.9513 20.8466 7.22243C21.0619 7.45967 21.0506 7.80987 20.8126 8.05841C20.2006 8.66844 19.5773 9.28978 18.9653 9.89982C18.852 10.0128 18.852 10.0128 18.9653 10.1258C19.5773 10.7358 20.1893 11.3458 20.8012 11.9559C20.9826 12.1366 21.0506 12.34 20.9599 12.5885C20.8806 12.8257 20.7106 12.9613 20.4613 12.9952C20.2686 13.0178 20.0986 12.9613 19.9626 12.8144C19.3506 12.2044 18.7386 11.5944 18.1267 10.9843C18.0927 10.9504 18.0587 10.894 18.036 10.8601C18.0133 10.8375 17.9907 10.8375 17.9793 10.8488Z" fill="#473289"/>
</g>
<defs>
<clipPath id="clip0_1918_44793">
<rect width="24" height="24" fill="white"/>
</clipPath>
</defs>
</svg>
