<svg width="16" height="16" viewBox="0 0 16 16" fill="none" xmlns="http://www.w3.org/2000/svg">
<path d="M3.41667 2.16667C3.74819 2.16667 4.06613 2.29836 4.30055 2.53278C4.53497 2.7672 4.66667 3.08515 4.66667 3.41667V4.66667H3.41667C3.08515 4.66667 2.7672 4.53497 2.53278 4.30055C2.29836 4.06613 2.16667 3.74819 2.16667 3.41667C2.16667 3.08515 2.29836 2.7672 2.53278 2.53278C2.7672 2.29836 3.08515 2.16667 3.41667 2.16667ZM6.33333 4.66667V3.41667C6.33333 2.83981 6.16227 2.2759 5.84179 1.79625C5.5213 1.31661 5.06578 0.942775 4.53283 0.722019C3.99988 0.501264 3.41343 0.443504 2.84765 0.556044C2.28188 0.668584 1.76218 0.94637 1.35427 1.35427C0.94637 1.76218 0.668584 2.28188 0.556044 2.84765C0.443504 3.41343 0.501264 3.99988 0.722019 4.53283C0.942775 5.06578 1.31661 5.5213 1.79625 5.84179C2.2759 6.16227 2.83981 6.33333 3.41667 6.33333H4.66667V9.66667H3.41667C2.83981 9.66667 2.2759 9.83773 1.79625 10.1582C1.31661 10.4787 0.942775 10.9342 0.722019 11.4672C0.501264 12.0001 0.443504 12.5866 0.556044 13.1523C0.668584 13.7181 0.94637 14.2378 1.35427 14.6457C1.76218 15.0536 2.28188 15.3314 2.84765 15.444C3.41343 15.5565 3.99988 15.4987 4.53283 15.278C5.06578 15.0572 5.5213 14.6834 5.84179 14.2037C6.16227 13.7241 6.33333 13.1602 6.33333 12.5833V11.3333H9.66667V12.5833C9.66667 13.1602 9.83773 13.7241 10.1582 14.2037C10.4787 14.6834 10.9342 15.0572 11.4672 15.278C12.0001 15.4987 12.5866 15.5565 13.1523 15.444C13.7181 15.3314 14.2378 15.0536 14.6457 14.6457C15.0536 14.2378 15.3314 13.7181 15.444 13.1523C15.5565 12.5866 15.4987 12.0001 15.278 11.4672C15.0572 10.9342 14.6834 10.4787 14.2037 10.1582C13.7241 9.83773 13.1602 9.66667 12.5833 9.66667H11.3333V6.33333H12.5833C13.1602 6.33333 13.7241 6.16227 14.2037 5.84179C14.6834 5.5213 15.0572 5.06578 15.278 4.53283C15.4987 3.99988 15.5565 3.41343 15.444 2.84765C15.3314 2.28188 15.0536 1.76218 14.6457 1.35427C14.2378 0.94637 13.7181 0.668584 13.1523 0.556044C12.5866 0.443504 12.0001 0.501264 11.4672 0.722019C10.9342 0.942775 10.4787 1.31661 10.1582 1.79625C9.83773 2.2759 9.66667 2.83981 9.66667 3.41667V4.66667H6.33333ZM6.33333 6.33333H9.66667V9.66667H6.33333V6.33333ZM11.3333 4.66667V3.41667C11.3333 3.16944 11.4066 2.92777 11.544 2.72221C11.6813 2.51664 11.8766 2.35643 12.105 2.26182C12.3334 2.16721 12.5847 2.14245 12.8272 2.19069C13.0697 2.23892 13.2924 2.35797 13.4672 2.53278C13.642 2.7076 13.7611 2.93033 13.8093 3.17281C13.8575 3.41528 13.8328 3.66661 13.7382 3.89502C13.6436 4.12343 13.4834 4.31865 13.2778 4.456C13.0722 4.59336 12.8306 4.66667 12.5833 4.66667H11.3333ZM11.3333 11.3333H12.5833C12.8306 11.3333 13.0722 11.4066 13.2778 11.544C13.4834 11.6813 13.6436 11.8766 13.7382 12.105C13.8328 12.3334 13.8575 12.5847 13.8093 12.8272C13.7611 13.0697 13.642 13.2924 13.4672 13.4672C13.2924 13.642 13.0697 13.7611 12.8272 13.8093C12.5847 13.8575 12.3334 13.8328 12.105 13.7382C11.8766 13.6436 11.6813 13.4834 11.544 13.2778C11.4066 13.0722 11.3333 12.8306 11.3333 12.5833V11.3333ZM4.66667 11.3333V12.5833C4.66667 12.8306 4.59336 13.0722 4.456 13.2778C4.31865 13.4834 4.12343 13.6436 3.89502 13.7382C3.66661 13.8328 3.41528 13.8575 3.17281 13.8093C2.93033 13.7611 2.7076 13.642 2.53278 13.4672C2.35797 13.2924 2.23892 13.0697 2.19069 12.8272C2.14245 12.5847 2.16721 12.3334 2.26182 12.105C2.35643 11.8766 2.51664 11.6813 2.72221 11.544C2.92777 11.4066 3.16944 11.3333 3.41667 11.3333H4.66667Z" fill="white"/>
</svg>
