<svg width="16" height="16" viewBox="0 0 16 16" fill="none" xmlns="http://www.w3.org/2000/svg">
<path fill-rule="evenodd" clip-rule="evenodd" d="M12.5648 4.29809C12.6218 4.24115 12.667 4.17354 12.6979 4.09911C12.7288 4.02469 12.7447 3.94491 12.7447 3.86433C12.7448 3.78376 12.729 3.70396 12.6982 3.6295C12.6674 3.55504 12.6222 3.48737 12.5653 3.43036C12.5083 3.37335 12.4407 3.32811 12.3663 3.29723C12.2919 3.26635 12.2121 3.25043 12.1315 3.25038C12.051 3.25033 11.9712 3.26615 11.8967 3.29694C11.8222 3.32773 11.7546 3.37288 11.6976 3.42982L7.99729 7.13009L4.29809 3.42982C4.18295 3.31468 4.02679 3.25 3.86396 3.25C3.70113 3.25 3.54496 3.31468 3.42982 3.42982C3.31468 3.54496 3.25 3.70113 3.25 3.86396C3.25 4.02679 3.31468 4.18295 3.42982 4.29809L7.13009 7.99729L3.42982 11.6965C3.37281 11.7535 3.32759 11.8212 3.29673 11.8957C3.26588 11.9702 3.25 12.05 3.25 12.1306C3.25 12.2112 3.26588 12.2911 3.29673 12.3656C3.32759 12.4401 3.37281 12.5077 3.42982 12.5648C3.54496 12.6799 3.70113 12.7446 3.86396 12.7446C3.94458 12.7446 4.02442 12.7287 4.09891 12.6978C4.1734 12.667 4.24108 12.6218 4.29809 12.5648L7.99729 8.86449L11.6976 12.5648C11.8127 12.6798 11.9688 12.7443 12.1315 12.7442C12.2943 12.7441 12.4503 12.6794 12.5653 12.5642C12.6803 12.4491 12.7448 12.293 12.7447 12.1302C12.7446 11.9675 12.6799 11.8115 12.5648 11.6965L8.86449 7.99729L12.5648 4.29809Z" fill="#FF3D32"/>
</svg>
