<svg width="20" height="20" viewBox="0 0 20 20" fill="none" xmlns="http://www.w3.org/2000/svg">
<g clip-path="url(#clip0_4975_1024)">
<path d="M16.1576 9.58067H12.1091C11.9749 9.58067 11.8461 9.63399 11.7512 9.72889C11.6563 9.8238 11.603 9.95252 11.603 10.0867V16.1596C11.603 16.2938 11.6563 16.4225 11.7512 16.5174C11.8461 16.6124 11.9749 16.6657 12.1091 16.6657H16.1576C16.2919 16.6657 16.4206 16.6124 16.5155 16.5174C16.6104 16.4225 16.6637 16.2938 16.6637 16.1596V10.0867C16.6637 9.95252 16.6104 9.8238 16.5155 9.72889C16.4206 9.63399 16.2919 9.58067 16.1576 9.58067ZM16.1576 3.50781H12.1091C11.9749 3.50781 11.8461 3.56113 11.7512 3.65604C11.6563 3.75094 11.603 3.87967 11.603 4.01388V6.04829C11.603 6.18251 11.6563 6.31123 11.7512 6.40614C11.8461 6.50104 11.9749 6.55436 12.1091 6.55436H16.1576C16.2919 6.55436 16.4206 6.50104 16.5155 6.40614C16.6104 6.31123 16.6637 6.18251 16.6637 6.04829V4.01388C16.6637 3.87967 16.6104 3.75094 16.5155 3.65604C16.4206 3.56113 16.2919 3.50781 16.1576 3.50781ZM8.0605 3.50781H4.01193C3.87771 3.50781 3.74899 3.56113 3.65408 3.65604C3.55918 3.75094 3.50586 3.87967 3.50586 4.01388V10.0867C3.50586 10.221 3.55918 10.3497 3.65408 10.4446C3.74899 10.5395 3.87771 10.5928 4.01193 10.5928H8.0605C8.19472 10.5928 8.32344 10.5395 8.41835 10.4446C8.51326 10.3497 8.56657 10.221 8.56657 10.0867V4.01388C8.56657 3.87967 8.51326 3.75094 8.41835 3.65604C8.32344 3.56113 8.19472 3.50781 8.0605 3.50781ZM8.0605 13.6191H4.01193C3.87771 13.6191 3.74899 13.6724 3.65408 13.7673C3.55918 13.8623 3.50586 13.991 3.50586 14.1252V16.1596C3.50586 16.2938 3.55918 16.4225 3.65408 16.5174C3.74899 16.6124 3.87771 16.6657 4.01193 16.6657H8.0605C8.19472 16.6657 8.32344 16.6124 8.41835 16.5174C8.51326 16.4225 8.56657 16.2938 8.56657 16.1596V14.1252C8.56657 13.991 8.51326 13.8623 8.41835 13.7673C8.32344 13.6724 8.19472 13.6191 8.0605 13.6191Z" stroke="#4B5563" stroke-width="1.42857" stroke-linecap="round" stroke-linejoin="round"/>
</g>
<defs>
<clipPath id="clip0_4975_1024">
<rect width="14.17" height="14.17" fill="white" transform="translate(3 3)"/>
</clipPath>
</defs>
</svg>
