<svg width="20" height="20" viewBox="0 0 20 20" fill="none" xmlns="http://www.w3.org/2000/svg">
<path d="M8.21205 4.28683H11.7835C11.7835 3.81323 11.5953 3.35903 11.2605 3.02414C10.9256 2.68925 10.4714 2.50112 9.99777 2.50112C9.52417 2.50112 9.06996 2.68925 8.73508 3.02414C8.40019 3.35903 8.21205 3.81323 8.21205 4.28683ZM7.14062 4.28683C7.14062 3.52907 7.44164 2.80234 7.97746 2.26653C8.51328 1.73071 9.24001 1.42969 9.99777 1.42969C10.7555 1.42969 11.4823 1.73071 12.0181 2.26653C12.5539 2.80234 12.8549 3.52907 12.8549 4.28683H17.3192C17.4613 4.28683 17.5975 4.34327 17.698 4.44374C17.7985 4.5442 17.8549 4.68046 17.8549 4.82254C17.8549 4.96462 17.7985 5.10089 17.698 5.20135C17.5975 5.30182 17.4613 5.35826 17.3192 5.35826H16.3835L15.5142 15.789C15.451 16.5478 15.1049 17.2551 14.5446 17.7707C13.9842 18.2863 13.2506 18.5725 12.4892 18.5725H7.50634C6.7449 18.5725 6.0113 18.2863 5.45099 17.7707C4.89067 17.2551 4.54458 16.5478 4.48134 15.789L3.61205 5.35826H2.67634C2.53426 5.35826 2.398 5.30182 2.29753 5.20135C2.19707 5.10089 2.14062 4.96462 2.14062 4.82254C2.14062 4.68046 2.19707 4.5442 2.29753 4.44374C2.398 4.34327 2.53426 4.28683 2.67634 4.28683H7.14062ZM8.92634 8.39397C8.92634 8.25189 8.8699 8.11563 8.76943 8.01517C8.66897 7.9147 8.53271 7.85826 8.39062 7.85826C8.24854 7.85826 8.11228 7.9147 8.01182 8.01517C7.91135 8.11563 7.85491 8.25189 7.85491 8.39397V14.4654C7.85491 14.6075 7.91135 14.7437 8.01182 14.8442C8.11228 14.9447 8.24854 15.0011 8.39062 15.0011C8.53271 15.0011 8.66897 14.9447 8.76943 14.8442C8.8699 14.7437 8.92634 14.6075 8.92634 14.4654V8.39397ZM11.6049 7.85826C11.4628 7.85826 11.3266 7.9147 11.2261 8.01517C11.1256 8.11563 11.0692 8.25189 11.0692 8.39397V14.4654C11.0692 14.6075 11.1256 14.7437 11.2261 14.8442C11.3266 14.9447 11.4628 15.0011 11.6049 15.0011C11.747 15.0011 11.8833 14.9447 11.9837 14.8442C12.0842 14.7437 12.1406 14.6075 12.1406 14.4654V8.39397C12.1406 8.25189 12.0842 8.11563 11.9837 8.01517C11.8833 7.9147 11.747 7.85826 11.6049 7.85826Z" fill="#D9342B"/>
</svg>
