<svg width="32" height="32" viewBox="0 0 32 32" fill="none" xmlns="http://www.w3.org/2000/svg">
<path d="M13.3307 6.66667H18.6641C18.6641 5.95942 18.3831 5.28115 17.883 4.78105C17.3829 4.28095 16.7046 4 15.9974 4C15.2902 4 14.6119 4.28095 14.1118 4.78105C13.6117 5.28115 13.3307 5.95942 13.3307 6.66667ZM11.3307 6.66667C11.3307 6.05383 11.4514 5.447 11.686 4.88081C11.9205 4.31463 12.2642 3.80018 12.6976 3.36684C13.1309 2.9335 13.6454 2.58975 14.2115 2.35523C14.7777 2.12071 15.3846 2 15.9974 2C16.6102 2 17.2171 2.12071 17.7833 2.35523C18.3494 2.58975 18.8639 2.9335 19.2972 3.36684C19.7306 3.80018 20.0743 4.31463 20.3088 4.88081C20.5434 5.447 20.6641 6.05383 20.6641 6.66667H28.3307C28.5959 6.66667 28.8503 6.77202 29.0378 6.95956C29.2254 7.1471 29.3307 7.40145 29.3307 7.66667C29.3307 7.93188 29.2254 8.18624 29.0378 8.37377C28.8503 8.56131 28.5959 8.66667 28.3307 8.66667H26.5707L25.0107 24.8147C24.8911 26.052 24.3148 27.2003 23.3943 28.0358C22.4738 28.8712 21.2751 29.3338 20.0321 29.3333H11.9627C10.7199 29.3335 9.52153 28.8707 8.60133 28.0353C7.68113 27.1999 7.10504 26.0517 6.9854 24.8147L5.42406 8.66667H3.66406C3.39885 8.66667 3.14449 8.56131 2.95696 8.37377C2.76942 8.18624 2.66406 7.93188 2.66406 7.66667C2.66406 7.40145 2.76942 7.1471 2.95696 6.95956C3.14449 6.77202 3.39885 6.66667 3.66406 6.66667H11.3307ZM13.9974 13C13.9974 12.7348 13.892 12.4804 13.7045 12.2929C13.517 12.1054 13.2626 12 12.9974 12C12.7322 12 12.4778 12.1054 12.2903 12.2929C12.1028 12.4804 11.9974 12.7348 11.9974 13V23C11.9974 23.2652 12.1028 23.5196 12.2903 23.7071C12.4778 23.8946 12.7322 24 12.9974 24C13.2626 24 13.517 23.8946 13.7045 23.7071C13.892 23.5196 13.9974 23.2652 13.9974 23V13ZM18.9974 12C19.2626 12 19.517 12.1054 19.7045 12.2929C19.892 12.4804 19.9974 12.7348 19.9974 13V23C19.9974 23.2652 19.892 23.5196 19.7045 23.7071C19.517 23.8946 19.2626 24 18.9974 24C18.7322 24 18.4778 23.8946 18.2903 23.7071C18.1028 23.5196 17.9974 23.2652 17.9974 23V13C17.9974 12.7348 18.1028 12.4804 18.2903 12.2929C18.4778 12.1054 18.7322 12 18.9974 12ZM8.97606 24.6227C9.04798 25.3649 9.39372 26.0537 9.94589 26.5548C10.4981 27.056 11.2171 27.3335 11.9627 27.3333H20.0321C20.7777 27.3335 21.4967 27.056 22.0489 26.5548C22.6011 26.0537 22.9468 25.3649 23.0187 24.6227L24.5627 8.66667H7.43206L8.97606 24.6227Z" fill="#FF3D32"/>
</svg>
