<svg width="118" height="118" viewBox="0 0 118 118" fill="none" xmlns="http://www.w3.org/2000/svg">
<rect x="0.5" y="0.5" width="117" height="117" rx="9.5" fill="#F3F4F9"/>
<rect x="0.5" y="0.5" width="117" height="117" rx="9.5" stroke="#F3F4F9"/>
<path d="M93.8781 58.2787L80.1181 53.6388L73.3181 41.1588C71.4781 37.7988 67.9581 35.7188 64.1981 35.7188H39.3981C35.5581 35.7188 32.1181 37.7988 30.2781 41.1588L23.1581 54.1988V54.2787C23.0781 54.3587 23.0781 54.4388 23.0781 54.5188V74.1188C23.0781 74.9987 23.7981 75.7188 24.6781 75.7188H31.2381C31.9581 79.3988 35.2381 82.1188 39.0781 82.1188C42.9181 82.1188 46.1981 79.3988 46.9181 75.7188H71.2381C71.9581 79.3988 75.2381 82.1188 79.0781 82.1188C82.9181 82.1188 86.1981 79.3988 86.9181 75.7188H93.3981C94.2781 75.7188 94.9981 74.9987 94.9981 74.1188V59.7987C94.9981 59.0788 94.5981 58.5187 93.8781 58.2787ZM49.3981 38.9988H64.1981C66.8381 38.9988 69.2381 40.4388 70.5181 42.7588L76.2781 53.3988H49.3981V38.9988ZM33.0781 42.7588C34.3581 40.4388 36.7581 38.9988 39.3981 38.9988H46.1981V53.3988H27.3181L33.0781 42.7588ZM31.1581 72.5988H26.1981V69.3988H32.5981C31.8781 70.3587 31.3981 71.3988 31.1581 72.5988ZM38.9981 78.9987C36.3581 78.9987 34.1981 76.8387 34.1981 74.1987C34.1981 71.5588 36.3581 69.3988 38.9981 69.3988C41.6381 69.3988 43.7981 71.5588 43.7981 74.1987C43.7981 76.8387 41.6381 78.9987 38.9981 78.9987ZM78.9981 78.9987C76.3581 78.9987 74.1981 76.8387 74.1981 74.1987C74.1981 71.5588 76.3581 69.3988 78.9981 69.3988C81.6381 69.3988 83.7981 71.5588 83.7981 74.1987C83.7981 76.8387 81.6381 78.9987 78.9981 78.9987ZM91.7981 72.5988H86.8381C86.1181 68.9188 82.8381 66.1987 78.9981 66.1987C75.1581 66.1987 71.8781 68.9188 71.1581 72.5988H46.8381C46.1181 68.9188 42.8381 66.1987 38.9981 66.1987H26.1981V56.5988H78.7581L91.7981 60.9188V72.5988Z" fill="#473289"/>
</svg>
