<svg width="24" height="24" viewBox="0 0 24 24" fill="none" xmlns="http://www.w3.org/2000/svg">
<path d="M9.59844 5.9992C9.59872 6.85015 9.29754 7.67368 8.74836 8.3237C8.19918 8.97371 7.43749 9.40817 6.59844 9.55V14.4484C7.48848 14.5988 8.28953 15.0782 8.84283 15.7914C9.39614 16.5046 9.66132 17.3996 9.58583 18.2991C9.51035 19.1986 9.0997 20.0369 8.43527 20.6479C7.77083 21.2589 6.90111 21.598 5.99844 21.598C5.09578 21.598 4.22605 21.2589 3.56162 20.6479C2.89719 20.0369 2.48654 19.1986 2.41105 18.2991C2.33557 17.3996 2.60075 16.5046 3.15406 15.7914C3.70736 15.0782 4.50841 14.5988 5.39844 14.4484V9.55119C4.72178 9.43682 4.09191 9.13141 3.58304 8.67097C3.07417 8.21052 2.70751 7.61422 2.52627 6.95233C2.34502 6.29043 2.35674 5.59052 2.56004 4.93506C2.76335 4.27961 3.14976 3.69591 3.67376 3.25276C4.19775 2.80961 4.8375 2.52546 5.51761 2.4338C6.19773 2.34214 6.88987 2.44679 7.51249 2.73541C8.13511 3.02403 8.66226 3.4846 9.03183 4.06285C9.4014 4.6411 9.598 5.31293 9.59844 5.9992ZM14.2232 8.22399C14.1675 8.27987 14.1013 8.3242 14.0284 8.35445C13.9555 8.3847 13.8774 8.40027 13.7984 8.40027C13.7195 8.40027 13.6414 8.3847 13.5685 8.35445C13.4956 8.3242 13.4294 8.27987 13.3736 8.22399L10.9736 5.824C10.9178 5.76826 10.8734 5.70205 10.8432 5.62916C10.8129 5.55626 10.7974 5.47812 10.7974 5.3992C10.7974 5.32027 10.8129 5.24213 10.8432 5.16923C10.8734 5.09634 10.9178 5.03013 10.9736 4.9744L13.3736 2.5744C13.4863 2.46173 13.6391 2.39844 13.7984 2.39844C13.9578 2.39844 14.1106 2.46173 14.2232 2.5744C14.3359 2.68706 14.3992 2.83986 14.3992 2.9992C14.3992 3.15853 14.3359 3.31133 14.2232 3.424L12.8468 4.7992H14.9984C16.1124 4.7992 17.1806 5.24169 17.9683 6.02935C18.7559 6.817 19.1984 7.88529 19.1984 8.99919V14.6032C20.0496 14.9025 20.7573 15.5105 21.1816 16.3067C21.606 17.1029 21.716 18.0294 21.4899 18.9028C21.2638 19.7763 20.7181 20.533 19.9607 21.0234C19.2033 21.5137 18.2895 21.7019 17.4 21.5507C16.5106 21.3994 15.7103 20.9199 15.1575 20.2068C14.6047 19.4938 14.3397 18.5992 14.4149 17.7001C14.4902 16.801 14.9001 15.9629 15.5637 15.3517C16.2273 14.7404 17.0962 14.4005 17.9984 14.3992V8.99919C17.9984 8.20355 17.6824 7.44048 17.1198 6.87787C16.5572 6.31527 15.7941 5.9992 14.9984 5.9992H12.8468L14.2232 7.37439C14.2791 7.43013 14.3235 7.49634 14.3537 7.56923C14.3839 7.64213 14.3995 7.72027 14.3995 7.79919C14.3995 7.87812 14.3839 7.95626 14.3537 8.02916C14.3235 8.10205 14.2791 8.16826 14.2232 8.22399Z" fill="#473289"/>
<circle cx="6" cy="6" r="2" fill="#D8D7E8"/>
<circle cx="6" cy="18" r="2" fill="#D8D7E8"/>
<circle cx="18" cy="18" r="2" fill="#D8D7E8"/>
</svg>
