<svg width="24" height="24" viewBox="0 0 24 24" fill="none" xmlns="http://www.w3.org/2000/svg">
<path d="M18.375 4.125H5.625C4.79657 4.125 4.125 4.79657 4.125 5.625V22.125C4.125 22.9534 4.79657 23.625 5.625 23.625H18.375C19.2034 23.625 19.875 22.9534 19.875 22.125V5.625C19.875 4.79657 19.2034 4.125 18.375 4.125Z" fill="#D8D7E8"/>
<path d="M13.875 2.625V2.25C13.875 2.00377 13.8265 1.75995 13.7323 1.53247C13.638 1.30498 13.4999 1.09828 13.3258 0.924175C13.1517 0.750065 12.945 0.611953 12.7175 0.517726C12.49 0.423498 12.2462 0.375 12 0.375C11.5027 0.375 11.0258 0.572544 10.6742 0.924175C10.3225 1.27581 10.125 1.75272 10.125 2.25V2.625H9.375C8.97718 2.625 8.59564 2.78304 8.31434 3.06434C8.03304 3.34564 7.875 3.72718 7.875 4.125C7.875 4.52282 8.03304 4.90436 8.31434 5.18566C8.59564 5.46696 8.97718 5.625 9.375 5.625H14.625C15.0228 5.625 15.4044 5.46696 15.6857 5.18566C15.967 4.90436 16.125 4.52282 16.125 4.125C16.125 3.72718 15.967 3.34564 15.6857 3.06434C15.4044 2.78304 15.0228 2.625 14.625 2.625H13.875ZM10.875 13.125V13.875C10.875 14.0739 10.796 14.2647 10.6553 14.4053C10.5147 14.546 10.3239 14.625 10.125 14.625H7.125C6.92609 14.625 6.73532 14.546 6.59467 14.4053C6.45402 14.2647 6.375 14.0739 6.375 13.875V10.875C6.375 10.6761 6.45402 10.4853 6.59467 10.3447C6.73532 10.204 6.92609 10.125 7.125 10.125H10.125M10.875 19.875V20.625C10.875 20.8239 10.796 21.0147 10.6553 21.1553C10.5147 21.296 10.3239 21.375 10.125 21.375H7.125C6.92609 21.375 6.73532 21.296 6.59467 21.1553C6.45402 21.0147 6.375 20.8239 6.375 20.625V17.625C6.375 17.4261 6.45402 17.2353 6.59467 17.0947C6.73532 16.954 6.92609 16.875 7.125 16.875H10.125" fill="#D8D7E8"/>
<path d="M13.875 2.625V2.25C13.875 2.00377 13.8265 1.75995 13.7323 1.53247C13.638 1.30498 13.4999 1.09828 13.3258 0.924175C13.1517 0.750065 12.945 0.611953 12.7175 0.517726C12.49 0.423498 12.2462 0.375 12 0.375C11.5027 0.375 11.0258 0.572544 10.6742 0.924175C10.3225 1.27581 10.125 1.75272 10.125 2.25V2.625H9.375C8.97718 2.625 8.59564 2.78304 8.31434 3.06434C8.03304 3.34564 7.875 3.72718 7.875 4.125C7.875 4.52282 8.03304 4.90436 8.31434 5.18566C8.59564 5.46696 8.97718 5.625 9.375 5.625H14.625C15.0228 5.625 15.4044 5.46696 15.6857 5.18566C15.967 4.90436 16.125 4.52282 16.125 4.125C16.125 3.72718 15.967 3.34564 15.6857 3.06434C15.4044 2.78304 15.0228 2.625 14.625 2.625H13.875Z" fill="#473289"/>
<path d="M10.875 13.125V13.875C10.875 14.0739 10.796 14.2647 10.6553 14.4053C10.5147 14.546 10.3239 14.625 10.125 14.625H7.125C6.92609 14.625 6.73532 14.546 6.59467 14.4053C6.45402 14.2647 6.375 14.0739 6.375 13.875V10.875C6.375 10.6761 6.45402 10.4853 6.59467 10.3447C6.73532 10.204 6.92609 10.125 7.125 10.125H10.125C10.3239 10.125 10.5147 10.204 10.6553 10.3447C10.796 10.4853 10.875 10.6761 10.875 10.875V13.125Z" fill="white"/>
<path d="M8.99933 13.5298C8.95005 13.5299 8.90124 13.5203 8.85568 13.5015C8.81013 13.4827 8.76872 13.4551 8.73383 13.4203L7.58183 12.2691C7.51352 12.1984 7.47572 12.1036 7.47658 12.0053C7.47743 11.907 7.51687 11.8129 7.5864 11.7434C7.65593 11.6739 7.74998 11.6344 7.8483 11.6336C7.94663 11.6327 8.04135 11.6705 8.11208 11.7388L8.99933 12.6246L11.3858 10.2381C11.4566 10.1698 11.5513 10.132 11.6496 10.1328C11.7479 10.1337 11.842 10.1731 11.9115 10.2426C11.981 10.3122 12.0205 10.4062 12.0213 10.5046C12.0222 10.6029 11.9844 10.6976 11.9161 10.7683L9.26408 13.4196C9.19392 13.49 9.0987 13.5296 8.99933 13.5298Z" fill="#55BB8C"/>
<path d="M10.875 19.875V20.625C10.875 20.8239 10.796 21.0147 10.6553 21.1553C10.5147 21.296 10.3239 21.375 10.125 21.375H7.125C6.92609 21.375 6.73532 21.296 6.59467 21.1553C6.45402 21.0147 6.375 20.8239 6.375 20.625V17.625C6.375 17.4261 6.45402 17.2353 6.59467 17.0947C6.73532 16.954 6.92609 16.875 7.125 16.875H10.125C10.3239 16.875 10.5147 16.954 10.6553 17.0947C10.796 17.2353 10.875 17.4261 10.875 17.625V19.875Z" fill="white"/>
<path d="M8.99933 20.2798C8.95005 20.2799 8.90124 20.2703 8.85568 20.2515C8.81013 20.2327 8.76872 20.2051 8.73383 20.1703L7.58183 19.0191C7.51352 18.9484 7.47572 18.8536 7.47658 18.7553C7.47743 18.657 7.51687 18.5629 7.5864 18.4934C7.65593 18.4239 7.74998 18.3844 7.8483 18.3836C7.94663 18.3827 8.04135 18.4205 8.11208 18.4888L8.99933 19.3746L11.3858 16.9881C11.4566 16.9198 11.5513 16.882 11.6496 16.8828C11.7479 16.8837 11.842 16.9231 11.9115 16.9926C11.981 17.0622 12.0205 17.1562 12.0213 17.2546C12.0222 17.3529 11.9844 17.4476 11.9161 17.5183L9.26408 20.1696C9.19392 20.24 9.0987 20.2796 8.99933 20.2798Z" fill="#55BB8C"/>
<path d="M13.875 8.25H9.375C9.27554 8.25 9.18016 8.21049 9.10983 8.14017C9.03951 8.06984 9 7.97446 9 7.875C9 7.77554 9.03951 7.68016 9.10983 7.60983C9.18016 7.53951 9.27554 7.5 9.375 7.5H13.875C13.9745 7.5 14.0698 7.53951 14.1402 7.60983C14.2105 7.68016 14.25 7.77554 14.25 7.875C14.25 7.97446 14.2105 8.06984 14.1402 8.14017C14.0698 8.21049 13.9745 8.25 13.875 8.25ZM17.625 12H13.125C13.0255 12 12.9302 11.9605 12.8598 11.8902C12.7895 11.8198 12.75 11.7245 12.75 11.625C12.75 11.5255 12.7895 11.4302 12.8598 11.3598C12.9302 11.2895 13.0255 11.25 13.125 11.25H17.625C17.7245 11.25 17.8198 11.2895 17.8902 11.3598C17.9605 11.4302 18 11.5255 18 11.625C18 11.7245 17.9605 11.8198 17.8902 11.8902C17.8198 11.9605 17.7245 12 17.625 12ZM17.625 13.5H13.125C13.0255 13.5 12.9302 13.4605 12.8598 13.3902C12.7895 13.3198 12.75 13.2245 12.75 13.125C12.75 13.0255 12.7895 12.9302 12.8598 12.8598C12.9302 12.7895 13.0255 12.75 13.125 12.75H17.625C17.7245 12.75 17.8198 12.7895 17.8902 12.8598C17.9605 12.9302 18 13.0255 18 13.125C18 13.2245 17.9605 13.3198 17.8902 13.3902C17.8198 13.4605 17.7245 13.5 17.625 13.5ZM17.625 18.75H13.125C13.0255 18.75 12.9302 18.7105 12.8598 18.6402C12.7895 18.5698 12.75 18.4745 12.75 18.375C12.75 18.2755 12.7895 18.1802 12.8598 18.1098C12.9302 18.0395 13.0255 18 13.125 18H17.625C17.7245 18 17.8198 18.0395 17.8902 18.1098C17.9605 18.1802 18 18.2755 18 18.375C18 18.4745 17.9605 18.5698 17.8902 18.6402C17.8198 18.7105 17.7245 18.75 17.625 18.75ZM17.625 20.25H13.125C13.0255 20.25 12.9302 20.2105 12.8598 20.1402C12.7895 20.0698 12.75 19.9745 12.75 19.875C12.75 19.7755 12.7895 19.6802 12.8598 19.6098C12.9302 19.5395 13.0255 19.5 13.125 19.5H17.625C17.7245 19.5 17.8198 19.5395 17.8902 19.6098C17.9605 19.6802 18 19.7755 18 19.875C18 19.9745 17.9605 20.0698 17.8902 20.1402C17.8198 20.2105 17.7245 20.25 17.625 20.25Z" fill="white"/>
</svg>
