<svg width="20" height="20" viewBox="0 0 20 20" fill="none" xmlns="http://www.w3.org/2000/svg">
<path d="M5.55594 18.9699H14.4452C16.1781 18.9699 17.0402 18.0909 17.0402 16.3499V8.74951C17.0402 7.66951 16.9231 7.20094 16.2534 6.51451L11.6327 1.81879C10.997 1.16558 10.4777 1.02344 9.53201 1.02344H5.55594C3.83165 1.02344 2.96094 1.91058 2.96094 3.65201V16.3499C2.96094 18.0992 3.83165 18.9699 5.55594 18.9699ZM5.62272 17.6224C4.76058 17.6224 4.30844 17.1617 4.30844 16.3249V3.67701C4.30844 2.84844 4.76058 2.37094 5.63129 2.37094H9.34772V7.23451C9.34772 8.28915 9.88344 8.80808 10.9213 8.80808H15.6927V16.3249C15.6927 17.1617 15.2488 17.6224 14.3784 17.6224H5.62272ZM11.072 7.5438C10.7456 7.5438 10.6113 7.41022 10.6113 7.07522V2.63058L15.4327 7.54415L11.072 7.5438ZM13.0809 11.1099H6.72737C6.42629 11.1099 6.20879 11.3359 6.20879 11.6206C6.20879 11.9134 6.42665 12.1395 6.72772 12.1395H13.0809C13.1494 12.1406 13.2174 12.128 13.2808 12.1023C13.3443 12.0766 13.4019 12.0384 13.4503 11.99C13.4988 11.9416 13.5369 11.8839 13.5626 11.8205C13.5883 11.757 13.601 11.689 13.5999 11.6206C13.5999 11.3359 13.3738 11.1099 13.0809 11.1099ZM13.0809 14.0313H6.72737C6.42629 14.0313 6.20879 14.2656 6.20879 14.5584C6.20879 14.8431 6.42665 15.0609 6.72772 15.0609H13.0809C13.3738 15.0609 13.5999 14.8431 13.5999 14.5584C13.5999 14.2656 13.3738 14.0313 13.0809 14.0313Z" fill="#473289"/>
</svg>
