<svg width="24" height="24" viewBox="0 0 24 24" fill="none" xmlns="http://www.w3.org/2000/svg">
<g clip-path="url(#clip0_1360_14491)">
<path d="M19.9037 8.86641C19.8138 9.08424 19.6614 9.27037 19.4658 9.40115C19.2702 9.53193 19.0403 9.60147 18.8052 9.60095H13.7903C13.4504 9.60095 13.1244 9.46552 12.8841 9.22445C12.6437 8.98339 12.5087 8.65642 12.5087 8.31551V3.19776C12.5072 2.95972 12.577 2.72671 12.709 2.52886C12.841 2.33102 13.0291 2.17743 13.249 2.08797C13.3926 2.02745 13.5471 1.99755 13.7027 2.00016H7.33458C6.4612 2.00227 5.6242 2.35118 5.00662 2.9706C4.38905 3.59003 4.04116 4.42954 4.03906 5.30553V18.6947C4.04116 19.5707 4.38905 20.4103 5.00662 21.0297C5.6242 21.6491 6.4612 21.998 7.33458 22.0001H16.7356C17.6104 22.0002 18.4494 21.6522 19.0687 21.0325C19.688 20.4128 20.037 19.5721 20.0391 18.6947V8.40334C20.0264 8.56543 19.9803 8.72311 19.9037 8.86641ZM14.1485 15.3095H13.0978V16.4033C13.0978 16.721 12.972 17.0256 12.748 17.2502C12.5241 17.4748 12.2204 17.6009 11.9037 17.6009C11.5871 17.6009 11.2834 17.4748 11.0594 17.2502C10.8355 17.0256 10.7097 16.721 10.7097 16.4033V15.3095H9.61917C9.30249 15.3095 8.99878 15.1834 8.77486 14.9588C8.55093 14.7342 8.42514 14.4295 8.42514 14.1119C8.42514 13.7943 8.55093 13.4897 8.77486 13.2651C8.99878 13.0405 9.30249 12.9143 9.61917 12.9143H10.7097V11.8205C10.7097 11.5029 10.8355 11.1983 11.0594 10.9737C11.2834 10.7491 11.5871 10.6229 11.9037 10.6229C12.2204 10.6229 12.5241 10.7491 12.748 10.9737C12.972 11.1983 13.0978 11.5029 13.0978 11.8205V12.9143H14.1883C14.505 12.9143 14.8087 13.0405 15.0326 13.2651C15.2566 13.4897 15.3823 13.7943 15.3823 14.1119C15.3823 14.4295 15.2566 14.7342 15.0326 14.9588C14.8087 15.1834 14.505 15.3095 14.1883 15.3095H14.1485Z" fill="#D8D7E8"/>
<path d="M20.0038 8.40334C20.0036 8.5626 19.9711 8.72015 19.9083 8.86641C19.8184 9.08424 19.6659 9.27037 19.4703 9.40115C19.2748 9.53193 19.0448 9.60147 18.8098 9.60095H13.7949C13.6266 9.60095 13.4599 9.56769 13.3044 9.5031C13.1489 9.4385 13.0076 9.34382 12.8886 9.22445C12.7696 9.10509 12.6752 8.96337 12.6108 8.80742C12.5464 8.65146 12.5133 8.48431 12.5133 8.31551V3.19776C12.5118 2.95972 12.5816 2.72671 12.7135 2.52886C12.8455 2.33102 13.0336 2.17743 13.2536 2.08797C13.3971 2.02745 13.5516 1.99755 13.7073 2.00016C13.81 1.99984 13.9121 2.01601 14.0098 2.04806C14.065 2.05545 14.1188 2.07162 14.169 2.09596C14.25 2.13062 14.3274 2.17342 14.3998 2.22371C14.4539 2.26468 14.5045 2.31007 14.5511 2.35942L14.5909 2.39936L19.6536 7.55704L19.7889 7.72469C19.8338 7.78942 19.8712 7.85907 19.9003 7.93229C19.9679 8.08012 20.0032 8.24072 20.0038 8.40334ZM15.3471 14.1119C15.3471 14.4295 15.2213 14.7342 14.9974 14.9588C14.7734 15.1834 14.4697 15.3095 14.1531 15.3095H13.1023V16.4033C13.1023 16.721 12.9765 17.0256 12.7526 17.2502C12.5287 17.4748 12.225 17.6009 11.9083 17.6009C11.5916 17.6009 11.2879 17.4748 11.064 17.2502C10.8401 17.0256 10.7143 16.721 10.7143 16.4033V15.3095H9.62372C9.30704 15.3095 9.00333 15.1834 8.7794 14.9588C8.55548 14.7342 8.42969 14.4295 8.42969 14.1119C8.42969 13.7943 8.55548 13.4897 8.7794 13.2651C9.00333 13.0405 9.30704 12.9143 9.62372 12.9143H10.7143V11.8205C10.7143 11.5029 10.8401 11.1983 11.064 10.9737C11.2879 10.7491 11.5916 10.6229 11.9083 10.6229C12.225 10.6229 12.5287 10.7491 12.7526 10.9737C12.9765 11.1983 13.1023 11.5029 13.1023 11.8205V12.9143H14.1929C14.5026 12.9247 14.7962 13.0554 15.0116 13.2789C15.2269 13.5024 15.3473 13.8011 15.3471 14.1119Z" fill="#8A7EB5"/>
</g>
<defs>
<clipPath id="clip0_1360_14491">
<rect width="16" height="20" fill="white" transform="translate(4 2)"/>
</clipPath>
</defs>
</svg>
