<svg width="24" height="24" viewBox="0 0 24 24" fill="none" xmlns="http://www.w3.org/2000/svg">
<path d="M20 23H4.0787L1 12H4.0787L20 23Z" fill="#473289"/>
<path d="M4 1H18V20H4V1Z" fill="#8A7EB5"/>
<path d="M4.96875 2.15625H19.0312V21.8438H4.96875V2.15625Z" fill="#BBB8D6"/>
<path d="M20 23V6.80476L17.1067 4H6V23H20Z" fill="#EDEEF6"/>
<path d="M17.5781 6.98438H20.4844L17.5781 4.07812V6.98438Z" fill="#8A7EB5"/>
<path d="M9.32812 8.71875H17.5781V9.1875H9.32812V8.71875ZM9.32812 10.6406H17.5781V11.1094H9.32812V10.6406ZM9.32812 12.6094H17.5781V13.0781H9.32812V12.6094Z" fill="#68589F"/>
<path d="M23 12L19.9213 23H4L7.0787 14.2727H16.3148L17.1944 12H23Z" fill="#68589F"/>
<path d="M21.1972 12C21.1972 12 18.2676 20.3182 7 23H19.8451L23 12H21.1972Z" fill="#473289"/>
</svg>
