<svg width="20" height="20" viewBox="0 0 20 20" fill="none" xmlns="http://www.w3.org/2000/svg">
<path d="M11.4792 1.96825L11.48 1.96909L16.1001 6.66415C16.1001 6.66424 16.1002 6.66432 16.1003 6.66441C16.4216 6.99382 16.5955 7.25559 16.6947 7.55237C16.796 7.85536 16.8259 8.21289 16.8259 8.74951V16.3499C16.8259 17.1879 16.6185 17.7792 16.2401 18.1622C15.8622 18.5447 15.2778 18.7556 14.4452 18.7556H5.55594C4.72736 18.7556 4.14288 18.5466 3.7639 18.1649C3.38463 17.7829 3.17522 17.1917 3.17522 16.3499V3.65201C3.17522 2.81433 3.38452 2.22051 3.76443 1.83512C4.1438 1.45028 4.72839 1.23772 5.55594 1.23772H9.53201C9.9967 1.23772 10.3337 1.27317 10.6264 1.37792C10.9151 1.48121 11.1772 1.658 11.4792 1.96825ZM9.56201 2.37094V2.15665H9.34772H5.63129C5.1578 2.15665 4.76515 2.28709 4.49146 2.5621C4.218 2.83689 4.09415 3.22502 4.09415 3.67701V16.3249C4.09415 16.7805 4.21777 17.1672 4.49111 17.4393C4.76431 17.7112 5.15499 17.8367 5.62272 17.8367H14.3784C14.8498 17.8367 15.241 17.7115 15.5135 17.4389C15.786 17.1664 15.907 16.7795 15.907 16.3249V8.80808V8.5938H15.6927H10.9213C10.4354 8.5938 10.1057 8.47245 9.89623 8.26466C9.68709 8.05718 9.56201 7.72794 9.56201 7.23451V2.37094ZM10.5668 7.58575C10.7007 7.72127 10.8865 7.75808 11.072 7.75808C11.072 7.75808 11.072 7.75808 11.072 7.75808L15.4327 7.75844L15.9432 7.75848L15.5857 7.39407L10.7642 2.4805L10.397 2.10624V2.63058V7.07522C10.397 7.26401 10.4336 7.45089 10.5668 7.58575ZM13.0844 11.9253L13.0844 11.9252H13.0809H6.72772C6.54723 11.9252 6.42308 11.7973 6.42308 11.6206C6.42308 11.4541 6.54484 11.3242 6.72737 11.3242H13.0809C13.2577 11.3242 13.3856 11.4565 13.3856 11.6206L13.3856 11.6241C13.3863 11.6638 13.3789 11.7032 13.364 11.7401C13.3491 11.7769 13.3269 11.8104 13.2988 11.8385C13.2707 11.8666 13.2373 11.8887 13.2004 11.9036C13.1636 11.9185 13.1241 11.9259 13.0844 11.9253ZM6.72737 14.2456H13.0809C13.2511 14.2456 13.3856 14.3795 13.3856 14.5584C13.3856 14.718 13.2623 14.8467 13.0809 14.8467H6.72772C6.54042 14.8467 6.42308 14.7202 6.42308 14.5584C6.42308 14.377 6.55142 14.2456 6.72737 14.2456Z" fill="#4B5563" stroke="#4B5563" stroke-width="0.428571"/>
</svg>
