<svg width="15" height="14" viewBox="0 0 15 14" fill="none" xmlns="http://www.w3.org/2000/svg">
<g clip-path="url(#clip0_5081_6440)">
<path fill-rule="evenodd" clip-rule="evenodd" d="M7.51168 10C7.43286 10.0003 7.35476 9.98494 7.28196 9.95477C7.20904 9.92454 7.14291 9.88008 7.08743 9.82399L3.88282 6.62399C3.77669 6.51025 3.7189 6.35982 3.72165 6.20438C3.7244 6.04893 3.78746 5.90063 3.89755 5.7907C4.00764 5.68077 4.15616 5.6178 4.31182 5.61505C4.46749 5.61231 4.61814 5.67001 4.73204 5.77599L6.91119 7.95201V0.6C6.91119 0.44087 6.9745 0.288258 7.08718 0.175736C7.19987 0.063214 7.3527 0 7.51206 0C7.67142 0 7.82425 0.063214 7.93693 0.175736C8.04962 0.288258 8.11292 0.44087 8.11292 0.6V7.95198L10.292 5.77599C10.4059 5.67001 10.5566 5.61231 10.7123 5.61505C10.8679 5.6178 11.0164 5.68077 11.1265 5.7907C11.2366 5.90063 11.2997 6.04893 11.3024 6.20438C11.3052 6.35982 11.2474 6.51025 11.1413 6.62399L7.93665 9.82399C7.88118 9.88008 7.81504 9.92454 7.74213 9.95477C7.66933 9.98494 7.59124 10.0003 7.51243 10C7.51231 10 7.51218 10 7.51206 10C7.51193 10 7.51181 10 7.51168 10ZM13.95 13.3115C13.5749 13.7235 13.052 13.971 12.4952 14H2.52883C2.251 13.9887 1.97813 13.9228 1.72584 13.806C1.47354 13.6893 1.24678 13.524 1.05852 13.3197C0.870254 13.1153 0.72419 12.8759 0.628681 12.6152C0.533172 12.3544 0.490094 12.0774 0.501911 11.8V9.39999C0.501911 9.24086 0.565216 9.08825 0.6779 8.97572C0.790584 8.8632 0.943416 8.79999 1.10278 8.79999C1.26213 8.79999 1.41497 8.8632 1.52765 8.97572C1.64033 9.08825 1.70364 9.24086 1.70364 9.39999V11.8C1.68295 12.0375 1.75463 12.2739 1.90379 12.4601C2.05296 12.6463 2.26817 12.768 2.50479 12.8H12.4952C12.7318 12.768 12.947 12.6463 13.0962 12.4601C13.2453 12.2739 13.317 12.0375 13.2963 11.8V9.39999C13.2963 9.24086 13.3596 9.08825 13.4723 8.97572C13.585 8.8632 13.7378 8.79999 13.8972 8.79999C14.0565 8.79999 14.2094 8.8632 14.3221 8.97572C14.4347 9.08825 14.498 9.24086 14.498 9.39999V11.8C14.522 12.3563 14.3251 12.8995 13.95 13.3115Z" fill="#473289"/>
</g>
<defs>
<clipPath id="clip0_5081_6440">
<rect width="14" height="14" fill="white" transform="translate(0.5)"/>
</clipPath>
</defs>
</svg>
