<svg width="32" height="32" viewBox="0 0 32 32" fill="none" xmlns="http://www.w3.org/2000/svg">
<path fill-rule="evenodd" clip-rule="evenodd" d="M15.9979 21.0026C15.9979 21.0026 15.9979 21.0026 15.998 21.0026C15.998 21.0026 15.998 21.0026 15.9981 21.0026C16.1294 21.0032 16.2596 20.9776 16.3809 20.9272C16.5022 20.8769 16.6123 20.8028 16.7046 20.7093L22.038 15.3759C22.2146 15.1864 22.3108 14.9356 22.3062 14.6766C22.3016 14.4175 22.1967 14.1703 22.0135 13.9871C21.8302 13.8039 21.5831 13.6989 21.324 13.6944C21.0649 13.6898 20.8142 13.786 20.6246 13.9626L16.998 17.5893V5.33594C16.998 5.07072 16.8926 4.81637 16.7051 4.62883C16.5175 4.44129 16.2632 4.33594 15.998 4.33594C15.7327 4.33594 15.4784 4.44129 15.2909 4.62883C15.1033 4.81637 14.998 5.07072 14.998 5.33594V17.5893L11.3713 13.9626C11.1817 13.786 10.931 13.6898 10.6719 13.6944C10.4129 13.6989 10.1657 13.8039 9.98247 13.9871C9.79925 14.1703 9.6943 14.4175 9.68973 14.6766C9.68516 14.9356 9.78132 15.1864 9.95796 15.3759L15.2913 20.7093C15.3836 20.8028 15.4937 20.8769 15.615 20.9272C15.7364 20.9776 15.8665 21.0032 15.9979 21.0026ZM24.2913 27.6693H7.70464C7.24226 27.6504 6.78813 27.5406 6.36825 27.346C5.94837 27.1514 5.57097 26.876 5.25765 26.5354C4.94433 26.1949 4.70124 25.7959 4.54229 25.3613C4.38333 24.9266 4.31164 24.465 4.33131 24.0026V20.0026C4.33131 19.7374 4.43666 19.483 4.6242 19.2955C4.81173 19.108 5.06609 19.0026 5.33131 19.0026C5.59652 19.0026 5.85088 19.108 6.03841 19.2955C6.22595 19.483 6.33131 19.7374 6.33131 20.0026V24.0026C6.29688 24.3985 6.41616 24.7925 6.66441 25.1028C6.91267 25.4131 7.27084 25.6159 7.66464 25.6693H24.2913C24.6851 25.6159 25.0433 25.4131 25.2915 25.1028C25.5398 24.7925 25.6591 24.3985 25.6246 24.0026V20.0026C25.6246 19.7374 25.73 19.483 25.9175 19.2955C26.1051 19.108 26.3594 19.0026 26.6246 19.0026C26.8899 19.0026 27.1442 19.108 27.3317 19.2955C27.5193 19.483 27.6246 19.7374 27.6246 20.0026V24.0026C27.6646 24.9298 27.3367 25.8352 26.7125 26.5219C26.0882 27.2085 25.2181 27.6209 24.2913 27.6693Z" fill="#473289"/>
</svg>
