<svg width="18" height="17" viewBox="0 0 18 17" fill="none" xmlns="http://www.w3.org/2000/svg">
<path d="M-0.00488281 13.2069V15.4998C-0.00488281 15.6325 0.0477957 15.7596 0.141564 15.8534C0.235332 15.9472 0.362509 15.9998 0.495117 15.9998H2.79312C2.92547 15.9998 3.05241 15.9473 3.14612 15.8538L12.5941 6.40585L9.59412 3.40585L0.142118 12.8538C0.0482818 12.9474 -0.00458943 13.0744 -0.00488281 13.2069ZM10.8321 2.16685L13.8321 5.16685L15.2921 3.70685C15.4796 3.51932 15.5849 3.26501 15.5849 2.99985C15.5849 2.73468 15.4796 2.48038 15.2921 2.29285L13.7071 0.706849C13.5196 0.519378 13.2653 0.414062 13.0001 0.414062C12.735 0.414062 12.4806 0.519378 12.2931 0.706849L10.8321 2.16685Z" fill="white"/>
<path d="M9 16H17" stroke="white" stroke-width="2" stroke-linecap="round" stroke-linejoin="round"/>
</svg>
