<svg width="15" height="14" viewBox="0 0 15 14" fill="none" xmlns="http://www.w3.org/2000/svg">
<path d="M9.14738 14H5.85327C5.69012 13.9979 5.53425 13.9321 5.41888 13.8167C5.30351 13.7014 5.23775 13.5455 5.23562 13.3824V7L0.829736 0.98C0.760099 0.889466 0.717694 0.780968 0.707485 0.667208C0.697276 0.553448 0.719685 0.439133 0.772089 0.337647C0.824587 0.236453 0.903728 0.151519 1.00097 0.0920138C1.09821 0.0325088 1.20985 0.000692754 1.32385 0H13.6768C13.7908 0.000692754 13.9024 0.0325088 13.9997 0.0920138C14.0969 0.151519 14.1761 0.236453 14.2286 0.337647C14.281 0.439133 14.3034 0.553448 14.2932 0.667208C14.283 0.780968 14.2405 0.889466 14.1709 0.98L9.76503 7V13.3824C9.7629 13.5455 9.69714 13.7014 9.58177 13.8167C9.46639 13.9321 9.31053 13.9979 9.14738 14ZM6.47091 12.7647H8.52974V6.79412C8.52908 6.66289 8.57259 6.53527 8.65326 6.43177L12.4415 1.23529H2.55915L6.36385 6.43177C6.44452 6.53527 6.48803 6.66289 6.48738 6.79412L6.47091 12.7647Z" fill="#473289"/>
</svg>
