<svg width="20" height="20" viewBox="0 0 20 20" fill="none" xmlns="http://www.w3.org/2000/svg">
<path d="M9.95866 14.9974C10.2503 14.9974 10.497 14.8966 10.6987 14.6949C10.9003 14.4932 11.0009 14.2468 11.0003 13.9557C11.0003 13.6641 10.8998 13.4174 10.6987 13.2157C10.4975 13.0141 10.2509 12.9135 9.95866 12.9141C9.66699 12.9141 9.4206 13.0149 9.21949 13.2166C9.01838 13.4182 8.91755 13.6646 8.91699 13.9557C8.91699 14.2474 9.01783 14.4941 9.21949 14.6957C9.42116 14.8974 9.66755 14.998 9.95866 14.9974ZM9.20866 11.7891H10.7503C10.7503 11.3307 10.8025 10.9696 10.907 10.7057C11.0114 10.4418 11.3064 10.0807 11.792 9.6224C12.1531 9.26129 12.4378 8.9174 12.6462 8.59073C12.8545 8.26406 12.9587 7.87184 12.9587 7.41406C12.9587 6.63628 12.6739 6.03906 12.1045 5.6224C11.535 5.20573 10.8614 4.9974 10.0837 4.9974C9.29199 4.9974 8.64977 5.20573 8.15699 5.6224C7.66422 6.03906 7.32033 6.53906 7.12533 7.1224L8.50033 7.66406C8.56977 7.41406 8.72616 7.14323 8.96949 6.85156C9.21283 6.5599 9.58422 6.41406 10.0837 6.41406C10.5281 6.41406 10.8614 6.53573 11.0837 6.77906C11.3059 7.0224 11.417 7.28962 11.417 7.58073C11.417 7.85851 11.3337 8.11906 11.167 8.3624C11.0003 8.60573 10.792 8.83129 10.542 9.03906C9.93088 9.58073 9.55588 9.99045 9.41699 10.2682C9.2781 10.546 9.20866 11.053 9.20866 11.7891ZM10.0003 18.3307C8.84755 18.3307 7.76422 18.1121 6.75033 17.6749C5.73644 17.2377 4.85449 16.6438 4.10449 15.8932C3.35449 15.1432 2.76088 14.2613 2.32366 13.2474C1.88644 12.2335 1.66755 11.1502 1.66699 9.9974C1.66699 8.84462 1.88588 7.76129 2.32366 6.7474C2.76144 5.73351 3.35505 4.85156 4.10449 4.10156C4.85449 3.35156 5.73644 2.75795 6.75033 2.32073C7.76422 1.88351 8.84755 1.66462 10.0003 1.66406C11.1531 1.66406 12.2364 1.88295 13.2503 2.32073C14.2642 2.75851 15.1462 3.35212 15.8962 4.10156C16.6462 4.85156 17.24 5.73351 17.6778 6.7474C18.1156 7.76129 18.3342 8.84462 18.3337 9.9974C18.3337 11.1502 18.1148 12.2335 17.677 13.2474C17.2392 14.2613 16.6456 15.1432 15.8962 15.8932C15.1462 16.6432 14.2642 17.2371 13.2503 17.6749C12.2364 18.1127 11.1531 18.3313 10.0003 18.3307ZM10.0003 16.6641C11.8614 16.6641 13.4378 16.0182 14.7295 14.7266C16.0212 13.4349 16.667 11.8585 16.667 9.9974C16.667 8.13629 16.0212 6.5599 14.7295 5.26823C13.4378 3.97656 11.8614 3.33073 10.0003 3.33073C8.13921 3.33073 6.56283 3.97656 5.27116 5.26823C3.97949 6.5599 3.33366 8.13629 3.33366 9.9974C3.33366 11.8585 3.97949 13.4349 5.27116 14.7266C6.56283 16.0182 8.13921 16.6641 10.0003 16.6641Z" fill="#4B5563"/>
</svg>
