<svg width="16" height="20" viewBox="0 0 16 20" fill="none" xmlns="http://www.w3.org/2000/svg">
<path d="M3.2647 20H12.7353C14.5815 20 15.5 19.0205 15.5 17.0802V8.61015C15.5 7.40657 15.3752 6.88438 14.6618 6.1194L9.73888 0.886368C9.06159 0.158408 8.50835 0 7.50079 0H3.2647C1.42765 0 0.5 0.988657 0.5 2.92935V17.0802C0.5 19.0297 1.42765 20 3.2647 20ZM3.33585 18.4983C2.41733 18.4983 1.93562 17.9849 1.93562 17.0523V2.95721C1.93562 2.03383 2.41733 1.50169 3.34499 1.50169H7.30445V6.92179C7.30445 8.09711 7.8752 8.67542 8.98092 8.67542H14.0644V17.0523C14.0644 17.9849 13.5914 18.4983 12.6641 18.4983H3.33585ZM9.1415 7.26647C8.79372 7.26647 8.65065 7.11761 8.65065 6.74428V1.79104L13.7874 7.26687L9.1415 7.26647ZM11.2818 11.2406H4.51273C4.19197 11.2406 3.96025 11.4925 3.96025 11.8098C3.96025 12.1361 4.19236 12.3881 4.51312 12.3881H11.2818C11.3547 12.3893 11.4272 12.3752 11.4948 12.3466C11.5624 12.3179 11.6238 12.2754 11.6754 12.2214C11.7269 12.1675 11.7676 12.1032 11.795 12.0325C11.8224 11.9618 11.8358 11.886 11.8347 11.8098C11.8347 11.4925 11.5938 11.2406 11.2818 11.2406ZM11.2818 14.4963H4.51273C4.19197 14.4963 3.96025 14.7574 3.96025 15.0838C3.96025 15.401 4.19236 15.6438 4.51312 15.6438H11.2818C11.5938 15.6438 11.8347 15.401 11.8347 15.0838C11.8347 14.7574 11.5938 14.4963 11.2818 14.4963Z" fill="#4B5563"/>
</svg>
