<svg width="20" height="20" viewBox="0 0 20 20" fill="none" xmlns="http://www.w3.org/2000/svg">
<path d="M7.55199 2.55198C8.20055 1.90342 9.08019 1.53906 9.9974 1.53906C10.9146 1.53906 11.7942 1.90342 12.4428 2.55198C13.0914 3.20055 13.4557 4.08019 13.4557 4.9974C13.4557 5.9146 13.0914 6.79424 12.4428 7.44281C11.7942 8.09137 10.9146 8.45573 9.9974 8.45573C9.08019 8.45573 8.20055 8.09137 7.55199 7.44281C6.90342 6.79424 6.53906 5.9146 6.53906 4.9974C6.53906 4.08019 6.90342 3.20055 7.55199 2.55198ZM7.72876 2.72876C7.12708 3.33044 6.78906 4.14649 6.78906 4.9974C6.78906 5.8483 7.12708 6.66435 7.72876 7.26603C8.33044 7.86771 9.14649 8.20573 9.9974 8.20573C10.8483 8.20573 11.6644 7.86771 12.266 7.26603C12.8677 6.66435 13.2057 5.8483 13.2057 4.9974C13.2057 4.14649 12.8677 3.33044 12.266 2.72876C11.6644 2.12708 10.8483 1.78906 9.9974 1.78906C9.14649 1.78906 8.33044 2.12708 7.72876 2.72876Z" fill="#4B5563" stroke="#4B5563"/>
<path d="M15 2.71094C14.8342 2.71094 14.6753 2.77679 14.5581 2.894C14.4408 3.01121 14.375 3.17018 14.375 3.33594C14.375 3.5017 14.4408 3.66067 14.5581 3.77788C14.6753 3.89509 14.8342 3.96094 15 3.96094C16.1475 3.96094 16.875 4.71594 16.875 5.41927C16.875 6.1226 16.1475 6.8776 15 6.8776C14.8342 6.8776 14.6753 6.94345 14.5581 7.06066C14.4408 7.17787 14.375 7.33684 14.375 7.5026C14.375 7.66836 14.4408 7.82734 14.5581 7.94455C14.6753 8.06176 14.8342 8.1276 15 8.1276C16.6142 8.1276 18.125 7.01677 18.125 5.41927C18.125 3.82177 16.6142 2.71094 15 2.71094ZM5.625 3.33594C5.625 3.17018 5.55915 3.01121 5.44194 2.894C5.32473 2.77679 5.16576 2.71094 5 2.71094C3.38583 2.71094 1.875 3.82177 1.875 5.41927C1.875 7.01677 3.38583 8.1276 5 8.1276C5.16576 8.1276 5.32473 8.06176 5.44194 7.94455C5.55915 7.82734 5.625 7.66836 5.625 7.5026C5.625 7.33684 5.55915 7.17787 5.44194 7.06066C5.32473 6.94345 5.16576 6.8776 5 6.8776C3.85333 6.8776 3.125 6.1226 3.125 5.41927C3.125 4.71594 3.85333 3.96094 5 3.96094C5.16576 3.96094 5.32473 3.89509 5.44194 3.77788C5.55915 3.66067 5.625 3.5017 5.625 3.33594Z" fill="#4B5563"/>
<path fill-rule="evenodd" clip-rule="evenodd" d="M10 10.2109C8.51333 10.2109 7.13833 10.6109 6.1175 11.2918C5.10083 11.9701 4.375 12.9751 4.375 14.1693C4.375 15.3634 5.10083 16.3693 6.1175 17.0468C7.13833 17.7268 8.51333 18.1276 10 18.1276C11.4867 18.1276 12.8617 17.7276 13.8825 17.0468C14.8992 16.3684 15.625 15.3634 15.625 14.1693C15.625 12.9751 14.8983 11.9693 13.8825 11.2918C12.8617 10.6118 11.4867 10.2109 10 10.2109ZM5.625 14.1693C5.625 13.5226 6.01833 12.8609 6.81083 12.3326C7.6 11.8068 8.72583 11.4609 10 11.4609C11.275 11.4609 12.4 11.8068 13.1892 12.3326C13.9817 12.8609 14.375 13.5226 14.375 14.1693C14.375 14.8159 13.9817 15.4776 13.1892 16.0059C12.4 16.5318 11.2742 16.8776 10 16.8776C8.725 16.8776 7.6 16.5318 6.81083 16.0059C6.01833 15.4776 5.625 14.8159 5.625 14.1693Z" fill="#4B5563"/>
<path d="M16.0584 11.5312C16.0759 11.4508 16.1091 11.3748 16.156 11.3073C16.2029 11.2398 16.2627 11.1822 16.3319 11.1379C16.4011 11.0935 16.4784 11.0632 16.5593 11.0488C16.6402 11.0343 16.7232 11.036 16.8034 11.0537C17.6043 11.2295 18.3268 11.547 18.8634 11.9862C19.3993 12.4245 19.7943 13.0278 19.7943 13.7478C19.7943 14.4687 19.3993 15.0712 18.8634 15.5095C18.3268 15.9487 17.6051 16.2662 16.8034 16.442C16.7232 16.4596 16.6403 16.4613 16.5595 16.4468C16.4786 16.4324 16.4014 16.4022 16.3322 16.358C16.263 16.3137 16.2033 16.2562 16.1563 16.1889C16.1093 16.1215 16.0761 16.0455 16.0584 15.9653C16.0408 15.8851 16.0392 15.8022 16.0536 15.7214C16.068 15.6405 16.0982 15.5633 16.1425 15.4941C16.1867 15.4249 16.2442 15.3651 16.3116 15.3182C16.3789 15.2712 16.4549 15.2379 16.5351 15.2203C17.1959 15.0762 17.7234 14.827 18.0718 14.542C18.4201 14.257 18.5443 13.9778 18.5443 13.7478C18.5443 13.5178 18.4201 13.2395 18.0718 12.9537C17.7234 12.6687 17.1959 12.4203 16.5351 12.2753C16.4549 12.2578 16.3789 12.2245 16.3115 12.1776C16.2441 12.1306 16.1866 12.0708 16.1423 12.0016C16.0981 11.9324 16.0679 11.8552 16.0535 11.7743C16.0391 11.6935 16.0408 11.6105 16.0584 11.5303M3.2026 11.0537C3.36461 11.0183 3.53402 11.0487 3.67358 11.1383C3.81314 11.2278 3.91141 11.3692 3.94677 11.5312C3.98213 11.6932 3.95169 11.8626 3.86214 12.0021C3.77259 12.1417 3.63127 12.24 3.46927 12.2753C2.80927 12.4195 2.28177 12.6687 1.93344 12.9537C1.5851 13.2387 1.46094 13.5178 1.46094 13.7478C1.46094 13.9778 1.5851 14.2562 1.93344 14.542C2.28177 14.827 2.80927 15.0753 3.4701 15.2203C3.63211 15.2559 3.77334 15.3544 3.86273 15.4941C3.95212 15.6338 3.98235 15.8033 3.94677 15.9653C3.91119 16.1273 3.81271 16.2686 3.67299 16.358C3.53328 16.4473 3.36377 16.4776 3.20177 16.442C2.4001 16.2662 1.67844 15.9487 1.14177 15.5095C0.605937 15.0712 0.210938 14.4678 0.210938 13.7478C0.210938 13.027 0.605937 12.4245 1.14177 11.9862C1.67844 11.547 2.40094 11.2295 3.2026 11.0537Z" fill="#4B5563"/>
</svg>
