<svg width="60" height="60" viewBox="0 0 60 60" fill="none" xmlns="http://www.w3.org/2000/svg">
<path d="M34.5 23C33.3065 23 32.1619 22.5786 31.318 21.8284C30.4741 21.0783 30 20.0609 30 19C30 17.9391 30.4741 16.9217 31.318 16.1716C32.1619 15.4214 33.3065 15 34.5 15C35.6935 15 36.8381 15.4214 37.682 16.1716C38.5259 16.9217 39 17.9391 39 19C39 20.0609 38.5259 21.0783 37.682 21.8284C36.8381 22.5786 35.6935 23 34.5 23Z" fill="#DDDDED"/>
<path d="M51 5H9C6.61524 5.006 4.33019 5.80608 2.64391 7.22551C0.957621 8.64494 0.00712227 10.5684 0 12.5758V34.9495L11.64 25.1515C13.3551 23.7774 15.6322 23.0111 18 23.0111C20.3678 23.0111 22.6449 23.7774 24.36 25.1515L32.973 32.4419L35.637 30.1995C37.3278 28.7842 39.6155 27.9897 42 27.9897C44.3845 27.9897 46.6722 28.7842 48.363 30.1995L60 40V12.5758C59.9929 10.5684 59.0424 8.64494 57.3561 7.22551C55.6698 5.80608 53.3848 5.006 51 5ZM34.5 22.6768C33.3065 22.6768 32.1619 22.2777 31.318 21.5673C30.4741 20.857 30 19.8935 30 18.8889C30 17.8843 30.4741 16.9208 31.318 16.2105C32.1619 15.5001 33.3065 15.101 34.5 15.101C35.6935 15.101 36.8381 15.5001 37.682 16.2105C38.5259 16.9208 39 17.8843 39 18.8889C39 19.8935 38.5259 20.857 37.682 21.5673C36.8381 22.2777 35.6935 22.6768 34.5 22.6768Z" fill="#9991BF"/>
<path d="M24.5804 25.1079C22.8498 23.7547 20.552 23 18.1628 23C15.7736 23 13.4759 23.7547 11.7453 25.1079L0 34.7569V47.5394C0.0071867 49.5163 0.966284 51.4105 2.66783 52.8083C4.36937 54.2062 6.67509 54.9941 9.08142 55H51.4614C53.9285 55 56.2897 54.1719 58 52.7121L24.5804 25.1079Z" fill="#473289"/>
<path d="M60 39.3952L47.9441 29.2815C46.1923 27.8203 43.8224 27 41.352 27C38.8816 27 36.5116 27.8203 34.7599 29.2815L32 31.5968L57.3768 53C59.0614 51.553 60.0031 49.6105 60 47.5873V39.3952Z" fill="#DDDDED"/>
</svg>
