<svg width="20" height="13" viewBox="0 0 20 13" fill="none" xmlns="http://www.w3.org/2000/svg">
<path d="M20 3.90625H0V9.09572H20V3.90625Z" fill="#F0F5F9"/>
<path d="M20 0.5H0V4.49951H20V0.5Z" fill="#F28623"/>
<path d="M20 8.5H0V12.4995H20V8.5Z" fill="#65B54E"/>
<path d="M10.3705 7.99035C11.2423 7.79593 11.7822 6.97056 11.5764 6.14682C11.3707 5.32309 10.4972 4.81293 9.62538 5.00735C8.7536 5.20177 8.21368 6.02714 8.41944 6.85088C8.6252 7.67461 9.49872 8.18477 10.3705 7.99035Z" fill="#00247D"/>
<path d="M10.6417 7.73265L10.6964 7.60716C10.7065 7.58448 10.7235 7.56511 10.7451 7.55146C10.7668 7.53781 10.7922 7.53048 10.8183 7.53039H10.962C10.9969 7.53039 11.0302 7.51732 11.0548 7.49406C11.0795 7.47081 11.0933 7.43926 11.0933 7.40637V7.27054C11.0934 7.24594 11.1012 7.2219 11.1156 7.20143C11.13 7.18095 11.1505 7.16494 11.1745 7.15539L11.3074 7.10371C11.3395 7.09097 11.365 7.0668 11.3785 7.03642C11.3919 7.00604 11.3922 6.97188 11.3792 6.94131L11.323 6.81582C11.3134 6.79315 11.3111 6.76831 11.3164 6.74441C11.3216 6.72051 11.3343 6.69862 11.3527 6.68147L11.4542 6.5855C11.4665 6.57398 11.4762 6.56029 11.4828 6.54522C11.4894 6.53014 11.4928 6.51398 11.4928 6.49766C11.4928 6.48134 11.4894 6.46518 11.4828 6.4501C11.4762 6.43503 11.4665 6.42134 11.4542 6.40982L11.3527 6.31385C11.3344 6.29631 11.322 6.27408 11.317 6.24993C11.312 6.22578 11.3146 6.20078 11.3245 6.17802L11.3792 6.05253C11.3859 6.03742 11.3893 6.02121 11.3892 6.00485C11.3892 5.98849 11.3858 5.97229 11.3791 5.95719C11.3724 5.9421 11.3626 5.9284 11.3503 5.91689C11.338 5.90538 11.3234 5.89629 11.3074 5.89013L11.1745 5.83846C11.1505 5.8289 11.13 5.81289 11.1156 5.79242C11.1012 5.77194 11.0934 5.74791 11.0933 5.7233V5.58747C11.0933 5.55458 11.0795 5.52304 11.0548 5.49978C11.0302 5.47652 10.9969 5.46346 10.962 5.46346H10.8183C10.7922 5.46336 10.7668 5.45603 10.7451 5.44238C10.7235 5.42873 10.7065 5.40936 10.6964 5.38669L10.6417 5.26119C10.6282 5.23083 10.6027 5.20669 10.5705 5.19399C10.5384 5.18128 10.5022 5.18103 10.4699 5.19328L10.337 5.24643C10.3131 5.2555 10.2868 5.25767 10.2615 5.25268C10.2362 5.24769 10.213 5.23576 10.1949 5.21838L10.0933 5.12241C10.0811 5.11085 10.0666 5.10168 10.0507 5.09542C10.0347 5.08916 10.0176 5.08594 10.0003 5.08594C9.98305 5.08594 9.96594 5.08916 9.94999 5.09542C9.93404 5.10168 9.91955 5.11085 9.90735 5.12241L9.80579 5.21838C9.78723 5.23564 9.7637 5.24736 9.73814 5.25208C9.71258 5.25681 9.68612 5.25433 9.66204 5.24495L9.53079 5.19328C9.51479 5.18701 9.49764 5.1838 9.48032 5.18383C9.46301 5.18385 9.44587 5.18711 9.42989 5.19343C9.41391 5.19974 9.39942 5.20898 9.38724 5.22061C9.37505 5.23224 9.36543 5.24603 9.35892 5.26119L9.30423 5.38669C9.29412 5.40936 9.27717 5.42873 9.2555 5.44238C9.23384 5.45603 9.2084 5.46336 9.18235 5.46346H9.0386C9.00379 5.46346 8.97041 5.47652 8.9458 5.49978C8.92118 5.52304 8.90735 5.55458 8.90735 5.58747V5.7233C8.90725 5.74791 8.89949 5.77194 8.88505 5.79242C8.8706 5.81289 8.8501 5.8289 8.8261 5.83846L8.69329 5.89013C8.66116 5.90288 8.63561 5.92705 8.62216 5.95743C8.60872 5.98781 8.60845 6.02197 8.62142 6.05253L8.67767 6.17802C8.68726 6.20069 8.68957 6.22553 8.68428 6.24943C8.679 6.27333 8.66637 6.29523 8.64798 6.31238L8.54642 6.40834C8.53418 6.41986 8.52447 6.43355 8.51785 6.44863C8.51122 6.4637 8.50781 6.47986 8.50781 6.49618C8.50781 6.51251 8.51122 6.52867 8.51785 6.54374C8.52447 6.55882 8.53418 6.57251 8.54642 6.58403L8.64798 6.67999C8.66624 6.69753 8.67865 6.71976 8.68365 6.74391C8.68865 6.76806 8.68603 6.79307 8.6761 6.81582L8.62142 6.94131C8.61478 6.95643 8.61138 6.97263 8.61141 6.989C8.61144 7.00536 8.61489 7.02156 8.62157 7.03665C8.62825 7.05175 8.63803 7.06545 8.65034 7.07696C8.66265 7.08847 8.67725 7.09756 8.69329 7.10371L8.8261 7.15539C8.8501 7.16494 8.8706 7.18095 8.88505 7.20143C8.89949 7.2219 8.90725 7.24594 8.90735 7.27054V7.40637C8.90735 7.43926 8.92118 7.47081 8.9458 7.49406C8.97041 7.51732 9.00379 7.53039 9.0386 7.53039H9.18235C9.2084 7.53048 9.23384 7.53781 9.2555 7.55146C9.27717 7.56511 9.29412 7.58448 9.30423 7.60716L9.35892 7.73265C9.3724 7.76302 9.39798 7.78715 9.43014 7.79986C9.46229 7.81256 9.49844 7.81282 9.53079 7.80057L9.6636 7.74742C9.68759 7.73835 9.71388 7.73617 9.73918 7.74116C9.76447 7.74615 9.78764 7.75809 9.80579 7.77547L9.90735 7.87143C9.91955 7.88299 9.93404 7.89217 9.94999 7.89843C9.96594 7.90469 9.98305 7.90791 10.0003 7.90791C10.0176 7.90791 10.0347 7.90469 10.0507 7.89843C10.0666 7.89217 10.0811 7.88299 10.0933 7.87143L10.1949 7.77547C10.2134 7.75821 10.2369 7.74649 10.2625 7.74176C10.2881 7.73704 10.3145 7.73952 10.3386 7.74889L10.4714 7.80057C10.5035 7.81276 10.5395 7.81247 10.5714 7.79975C10.6033 7.78702 10.6286 7.76291 10.6417 7.73265Z" fill="#F0F5F9"/>
<path d="M10.0109 5.28119L10.0016 5.22656L9.99219 5.28119C9.93126 5.65645 9.93126 6.03831 9.99219 6.41357L10.0016 6.4682L10.0109 6.41357C10.0719 6.03831 10.0719 5.65645 10.0109 5.28119ZM10.0109 6.58188L10.0016 6.52725L9.99219 6.58188C9.93126 6.95714 9.93126 7.339 9.99219 7.71426L10.0016 7.76889L10.0109 7.71426C10.0719 7.339 10.0719 6.95714 10.0109 6.58188ZM11.2891 6.50658L11.3469 6.49772L11.2891 6.48887C10.8919 6.4313 10.4878 6.4313 10.0906 6.48887L10.0328 6.49772L10.0906 6.50658C10.4878 6.56415 10.8919 6.56415 11.2891 6.50658ZM9.9125 6.50658L9.97031 6.49772L9.9125 6.48887C9.51534 6.4313 9.11122 6.4313 8.71406 6.48887L8.65625 6.49772L8.71406 6.50658C9.11122 6.56415 9.51534 6.56415 9.9125 6.50658ZM10.9188 5.6429L10.9531 5.59861L10.9063 5.63109C10.5807 5.85459 10.2943 6.12513 10.0578 6.43276L10.0234 6.47706L10.0703 6.44458C10.3959 6.22108 10.6822 5.95054 10.9188 5.6429ZM9.94531 6.56269L9.97969 6.51839L9.93281 6.55087C9.60723 6.77437 9.32091 7.04491 9.08438 7.35255L9.05 7.39684L9.09687 7.36436C9.42246 7.14086 9.70878 6.87032 9.94531 6.56269ZM10.9063 7.36436L10.9531 7.39684L10.9188 7.35255C10.6822 7.04491 10.3959 6.77437 10.0703 6.55087L10.0234 6.51839L10.0578 6.56269C10.2943 6.87032 10.5807 7.14086 10.9063 7.36436ZM9.93281 6.44458L9.97969 6.47706L9.94531 6.43276C9.70878 6.12513 9.42246 5.85459 9.09687 5.63109L9.05 5.59861L9.08438 5.6429C9.32091 5.95054 9.60723 6.22108 9.93281 6.44458ZM9.51719 5.36977L9.48594 5.31662L9.5 5.37125C9.59519 5.74043 9.75014 6.09351 9.95938 6.418L9.98906 6.46524L9.97656 6.41062C9.88077 6.04348 9.72583 5.69244 9.51719 5.36977ZM10.0437 6.57154L10.0141 6.5243L10.0266 6.57893C10.1218 6.94811 10.2767 7.30118 10.4859 7.62568L10.5172 7.67292L10.5031 7.6183C10.4079 7.24912 10.253 6.89604 10.0437 6.57154ZM11.1953 6.04005L11.2453 6.01052L11.1875 6.02381C10.7968 6.11375 10.4231 6.26016 10.0797 6.45786L10.0297 6.48591L10.0875 6.4741C10.4782 6.38416 10.8519 6.23775 11.1953 6.04005ZM9.92344 6.53759L9.97344 6.50954L9.91562 6.52135C9.52491 6.61129 9.15124 6.7577 8.80781 6.9554L8.75781 6.98493L8.81563 6.97164C9.20634 6.8817 9.58001 6.73529 9.92344 6.53759ZM10.5031 5.37715L10.5172 5.31662L10.4859 5.36387C10.2767 5.68836 10.1218 6.04144 10.0266 6.41062L10.0141 6.46524L10.0437 6.418C10.2524 6.09533 10.4073 5.74429 10.5031 5.37715ZM9.97656 6.57893L9.98906 6.5243L9.95938 6.57154C9.75014 6.89604 9.59519 7.24912 9.5 7.6183L9.48594 7.67883L9.51719 7.63158C9.72702 7.30526 9.88198 6.95015 9.97656 6.57893ZM11.1875 6.97164L11.2453 6.98493L11.1953 6.9554C10.8519 6.7577 10.4782 6.61129 10.0875 6.52135L10.0297 6.50954L10.0797 6.53759C10.4231 6.73529 10.7968 6.8817 11.1875 6.97164ZM9.91562 6.4741L9.97344 6.48591L9.92344 6.45786C9.58001 6.26016 9.20634 6.11375 8.81563 6.02381L8.75156 6.01052L8.80156 6.04005C9.14692 6.23831 9.52274 6.38474 9.91562 6.4741Z" fill="#00247D"/>
<path d="M10.0016 6.80358C10.1793 6.80358 10.3234 6.66742 10.3234 6.49945C10.3234 6.33148 10.1793 6.19531 10.0016 6.19531C9.8238 6.19531 9.67969 6.33148 9.67969 6.49945C9.67969 6.66742 9.8238 6.80358 10.0016 6.80358Z" fill="#00247D"/>
</svg>
