<svg width="20" height="20" viewBox="0 0 20 20" fill="none" xmlns="http://www.w3.org/2000/svg">
<path d="M11.2503 6.2474H10.4155L10.9174 6.91455C11.1543 7.22957 11.3237 7.59747 11.4044 7.99663L11.472 8.33073H11.8128H12.917V8.7474H11.8128H11.4727L11.4046 9.08064C11.2796 9.69234 10.9472 10.2421 10.4635 10.6369C9.97984 11.0317 9.37466 11.2474 8.75032 11.2474H8.59199H7.58607L8.29737 11.9587L11.1027 14.7641L10.8087 15.0581L7.08366 11.3331V10.8307H8.7502C8.75024 10.8307 8.75028 10.8307 8.75033 10.8307C9.2243 10.8308 9.68666 10.684 10.0737 10.4104C10.4608 10.1368 10.7535 9.74986 10.9115 9.30295L11.1079 8.7474H10.5187H7.08366V8.33073H10.5187H11.1081L10.9115 7.77505C10.7533 7.32826 10.4606 6.94145 10.0736 6.66788C9.68658 6.3943 9.22428 6.2474 8.75033 6.2474H7.08366V5.83073H12.917V6.2474H11.2503ZM17.0837 9.9974C17.0837 8.11878 16.3374 6.31711 15.009 4.98872C13.6806 3.66034 11.8789 2.91406 10.0003 2.91406C8.12171 2.91406 6.32004 3.66034 4.99165 4.98872C3.66327 6.31711 2.91699 8.11878 2.91699 9.9974C2.91699 11.876 3.66327 13.6777 4.99165 15.0061C6.32004 16.3345 8.12171 17.0807 10.0003 17.0807C11.8789 17.0807 13.6806 16.3345 15.009 15.0061C16.3374 13.6777 17.0837 11.876 17.0837 9.9974ZM17.917 9.9974C17.917 14.3698 14.3727 17.9141 10.0003 17.9141C5.62794 17.9141 2.08366 14.3698 2.08366 9.9974C2.08366 5.62502 5.62794 2.08073 10.0003 2.08073C14.3727 2.08073 17.917 5.62502 17.917 9.9974Z" fill="#4B5563" stroke="#4B5563" stroke-width="0.833333"/>
</svg>
