<svg width="20" height="20" viewBox="0 0 20 20" fill="none" xmlns="http://www.w3.org/2000/svg">
<path d="M10.0033 1.60938C11.8504 1.60938 13.6218 2.34311 14.9278 3.64917C16.2339 4.95522 16.9676 6.72662 16.9676 8.57366C16.9676 11.5165 14.8998 14.7237 10.8176 18.2294C10.5907 18.4244 10.3012 18.5315 10.002 18.5312C9.70278 18.5309 9.41356 18.4233 9.18692 18.2279L8.91692 17.9937C5.01549 14.5794 3.03906 11.4508 3.03906 8.57366C3.03906 6.72662 3.7728 4.95522 5.07885 3.64917C6.38491 2.34311 8.15631 1.60938 10.0033 1.60938ZM10.0033 5.89509C9.29295 5.89509 8.61164 6.1773 8.10931 6.67963C7.60698 7.18195 7.32478 7.86326 7.32478 8.57366C7.32478 9.28406 7.60698 9.96537 8.10931 10.4677C8.61164 10.97 9.29295 11.2522 10.0033 11.2522C10.7138 11.2522 11.3951 10.97 11.8974 10.4677C12.3997 9.96537 12.6819 9.28406 12.6819 8.57366C12.6819 7.86326 12.3997 7.18195 11.8974 6.67963C11.3951 6.1773 10.7138 5.89509 10.0033 5.89509Z" fill="#473289"/>
</svg>
