<svg width="24" height="24" viewBox="0 0 24 24" fill="none" xmlns="http://www.w3.org/2000/svg">
<path d="M12.0006 0C8.07635 0 4.86035 3.2064 4.86035 7.11984C4.86035 8.63616 5.34467 10.0454 6.16427 11.2037L11.1292 19.7868C11.8244 20.6952 12.2867 20.5226 12.8648 19.7388L18.3412 10.4196C18.4516 10.2194 18.5384 10.0063 18.614 9.78864C18.9615 8.94179 19.1402 8.03521 19.1401 7.11984C19.1404 3.2064 15.9253 0 12.0006 0ZM12.0006 3.336C14.114 3.336 15.7945 5.01264 15.7945 7.11984C15.7945 9.22704 14.114 10.903 12.0006 10.903C9.88739 10.903 8.20619 9.22728 8.20619 7.11984C8.20619 5.01264 9.88739 3.33624 12.0006 3.33624" fill="#473289"/>
<path d="M16.5395 11.7344L16.528 11.7646C16.5316 11.7555 16.5345 11.7461 16.5381 11.737L16.5395 11.7344ZM8.16183 16.5701C4.77159 17.0492 2.40039 18.1952 2.40039 19.8821C2.40039 22.1545 6.36231 23.9965 12.0004 23.9965C17.6385 23.9965 21.6004 22.1545 21.6004 19.8821C21.6004 18.1952 19.2294 17.0492 15.8394 16.5701L15.3698 17.3698C17.9248 17.7243 19.6804 18.4693 19.6804 19.3337C19.6804 20.5457 16.2419 21.5281 12.0004 21.5281C7.75887 21.5281 4.32039 20.5457 4.32039 19.3337C4.32015 18.4721 6.06423 17.7279 8.62719 17.372C8.47239 17.1046 8.31687 16.8377 8.16183 16.5701Z" fill="#473289"/>
</svg>
