<svg width="20" height="20" viewBox="0 0 20 20" fill="none" xmlns="http://www.w3.org/2000/svg">
<path d="M18.3307 7.17594V13.9609C18.3308 14.6527 18.0661 15.3183 17.591 15.8211C17.1159 16.324 16.4664 16.6259 15.7757 16.6651L15.6224 16.6693H4.3724C3.68061 16.6693 3.01504 16.4046 2.5122 15.9295C2.00937 15.4544 1.70739 14.8049 1.66823 14.1143L1.66406 13.9609V7.17594L9.7074 11.3893C9.79688 11.4361 9.89638 11.4606 9.9974 11.4606C10.0984 11.4606 10.1979 11.4361 10.2874 11.3893L18.3307 7.17594ZM4.3724 3.33594H15.6224C16.2937 3.33586 16.9411 3.5851 17.4391 4.03533C17.9371 4.48555 18.2501 5.10467 18.3174 5.7726L9.9974 10.1309L1.6774 5.7726C1.742 5.1312 2.03327 4.53387 2.49885 4.08799C2.96444 3.64211 3.5738 3.37693 4.2174 3.3401L4.3724 3.33594Z" fill="#473289"/>
</svg>
