<svg width="18" height="20" viewBox="0 0 18 20" fill="none" xmlns="http://www.w3.org/2000/svg">
<path d="M1.5 8.67823C1.5 6.01323 1.5 4.68073 1.815 4.2324C2.12917 3.7849 3.38167 3.35573 5.8875 2.49823L6.365 2.3349C7.67083 1.8874 8.32333 1.66406 9 1.66406C9.67583 1.66406 10.3292 1.8874 11.635 2.3349L12.1125 2.49823C14.6183 3.35573 15.8708 3.7849 16.185 4.2324C16.5 4.68073 16.5 6.01406 16.5 8.67823V9.9899C16.5 14.6882 12.9675 16.9691 10.7508 17.9366C10.15 18.1991 9.85 18.3307 9 18.3307C8.15 18.3307 7.85 18.1991 7.24917 17.9366C5.0325 16.9682 1.5 14.6891 1.5 9.9899V8.67823Z" stroke="#4B5563" stroke-width="1.5"/>
<path d="M8.99967 9.16146C9.92015 9.16146 10.6663 8.41527 10.6663 7.49479C10.6663 6.57432 9.92015 5.82812 8.99967 5.82812C8.0792 5.82812 7.33301 6.57432 7.33301 7.49479C7.33301 8.41527 8.0792 9.16146 8.99967 9.16146Z" stroke="#4B5563" stroke-width="1.5"/>
<path d="M12.3337 12.4948C12.3337 13.4156 12.3337 14.1615 9.00033 14.1615C5.66699 14.1615 5.66699 13.4156 5.66699 12.4948C5.66699 11.574 7.15866 10.8281 9.00033 10.8281C10.842 10.8281 12.3337 11.574 12.3337 12.4948Z" stroke="#4B5563" stroke-width="1.5"/>
</svg>
