<svg width="24" height="24" viewBox="0 0 24 24" fill="none" xmlns="http://www.w3.org/2000/svg">
<path fill-rule="evenodd" clip-rule="evenodd" d="M16.6263 4.69118L18.7268 3.17042L20.8295 5.27316L19.3088 7.37359C19.8405 8.21141 20.2233 9.13493 20.4401 10.1033L23 10.513V13.4868L20.4401 13.8966C20.2233 14.8649 19.8405 15.7885 19.3088 16.6263L20.8295 18.7267L18.7268 20.8295L16.6263 19.3087C15.7885 19.8405 14.865 20.2233 13.8966 20.4401L13.4869 23H10.5131L10.1034 20.4401C9.13502 20.2233 8.21149 19.8405 7.37369 19.3087L5.27322 20.8295L3.17046 18.7268L4.6912 16.6263C4.15943 15.7885 3.77668 14.865 3.55989 13.8966L1 13.4869V10.5131L3.55993 10.1033C3.77672 9.13498 4.15947 8.21145 4.69125 7.37364L3.1705 5.27321L5.27322 3.17047L7.37369 4.69122C8.2115 4.15945 9.13502 3.7767 10.1034 3.55991L10.5131 1H13.4869L13.8966 3.55991C14.865 3.77667 15.7885 4.15941 16.6263 4.69118Z" fill="#BBB8D6"/>
<path fill-rule="evenodd" clip-rule="evenodd" d="M13 1H13.853L14.247 3.5599C15.178 3.77672 16.066 4.15948 16.8716 4.69121L16.4271 5.0405C15.5381 4.2804 14.5177 3.82154 13.3939 3.5599L13 1ZM13 23H13.853L14.247 20.4401C15.178 20.2232 16.066 19.8405 16.8716 19.3087L16.4271 18.9594C15.5381 19.7196 14.5177 20.1784 13.3939 20.4401L13 23ZM18.3965 3.54304L18.8912 3.1705L20.9131 5.27323L19.4508 7.37366C19.9621 8.21147 20.3301 9.13499 20.5386 10.1033L23 10.5131V13.4869L20.5386 13.8966C20.3301 14.865 19.9621 15.7885 19.4508 16.6263L20.9131 18.7268L18.8912 20.8295L18.3965 20.457L20.0601 18.7268L18.5978 16.6263C19.1091 15.7885 19.4771 14.865 19.6856 13.8966L22.147 13.4869V10.5131L19.6856 10.1033C19.4772 9.13499 19.1091 8.21146 18.5978 7.37366L20.0601 5.27319L18.3965 3.54304Z" fill="#D8D7E8"/>
<path d="M16.5555 16.5573C19.0725 14.0402 19.0724 9.95924 16.5553 7.44224C14.0382 4.92523 9.95726 4.9253 7.44026 7.4424C4.92325 9.95949 4.92332 14.0404 7.44042 16.5574C9.95751 19.0745 14.0385 19.0744 16.5555 16.5573Z" fill="#EDEEF6"/>
<path fill-rule="evenodd" clip-rule="evenodd" d="M11.7405 5.64062C11.9087 5.64062 12.0754 5.64709 12.2403 5.65975C8.91424 5.91489 6.29482 8.69449 6.29482 12.0859C6.29482 15.4774 8.91424 18.257 12.2403 18.5121C12.0754 18.5248 11.9087 18.5312 11.7405 18.5312C8.18084 18.5312 5.05469 15.6456 5.05469 12.0859C5.05469 8.5263 8.18084 5.64062 11.7405 5.64062Z" fill="#8A7EB5"/>
<path fill-rule="evenodd" clip-rule="evenodd" d="M12 14.7897C12.453 14.7897 12.8203 15.157 12.8203 15.61C12.8203 16.063 12.453 16.4303 12 16.4303C11.547 16.4303 11.1797 16.063 11.1797 15.61C11.1797 15.157 11.547 14.7897 12 14.7897ZM12 13.3254C11.6555 13.3254 11.3725 13.0525 11.3601 12.7082L11.1982 8.22597C11.1917 8.04569 11.2521 7.88814 11.3773 7.7583C11.5025 7.62845 11.6577 7.5625 11.8381 7.5625H12.1619C12.3423 7.5625 12.4975 7.62845 12.6227 7.7583C12.748 7.88814 12.8083 8.04569 12.8017 8.22597L12.6399 12.7082C12.6275 13.0525 12.3446 13.3254 12 13.3254Z" fill="#473289"/>
<path fill-rule="evenodd" clip-rule="evenodd" d="M12 14.7897C12.453 14.7897 12.8203 15.157 12.8203 15.61C12.8203 16.063 12.453 16.4303 12 16.4303C11.9185 16.4303 11.8399 16.4184 11.7656 16.3963C12.1044 16.2955 12.3516 15.9816 12.3516 15.61C12.3516 15.2384 12.1044 14.9246 11.7656 14.8237C11.8417 14.8011 11.9206 14.7896 12 14.7897ZM12 13.3254C11.9174 13.3254 11.8383 13.3097 11.7657 13.2811C11.996 13.1904 12.1617 12.97 12.1712 12.7082L12.333 8.22597C12.3396 8.04569 12.2793 7.88814 12.154 7.7583C12.0459 7.64622 11.9154 7.58172 11.7657 7.5662C11.7898 7.56373 11.814 7.56249 11.8382 7.5625H12.1619C12.3423 7.5625 12.4975 7.62845 12.6228 7.7583C12.748 7.88814 12.8083 8.04569 12.8018 8.22597L12.6399 12.7082C12.6275 13.0525 12.3446 13.3254 12 13.3254Z" fill="#473289"/>
</svg>
