<svg width="24" height="24" viewBox="0 0 24 24" fill="none" xmlns="http://www.w3.org/2000/svg">
<g clip-path="url(#clip0_3110_98639)">
<path d="M9.39313 11.4738C11.1531 11.4738 12.5831 10.0437 12.5831 8.28375C12.5831 6.52375 11.1531 5.09375 9.39313 5.09375C7.63313 5.09375 6.20313 6.52375 6.20313 8.28375C6.20312 10.0437 7.63313 11.4738 9.39313 11.4738Z" fill="#BBB8D6" stroke="#BBB8D6" stroke-width="1.875" stroke-miterlimit="10"/>
<path d="M12.1797 13.5469H6.60969C4.57969 13.5469 2.92969 15.1969 2.92969 17.2269V19.5169H4.79969H13.9897H15.8697V17.2269C15.8597 15.1969 14.2097 13.5469 12.1797 13.5469Z" fill="#8A7EB5"/>
<g clip-path="url(#clip1_3110_98639)">
<path fill-rule="evenodd" clip-rule="evenodd" d="M15 11C15.2652 11 15.5196 11.1054 15.7071 11.2929C15.8946 11.4804 16 11.7348 16 12C16 12.2652 15.8946 12.5196 15.7071 12.7071C15.5196 12.8946 15.2652 13 15 13C14.7348 13 14.4804 12.8946 14.2929 12.7071C14.1054 12.5196 14 12.2652 14 12C14 11.7348 14.1054 11.4804 14.2929 11.2929C14.4804 11.1054 14.7348 11 15 11ZM21 11C21.2652 11 21.5196 11.1054 21.7071 11.2929C21.8946 11.4804 22 11.7348 22 12C22 12.2652 21.8946 12.5196 21.7071 12.7071C21.5196 12.8946 21.2652 13 21 13C20.7348 13 20.4804 12.8946 20.2929 12.7071C20.1054 12.5196 20 12.2652 20 12C20 11.7348 20.1054 11.4804 20.2929 11.2929C20.4804 11.1054 20.7348 11 21 11ZM18.0904 11C18.3556 11 18.61 11.1054 18.7975 11.2929C18.985 11.4804 19.0904 11.7348 19.0904 12C19.0904 12.2652 18.985 12.5196 18.7975 12.7071C18.61 12.8946 18.3556 13 18.0904 13C17.8252 13 17.5708 12.8946 17.3833 12.7071C17.1958 12.5196 17.0904 12.2652 17.0904 12C17.0904 11.7348 17.1958 11.4804 17.3833 11.2929C17.5708 11.1054 17.8252 11 18.0904 11Z" fill="#473289"/>
</g>
</g>
<defs>
<clipPath id="clip0_3110_98639">
<rect width="24" height="24" fill="white"/>
</clipPath>
<clipPath id="clip1_3110_98639">
<rect width="8" height="8" fill="white" transform="translate(14 8)"/>
</clipPath>
</defs>
</svg>
