<svg width="20" height="20" viewBox="0 0 20 20" fill="none" xmlns="http://www.w3.org/2000/svg">
<path d="M17.1912 4.94154C14.1324 4.47653 12.2188 3.59819 10.5816 1.90055C10.5046 1.82249 10.413 1.76132 10.3123 1.72074C10.2116 1.68015 10.104 1.66101 9.9959 1.66446C9.88781 1.66791 9.78152 1.69388 9.68349 1.74081C9.58545 1.78774 9.4977 1.85464 9.42556 1.93746C7.70225 3.96355 5.31115 4.61677 2.5 4.98583V7.77586C2.50229 9.6657 2.98733 11.5218 3.90659 13.1584C4.82585 14.7951 6.1471 16.1549 7.73815 17.1018L9.64098 18.2311C9.74998 18.2963 9.87386 18.3307 10 18.3307C10.1261 18.3307 10.25 18.2963 10.359 18.2311L12.2618 17.1018C13.8529 16.1549 15.1742 14.7951 16.0934 13.1584C17.0127 11.5218 17.4977 9.6657 17.5 7.77586V4.98583L17.1912 4.94154Z" fill="#DDDDED"/>
<g clip-path="url(#clip0_3218_117934)">
<path d="M7.50006 6.8724C7.50006 6.58431 7.7328 6.35156 8.02089 6.35156H12.1876C12.4756 6.35156 12.7084 6.58431 12.7084 6.8724C12.7084 7.16048 12.4756 7.39323 12.1876 7.39323H11.2728C11.4291 7.6276 11.5447 7.89128 11.6098 8.17448H12.1876C12.4756 8.17448 12.7084 8.40723 12.7084 8.69531C12.7084 8.9834 12.4756 9.21615 12.1876 9.21615H11.6081C11.3933 10.165 10.6006 10.8958 9.6192 11.0212L11.9695 12.6992C12.2038 12.8669 12.2575 13.1924 12.0899 13.4251C11.9223 13.6579 11.5967 13.7132 11.364 13.5456L7.71815 10.9414C7.53424 10.8112 7.45611 10.5752 7.52447 10.3587C7.59283 10.1423 7.79465 9.9974 8.02089 9.9974H9.32297C9.85683 9.9974 10.3158 9.67676 10.516 9.21615H8.02089C7.7328 9.21615 7.50006 8.9834 7.50006 8.69531C7.50006 8.40723 7.7328 8.17448 8.02089 8.17448H10.516C10.3158 7.71387 9.85683 7.39323 9.32297 7.39323H8.02089C7.7328 7.39323 7.50006 7.16048 7.50006 6.8724Z" fill="#473289"/>
</g>
<g clip-path="url(#clip1_3218_117934)">
<path d="M18.3198 15.0241C18.3296 15.0069 18.3365 14.9882 18.3402 14.9687L18.559 13.8021C18.5729 13.7247 18.5555 13.645 18.5107 13.5804C18.4658 13.5159 18.3972 13.4718 18.3198 13.4579C18.2425 13.444 18.1628 13.4613 18.0982 13.5062C18.0337 13.551 17.9896 13.6197 17.9757 13.6971L17.8677 14.2804C17.625 13.837 17.2621 13.4711 16.8209 13.2245C16.3796 12.9779 15.8778 12.8607 15.373 12.8863C14.8682 12.9118 14.3808 13.0792 13.9667 13.3691C13.5526 13.659 13.2286 14.0598 13.0319 14.5254C13.0031 14.597 13.0037 14.677 13.0338 14.7481C13.0639 14.8192 13.1209 14.8754 13.1923 14.9046C13.2279 14.9193 13.2661 14.9268 13.3046 14.9267C13.3432 14.9266 13.3813 14.9189 13.4168 14.904C13.4523 14.8891 13.4846 14.8673 13.5116 14.8398C13.5387 14.8124 13.56 14.7799 13.5744 14.7441C13.7315 14.3582 14.0016 14.0288 14.3494 13.7993C14.6971 13.5697 15.1061 13.4507 15.5227 13.4579C15.8912 13.4562 16.2536 13.5518 16.5732 13.7352C16.8928 13.9186 17.1583 14.1831 17.3427 14.5021L16.8615 14.4233C16.8232 14.4172 16.7841 14.4186 16.7463 14.4276C16.7086 14.4366 16.673 14.453 16.6416 14.4757C16.6102 14.4985 16.5835 14.5272 16.5632 14.5602C16.5429 14.5933 16.5293 14.63 16.5232 14.6683C16.517 14.7066 16.5185 14.7457 16.5275 14.7835C16.5365 14.8212 16.5528 14.8568 16.5756 14.8882C16.5983 14.9196 16.6271 14.9463 16.6601 14.9666C16.6931 14.9869 16.7299 15.0005 16.7682 15.0066L18.0077 15.2137H18.0544C18.0883 15.2141 18.1219 15.2082 18.1536 15.1962C18.1643 15.1922 18.1741 15.1862 18.1827 15.1787C18.2037 15.1709 18.2233 15.1601 18.2411 15.1466L18.2644 15.1175C18.2795 15.1033 18.2932 15.0877 18.3052 15.0708C18.3123 15.056 18.3173 15.0403 18.3198 15.0241ZM17.8007 16.1033C17.7649 16.0886 17.7265 16.0812 17.6879 16.0815C17.6492 16.0818 17.611 16.0898 17.5754 16.105C17.5399 16.1202 17.5077 16.1423 17.4808 16.1701C17.4538 16.1978 17.4327 16.2306 17.4186 16.2666C17.2604 16.6485 16.9913 16.9741 16.646 17.2014C16.3007 17.4286 15.8952 17.547 15.4819 17.5412C15.1135 17.5429 14.7511 17.4473 14.4315 17.2639C14.1119 17.0806 13.8464 16.816 13.6619 16.4971L14.1432 16.5758H14.1898C14.2672 16.582 14.3438 16.5572 14.4029 16.5069C14.462 16.4566 14.4986 16.3848 14.5048 16.3075C14.511 16.2301 14.4862 16.1535 14.4359 16.0944C14.3856 16.0353 14.3138 15.9987 14.2365 15.9925L12.9969 15.7912C12.9651 15.7854 12.9325 15.7854 12.9007 15.7912H12.8773C12.8443 15.8 12.8128 15.8138 12.784 15.8321C12.7643 15.8472 12.7467 15.8649 12.7315 15.8846L12.7052 15.9137C12.6962 15.9313 12.6894 15.9499 12.6848 15.9691C12.6746 15.984 12.6676 16.0009 12.6644 16.0187L12.4457 17.1854C12.4363 17.2241 12.435 17.2644 12.4418 17.3037C12.4486 17.343 12.4634 17.3805 12.4853 17.4138C12.5071 17.4472 12.5356 17.4757 12.5689 17.4976C12.6022 17.5195 12.6397 17.5344 12.679 17.5412H12.7315C12.8006 17.5423 12.8678 17.5189 12.9212 17.4751C12.9746 17.4313 13.0107 17.37 13.0232 17.3021L13.1311 16.7187C13.3736 17.1622 13.7362 17.5283 14.1773 17.7751C14.6184 18.022 15.1201 18.1395 15.6249 18.1142C16.1297 18.0889 16.6172 17.9219 17.0314 17.6323C17.4457 17.3426 17.7699 16.9421 17.9669 16.4766C17.9936 16.405 17.9912 16.3258 17.9601 16.256C17.929 16.1862 17.8718 16.1313 17.8007 16.1033Z" fill="#473289"/>
</g>
<defs>
<clipPath id="clip0_3218_117934">
<rect width="5.20833" height="8.33333" fill="white" transform="translate(7.5 5.82812)"/>
</clipPath>
<clipPath id="clip1_3218_117934">
<rect width="7" height="7" fill="white" transform="translate(12 12)"/>
</clipPath>
</defs>
</svg>
