<svg width="24" height="24" viewBox="0 0 24 24" fill="none" xmlns="http://www.w3.org/2000/svg">
<g clip-path="url(#clip0_3110_98532)">
<path d="M9.39313 11.4738C11.1531 11.4738 12.5831 10.0437 12.5831 8.28375C12.5831 6.52375 11.1531 5.09375 9.39313 5.09375C7.63313 5.09375 6.20313 6.52375 6.20313 8.28375C6.20312 10.0437 7.63313 11.4738 9.39313 11.4738Z" fill="#BBB8D6" stroke="#BBB8D6" stroke-width="1.875" stroke-miterlimit="10"/>
<path d="M12.1797 13.5469H6.60969C4.57969 13.5469 2.92969 15.1969 2.92969 17.2269V19.5169H4.79969H13.9897H15.8697V17.2269C15.8597 15.1969 14.2097 13.5469 12.1797 13.5469Z" fill="#8A7EB5"/>
<path fill-rule="evenodd" clip-rule="evenodd" d="M17.5984 9.77507C17.5984 9.16173 18.0984 8.66407 18.7144 8.66407C18.8606 8.66372 19.0055 8.69217 19.1408 8.74782C19.276 8.80346 19.399 8.8852 19.5027 8.98836C19.6063 9.09153 19.6886 9.2141 19.7449 9.34909C19.8012 9.48407 19.8304 9.62882 19.8307 9.77507C19.8307 10.3887 19.3307 10.8864 18.7144 10.8864C18.5666 10.8866 18.4202 10.8574 18.2838 10.8005C18.1474 10.7436 18.0236 10.6602 17.9197 10.5551L16.3747 11.6071C16.4178 11.8214 16.3967 12.0437 16.3141 12.2461L18.0081 13.3594C18.2076 13.1967 18.4573 13.108 18.7147 13.1084C18.861 13.1081 19.0059 13.1366 19.1411 13.1923C19.2763 13.248 19.3993 13.3297 19.5029 13.4329C19.6065 13.5361 19.6888 13.6587 19.7451 13.7937C19.8013 13.9287 19.8304 14.0735 19.8307 14.2197C19.8307 14.8331 19.3307 15.3307 18.7144 15.3307C18.4191 15.3314 18.1356 15.2147 17.9263 15.0063C17.7171 14.798 17.5991 14.515 17.5984 14.2197C17.5981 14.0639 17.631 13.9099 17.6947 13.7677L16.0141 12.6641C15.8105 12.841 15.5498 12.9383 15.2801 12.9377C15.1338 12.9381 14.9889 12.9096 14.8537 12.8539C14.7184 12.7983 14.5954 12.7165 14.4918 12.6133C14.3882 12.5101 14.3059 12.3875 14.2496 12.2525C14.1934 12.1174 14.1643 11.9727 14.1641 11.8264C14.1644 11.6802 14.1935 11.5354 14.2497 11.4004C14.306 11.2655 14.3883 11.1429 14.4919 11.0397C14.5956 10.9365 14.7185 10.8548 14.8537 10.7992C14.989 10.7435 15.1338 10.715 15.2801 10.7154C15.6347 10.7154 15.9501 10.8797 16.1544 11.1357L17.6521 10.1161C17.6164 10.0059 17.5983 9.89084 17.5984 9.77507Z" fill="#473289"/>
</g>
<defs>
<clipPath id="clip0_3110_98532">
<rect width="24" height="24" fill="white"/>
</clipPath>
</defs>
</svg>
