<svg width="24" height="24" viewBox="0 0 24 24" fill="none" xmlns="http://www.w3.org/2000/svg">
<path d="M20.6295 5.93297C16.9588 5.37497 14.6625 4.32095 12.6979 2.28379C12.6055 2.19012 12.4956 2.11671 12.3748 2.06801C12.254 2.01931 12.1248 1.99633 11.9951 2.00047C11.8654 2.00462 11.7378 2.03579 11.6202 2.0921C11.5025 2.14841 11.3972 2.22869 11.3107 2.32807C9.2427 4.75939 6.37338 5.54325 3 5.98612V9.33415C3.00275 11.602 3.58479 13.8293 4.68791 15.7932C5.79102 17.7572 7.37652 19.389 9.28578 20.5253L11.5692 21.8804C11.7 21.9587 11.8486 22 12 22C12.1514 22 12.3 21.9587 12.4308 21.8804L14.7142 20.5253C16.6235 19.389 18.209 17.7572 19.3121 15.7932C20.4152 13.8293 20.9973 11.602 21 9.33415V5.98612L20.6295 5.93297Z" fill="#DDDDED"/>
<g clip-path="url(#clip0_3110_98564)">
<path d="M9.00007 8.25C9.00007 7.9043 9.27936 7.625 9.62507 7.625H14.6251C14.9708 7.625 15.2501 7.9043 15.2501 8.25C15.2501 8.5957 14.9708 8.875 14.6251 8.875H13.5274C13.7149 9.15625 13.8536 9.47266 13.9317 9.8125H14.6251C14.9708 9.8125 15.2501 10.0918 15.2501 10.4375C15.2501 10.7832 14.9708 11.0625 14.6251 11.0625H13.9298C13.6719 12.2012 12.7208 13.0781 11.543 13.2285L14.3633 15.2422C14.6446 15.4434 14.7091 15.834 14.5079 16.1133C14.3067 16.3926 13.9161 16.459 13.6368 16.2578L9.26179 13.1328C9.04108 12.9766 8.94733 12.6934 9.02936 12.4336C9.11139 12.1738 9.35358 12 9.62507 12H11.1876C11.8282 12 12.379 11.6152 12.6192 11.0625H9.62507C9.27936 11.0625 9.00007 10.7832 9.00007 10.4375C9.00007 10.0918 9.27936 9.8125 9.62507 9.8125H12.6192C12.379 9.25977 11.8282 8.875 11.1876 8.875H9.62507C9.27936 8.875 9.00007 8.5957 9.00007 8.25Z" fill="#473289"/>
</g>
<path d="M17.375 16.625C17.375 15.9875 17.8625 15.5 18.5 15.5C19.1375 15.5 19.625 15.9875 19.625 16.625V17.375H20.375V16.625C20.375 15.575 19.55 14.75 18.5 14.75C17.45 14.75 16.625 15.575 16.625 16.625V17.375H17.375V16.625ZM19.0625 19.4375C19.0625 19.1375 18.8 18.875 18.5 18.875C18.2 18.875 17.9375 19.1375 17.9375 19.4375C17.9375 19.5875 18.0125 19.7375 18.125 19.85V20.375C18.125 20.6 18.275 20.75 18.5 20.75C18.725 20.75 18.875 20.6 18.875 20.375V19.85C18.9875 19.7375 19.0625 19.5875 19.0625 19.4375Z" fill="#9991BF"/>
<path d="M20.375 17.375H16.625C15.9875 17.375 15.5 17.8625 15.5 18.5V21.125C15.5 21.7625 15.9875 22.25 16.625 22.25H20.375C21.0125 22.25 21.5 21.7625 21.5 21.125V18.5C21.5 17.8625 21.0125 17.375 20.375 17.375ZM18.875 19.85V20.375C18.875 20.6 18.725 20.75 18.5 20.75C18.275 20.75 18.125 20.6 18.125 20.375V19.85C18.0125 19.7375 17.9375 19.5875 17.9375 19.4375C17.9375 19.1375 18.2 18.875 18.5 18.875C18.8 18.875 19.0625 19.1375 19.0625 19.4375C19.0625 19.5875 18.9875 19.7375 18.875 19.85Z" fill="#473289"/>
<defs>
<clipPath id="clip0_3110_98564">
<rect width="6.25" height="10" fill="white" transform="translate(9 7)"/>
</clipPath>
</defs>
</svg>
