<svg width="24" height="24" viewBox="0 0 24 24" fill="none" xmlns="http://www.w3.org/2000/svg">
<path d="M19 3.28885V9.42973H14.5452C14.1057 9.42973 13.6951 9.55614 13.3484 9.77371C13.0467 9.96303 12.7944 10.2205 12.612 10.5252C12.466 10.768 12.3686 11.0364 12.3251 11.3159C12.3068 11.4296 12.2977 11.5446 12.2977 11.6598L12.2967 12.3073L12.2872 19.7921C12.2862 20.3859 12.5197 20.9461 12.9443 21.3685C13.291 21.7135 13.7306 21.9315 14.2055 22H4.29716C3.58173 22 3 21.422 3 20.7111V3.28885C3 2.578 3.58173 2 4.29716 2H17.7028C18.4178 2 19 2.578 19 3.28885Z" fill="#D8D7E8"/>
<path d="M15.0552 9.13203H13.5341C12.371 9.13203 11.4237 10.078 11.4223 11.2409L11.4186 13.9962C11.1265 14.0538 10.8294 14.0827 10.5317 14.0825C9.31859 14.0825 8.17812 13.6105 7.32027 12.7526C6.46297 11.8948 5.99047 10.7543 5.99047 9.5412C5.99047 8.32808 6.46297 7.18761 7.32078 6.3298C8.17859 5.47198 9.31859 5 10.5317 5C11.7448 5 12.8853 5.47203 13.7431 6.32984C14.5039 7.09062 14.9614 8.07313 15.0552 9.13203ZM11.4172 15.1616L11.4162 16.0991H5.49219C5.23302 16.0991 5.02344 15.8891 5.02344 15.6303C5.02344 15.3711 5.23302 15.1616 5.49219 15.1616H11.4172ZM11.4144 17.4842L11.413 18.4217H5.46875C5.20958 18.4217 5 18.2122 5 17.953C5 17.6942 5.20958 17.4842 5.46875 17.4842H11.4144Z" fill="#8A7EB5"/>
<path d="M21.3355 9.67622C20.9062 9.2402 20.3368 9 19.7324 9H13.283C12.0317 9 11.0124 10.0327 11.0107 11.302L11 19.6966C10.9992 20.3098 11.2352 20.8877 11.6645 21.3238C12.0938 21.7599 12.6632 22 13.2676 22H19.717C20.9683 22 21.9876 20.9673 21.9893 19.698L22 11.3034C22.0008 10.6902 21.7648 10.1123 21.3355 9.67622Z" fill="#473289"/>
<path d="M18.935 11L13.9682 11C13.3009 11 13 11.3004 13 11.9667V13.3052C13 13.9714 13.3009 14.2718 13.9682 14.2718H18.935C19.6023 14.2718 19.9032 13.9714 19.9032 13.3052V11.9666C19.9032 11.3004 19.6023 11 18.935 11ZM14.4815 16.3751H13.4841C13.2168 16.3751 13 16.1587 13 15.8918C13 15.6249 13.2168 15.4085 13.4841 15.4085H14.4815C14.7488 15.4085 14.9656 15.6249 14.9656 15.8918C14.9656 16.1587 14.7488 16.3751 14.4815 16.3751ZM14.4815 18.1634H13.4841C13.2168 18.1634 13 17.947 13 17.6801C13 17.4132 13.2168 17.1968 13.4841 17.1968H14.4815C14.7488 17.1968 14.9656 17.4132 14.9656 17.6801C14.9656 17.947 14.7488 18.1634 14.4815 18.1634ZM14.4815 20H13.4841C13.2168 20 13 19.7836 13 19.5167C13 19.2498 13.2168 19.0334 13.4841 19.0334H14.4815C14.7488 19.0334 14.9656 19.2498 14.9656 19.5167C14.9656 19.7836 14.7488 20 14.4815 20ZM16.9503 16.3751H15.9529C15.6856 16.3751 15.4688 16.1587 15.4688 15.8918C15.4688 15.6249 15.6856 15.4085 15.9529 15.4085H16.9503C17.2176 15.4085 17.4344 15.6249 17.4344 15.8918C17.4344 16.1587 17.2176 16.3751 16.9503 16.3751ZM16.9503 18.1634H15.9529C15.6856 18.1634 15.4688 17.947 15.4688 17.6801C15.4688 17.4132 15.6856 17.1968 15.9529 17.1968H16.9503C17.2176 17.1968 17.4344 17.4132 17.4344 17.6801C17.4344 17.947 17.2176 18.1634 16.9503 18.1634ZM16.9503 20H15.9529C15.6856 20 15.4688 19.7836 15.4688 19.5167C15.4688 19.2498 15.6856 19.0334 15.9529 19.0334H16.9503C17.2176 19.0334 17.4344 19.2498 17.4344 19.5167C17.4344 19.7836 17.2176 20 16.9503 20ZM19.5159 16.3751H18.5185C18.2512 16.3751 18.0344 16.1587 18.0344 15.8918C18.0344 15.6249 18.2512 15.4085 18.5185 15.4085H19.5159C19.7832 15.4085 20 15.6249 20 15.8918C20 16.1587 19.7832 16.3751 19.5159 16.3751ZM19.5159 18.1634H18.5185C18.2512 18.1634 18.0344 17.947 18.0344 17.6801C18.0344 17.4132 18.2512 17.1968 18.5185 17.1968H19.5159C19.7832 17.1968 20 17.4132 20 17.6801C20 17.947 19.7832 18.1634 19.5159 18.1634ZM19.5159 20H18.5185C18.2512 20 18.0344 19.7836 18.0344 19.5167C18.0344 19.2498 18.2512 19.0334 18.5185 19.0334H19.5159C19.7832 19.0334 20 19.2498 20 19.5167C20 19.7836 19.7832 20 19.5159 20Z" fill="#D8D7E8"/>
</svg>
