<svg width="66" height="85" viewBox="0 0 66 85" fill="none" xmlns="http://www.w3.org/2000/svg">
<path d="M8.57631 5.11719H61.7877C62.3757 5.11719 62.9396 5.34659 63.3553 5.75494C63.7711 6.16328 64.0047 6.71712 64.0047 7.2946V78.32C64.0047 78.606 63.9473 78.8891 63.8359 79.1533C63.7245 79.4175 63.5612 79.6575 63.3553 79.8597C63.1495 80.0619 62.9051 80.2223 62.6361 80.3317C62.3671 80.4411 62.0789 80.4975 61.7877 80.4975H8.57631C8.28518 80.4975 7.9969 80.4411 7.72793 80.3317C7.45895 80.2223 7.21456 80.0619 7.0087 79.8597C6.80284 79.6575 6.63954 79.4175 6.52813 79.1533C6.41672 78.8891 6.35937 78.606 6.35938 78.32V7.2946C6.35938 6.71712 6.59294 6.16328 7.0087 5.75494C7.42446 5.34659 7.98834 5.11719 8.57631 5.11719Z" fill="#BBB8D6"/>
<path d="M23.4958 9.78906H10.6476C10.1444 9.78906 9.66169 9.98471 9.30494 10.3333C8.94819 10.6818 8.74645 11.1549 8.7438 11.6491C8.70372 20.0635 8.06243 54.7299 0.289389 68.5398C0.246479 68.6133 0.198785 68.684 0.146604 68.7514C0.0138381 68.9236 -0.209108 69.3394 0.4447 69.5781C0.638353 69.6457 0.842914 69.6782 1.04841 69.674H25.2092C25.4403 69.6748 25.6695 69.6339 25.8856 69.5535C28.075 68.7342 40.1115 63.6486 43.0699 49.6861C43.1599 49.2525 43.4036 48.8643 43.7578 48.5908C44.112 48.3173 44.5536 48.1762 45.0038 48.1927C48.8791 48.3477 58.4206 48.3354 60.9808 40.0096C61.048 39.6769 61.089 39.3397 61.1035 39.0008V11.6589C61.1035 11.163 60.9029 10.6874 60.5459 10.3367C60.1889 9.98607 59.7046 9.78906 59.1997 9.78906H8.7438" fill="white"/>
<path d="M23.0703 5.06669V7.92316C23.0703 8.7845 23.4187 9.61055 24.0388 10.2196C24.6589 10.8287 25.5 11.1708 26.3769 11.1708H44.6635C45.5405 11.1708 46.3815 10.8287 47.0016 10.2196C47.6217 9.61055 47.9701 8.7845 47.9701 7.92316V5.079C47.9701 4.71619 47.8234 4.36825 47.5622 4.1117C47.301 3.85516 46.9467 3.71104 46.5773 3.71104H39.2727C39.2727 3.71104 38.8043 0.266544 35.5152 0.51258C35.5152 0.51258 32.9776 0.14107 32.2587 3.62247L24.4456 3.69628C24.079 3.70145 23.7292 3.84811 23.4719 4.10456C23.2145 4.361 23.0703 4.70662 23.0703 5.06669Z" fill="#68589F"/>
<g filter="url(#filter0_d_2440_19953)">
<path d="M9.7929 73.8154L9.41465 75.3409C9.38493 75.4578 9.38275 75.5798 9.40829 75.6977C9.43382 75.8155 9.48639 75.9261 9.56199 76.021C9.6376 76.1159 9.73424 76.1926 9.84458 76.2453C9.95492 76.298 10.076 76.3252 10.1987 76.325H60.6446C60.7509 76.325 60.8563 76.3043 60.9544 76.2642C61.0526 76.2241 61.1418 76.1653 61.2167 76.0912C61.2917 76.0171 61.351 75.9292 61.3913 75.8325C61.4315 75.7358 61.4519 75.6323 61.4512 75.5278L61.1155 11.6719L60.9928 39.9659C60.9965 40.0068 60.9965 40.048 60.9928 40.0889L55.8801 71.3354C55.8272 71.6574 55.6608 71.951 55.4098 72.1646C55.1588 72.3783 54.8394 72.4984 54.5073 72.5041L10.5594 73.2102C10.3816 73.214 10.21 73.2753 10.0714 73.3848C9.93275 73.4943 9.83485 73.6457 9.7929 73.8154Z" fill="#EDEEF6"/>
</g>
<g filter="url(#filter1_d_2440_19953)">
<path d="M60.987 40.0078L55.7465 72.4008C55.7436 72.4171 55.735 72.4319 55.7222 72.4427C55.7094 72.4535 55.6932 72.4595 55.6763 72.4599L7.13427 73.2103C7.12365 73.2105 7.11311 73.2084 7.10345 73.204C7.09378 73.1997 7.08525 73.1932 7.0785 73.1852C7.07174 73.1771 7.06694 73.1677 7.06445 73.1575C7.06196 73.1474 7.06185 73.1368 7.06413 73.1266L7.7956 69.7289C7.79848 69.7132 7.8068 69.699 7.81913 69.6887C7.83146 69.6784 7.84704 69.6726 7.86323 69.6723L25.8868 69.5517L30.4165 69.5326C30.5079 69.5322 30.5849 69.532 30.6762 69.5289C32.582 69.4641 56.1253 68.096 60.987 40.0078Z" fill="#EDEEF6"/>
</g>
<path d="M35.6374 5.58971C36.8092 5.58971 37.7591 4.65671 37.7591 3.50579C37.7591 2.35488 36.8092 1.42188 35.6374 1.42188C34.4656 1.42188 33.5156 2.35488 33.5156 3.50579C33.5156 4.65671 34.4656 5.58971 35.6374 5.58971Z" fill="#EDEEF6"/>
<path d="M16.0756 18.5H16.1207C16.1207 18.5295 16.1533 18.5246 16.1784 18.5246C16.2034 18.5246 16.2635 18.5246 16.3061 18.5246C16.6245 18.5288 16.94 18.5836 17.2405 18.687C17.5677 18.7815 17.8791 18.9224 18.1648 19.1053C18.5255 19.3235 18.8478 19.5977 19.1192 19.9172C19.3907 20.2337 19.6104 20.5898 19.7705 20.9727C19.8838 21.2531 19.9677 21.5441 20.021 21.8412C20.0436 21.9286 20.0603 22.0173 20.0711 22.1069C20.0968 22.4353 20.0834 22.7656 20.0311 23.091C19.9571 23.4874 19.829 23.8723 19.6503 24.2351C19.3878 24.7458 19.0181 25.1961 18.5656 25.5563C18.5454 25.5769 18.5191 25.5907 18.4905 25.5957C18.453 25.5028 18.4077 25.4131 18.3552 25.3275C18.2542 25.1575 18.1322 25.0005 17.992 24.86C17.8624 24.7298 17.7197 24.6127 17.5661 24.5106C17.3885 24.3986 17.2007 24.3031 17.005 24.2252C16.7995 24.1438 16.5838 24.09 16.3637 24.0653C16.1742 24.0428 15.9829 24.0387 15.7926 24.053C15.5085 24.0787 15.2303 24.1485 14.9684 24.2597C14.7614 24.3478 14.5655 24.4593 14.3848 24.5918C14.2161 24.721 14.0638 24.8697 13.9314 25.0347C13.787 25.2055 13.6703 25.3972 13.5857 25.603C13.5741 25.6011 13.563 25.5969 13.5531 25.5907C13.4479 25.5046 13.3427 25.4185 13.2425 25.325C12.9921 25.0947 12.7755 24.8314 12.5987 24.5426C12.4573 24.3227 12.3406 24.0885 12.2505 23.8439C12.1389 23.5428 12.0641 23.2298 12.0276 22.9114C12.0276 22.8942 12.0276 22.8794 12 22.8794V22.1069C12.0251 22.1069 12.0276 22.0847 12.0301 22.0651C12.0375 21.914 12.0601 21.764 12.0977 21.6173C12.1504 21.3822 12.225 21.1524 12.3206 20.9308C12.5728 20.344 12.9645 19.8251 13.4629 19.4177C13.7127 19.2155 13.987 19.0444 14.2796 18.9084C14.7267 18.6856 15.2167 18.5582 15.7174 18.5344H16.018C16.0406 18.5246 16.0681 18.5295 16.0756 18.5ZM17.491 22.1561C17.4929 21.8728 17.4088 21.5953 17.2494 21.3592C17.09 21.1231 16.8625 20.9391 16.5961 20.8306C16.3296 20.7221 16.0363 20.6941 15.7535 20.7501C15.4708 20.8062 15.2115 20.9438 15.0088 21.1454C14.8061 21.3469 14.6691 21.6033 14.6155 21.8816C14.5619 22.16 14.594 22.4478 14.7077 22.7081C14.8214 22.9685 15.0116 23.1896 15.2539 23.3433C15.4963 23.497 15.7797 23.5762 16.0681 23.5708C16.4471 23.5663 16.809 23.4152 17.0753 23.1504C17.3417 22.8856 17.491 22.5283 17.491 22.1561Z" fill="#DDDDED"/>
<path d="M13.5781 25.6012C13.6628 25.3954 13.7794 25.2036 13.9238 25.0329C14.0569 24.8713 14.2091 24.726 14.3772 24.5998C14.5585 24.4707 14.7543 24.3625 14.9609 24.2775C15.2228 24.1663 15.5009 24.0966 15.785 24.0709C15.9754 24.0565 16.1667 24.0606 16.3562 24.0832C16.5763 24.1079 16.792 24.1617 16.9975 24.2431C17.1931 24.3209 17.381 24.4165 17.5586 24.5285C17.7121 24.6306 17.8548 24.7476 17.9844 24.8779C18.1207 25.0166 18.2393 25.1711 18.3376 25.3379C18.3902 25.4235 18.4354 25.5132 18.4729 25.6061C18.4403 25.6184 18.4504 25.6652 18.4178 25.675C18.3275 25.7131 18.2431 25.7636 18.1673 25.8251C17.9439 25.9586 17.7092 26.073 17.4659 26.1671C17.3853 26.2067 17.3015 26.2396 17.2154 26.2655C16.9924 26.3211 16.7667 26.3655 16.539 26.3984C16.504 26.3984 16.4539 26.3984 16.4439 26.45H15.6122C15.6122 26.4156 15.5821 26.4033 15.5521 26.3984C15.4694 26.3811 15.3842 26.3787 15.3016 26.3541C15.2189 26.3295 15.0661 26.3221 14.9534 26.2901C14.7709 26.2414 14.5925 26.1789 14.4198 26.1031C14.1197 25.9697 13.8371 25.8012 13.5781 25.6012Z" fill="#EDEEF6"/>
<path d="M17.4867 22.1635C17.4842 22.4445 17.3972 22.7185 17.2365 22.9511C17.0759 23.1836 16.8488 23.3643 16.5839 23.4703C16.3189 23.5764 16.0279 23.6032 15.7476 23.5472C15.4672 23.4913 15.2099 23.3551 15.0081 23.1559C14.8063 22.9567 14.669 22.7033 14.6135 22.4276C14.558 22.152 14.5867 21.8663 14.6961 21.6067C14.8055 21.347 14.9906 21.1249 15.2282 20.9683C15.4657 20.8117 15.7452 20.7277 16.0313 20.7267C16.2237 20.7243 16.4146 20.76 16.5928 20.8314C16.7709 20.9029 16.9327 21.0088 17.0684 21.1428C17.2041 21.2768 17.3111 21.4361 17.3829 21.6115C17.4548 21.7868 17.4901 21.9745 17.4867 22.1635Z" fill="#EDEEF6"/>
<path d="M54.9685 20.4766H22.2034C22.1385 20.4766 22.0859 20.5402 22.0859 20.6187V21.3345C22.0859 21.4129 22.1385 21.4766 22.2034 21.4766H54.9685C55.0334 21.4766 55.0859 21.4129 55.0859 21.3345V20.6187C55.0859 20.5402 55.0334 20.4766 54.9685 20.4766Z" fill="#DDDDED"/>
<path d="M49.3254 23.4766H22.2137C22.1431 23.4766 22.0859 23.5378 22.0859 23.6133V24.3398C22.0859 24.4153 22.1431 24.4766 22.2137 24.4766H49.3254C49.396 24.4766 49.4532 24.4153 49.4532 24.3398V23.6133C49.4532 23.5378 49.396 23.4766 49.3254 23.4766Z" fill="#DDDDED"/>
<path d="M18.559 50.4531H13.441C12.6452 50.4531 12 51.0983 12 51.8941V57.0121C12 57.808 12.6452 58.4531 13.441 58.4531H18.559C19.3548 58.4531 20 57.808 20 57.0121V51.8941C20 51.0983 19.3548 50.4531 18.559 50.4531Z" fill="#DDDDED"/>
<path d="M54.6779 52.4688H22.1328C22.0594 52.4688 22 52.5271 22 52.5991V53.325C22 53.397 22.0594 53.4554 22.1328 53.4554H54.6779C54.7512 53.4554 54.8106 53.397 54.8106 53.325V52.5991C54.8106 52.5271 54.7512 52.4688 54.6779 52.4688Z" fill="#DDDDED"/>
<path d="M50.0937 55.4531H22.1328C22.0594 55.4531 22 55.5115 22 55.5835V56.3093C22 56.3813 22.0594 56.4397 22.1328 56.4397H50.0937C50.167 56.4397 50.2264 56.3813 50.2264 56.3093V55.5835C50.2264 55.5115 50.167 55.4531 50.0937 55.4531Z" fill="#DDDDED"/>
<path d="M18.559 34.4531H13.441C12.6452 34.4531 12 35.0983 12 35.8941V41.0121C12 41.808 12.6452 42.4531 13.441 42.4531H18.559C19.3548 42.4531 20 41.808 20 41.0121V35.8941C20 35.0983 19.3548 34.4531 18.559 34.4531Z" fill="#DDDDED"/>
<path d="M54.6779 36.4688H22.1328C22.0594 36.4688 22 36.5271 22 36.5991V37.325C22 37.397 22.0594 37.4554 22.1328 37.4554H54.6779C54.7512 37.4554 54.8106 37.397 54.8106 37.325V36.5991C54.8106 36.5271 54.7512 36.4688 54.6779 36.4688Z" fill="#DDDDED"/>
<path d="M50.0937 39.4531H22.1328C22.0594 39.4531 22 39.5115 22 39.5835V40.3093C22 40.3813 22.0594 40.4397 22.1328 40.4397H50.0937C50.167 40.4397 50.2264 40.3813 50.2264 40.3093V39.5835C50.2264 39.5115 50.167 39.4531 50.0937 39.4531Z" fill="#DDDDED"/>
<g filter="url(#filter2_d_2440_19953)">
<path d="M25.1601 69.5329C28.8933 68.1752 38.9475 63.2679 42.6912 48.9413C42.7984 48.5434 43.0471 48.1958 43.3927 47.9607C43.7383 47.7255 44.1583 47.6183 44.5775 47.658C48.0795 47.9712 56.6782 47.9147 60.5349 40.6282C60.5622 40.5779 60.6068 40.5387 60.6609 40.5174C60.715 40.4962 60.775 40.4943 60.8303 40.5121C60.8857 40.5299 60.9328 40.5663 60.9634 40.6148C60.9939 40.6633 61.0059 40.7208 60.9973 40.7771C59.815 47.309 53.6596 69.9897 25.2468 70C25.189 70 25.133 69.9801 25.0886 69.9439C25.0442 69.9077 25.0143 69.8574 25.004 69.8018C24.9936 69.7462 25.0036 69.6888 25.0322 69.6397C25.0607 69.5905 25.106 69.5527 25.1601 69.5329Z" fill="#EDEEF6"/>
</g>
<defs>
<filter id="filter0_d_2440_19953" x="5.39062" y="11.6719" width="60.0625" height="72.6562" filterUnits="userSpaceOnUse" color-interpolation-filters="sRGB">
<feFlood flood-opacity="0" result="BackgroundImageFix"/>
<feColorMatrix in="SourceAlpha" type="matrix" values="0 0 0 0 0 0 0 0 0 0 0 0 0 0 0 0 0 0 127 0" result="hardAlpha"/>
<feOffset dy="4"/>
<feGaussianBlur stdDeviation="2"/>
<feComposite in2="hardAlpha" operator="out"/>
<feColorMatrix type="matrix" values="0 0 0 0 0 0 0 0 0 0 0 0 0 0 0 0 0 0 0.25 0"/>
<feBlend mode="normal" in2="BackgroundImageFix" result="effect1_dropShadow_2440_19953"/>
<feBlend mode="normal" in="SourceGraphic" in2="effect1_dropShadow_2440_19953" result="shape"/>
</filter>
<filter id="filter1_d_2440_19953" x="3.0625" y="40.0078" width="61.9219" height="41.2031" filterUnits="userSpaceOnUse" color-interpolation-filters="sRGB">
<feFlood flood-opacity="0" result="BackgroundImageFix"/>
<feColorMatrix in="SourceAlpha" type="matrix" values="0 0 0 0 0 0 0 0 0 0 0 0 0 0 0 0 0 0 127 0" result="hardAlpha"/>
<feOffset dy="4"/>
<feGaussianBlur stdDeviation="2"/>
<feComposite in2="hardAlpha" operator="out"/>
<feColorMatrix type="matrix" values="0 0 0 0 0 0 0 0 0 0 0 0 0 0 0 0 0 0 0.25 0"/>
<feBlend mode="normal" in2="BackgroundImageFix" result="effect1_dropShadow_2440_19953"/>
<feBlend mode="normal" in="SourceGraphic" in2="effect1_dropShadow_2440_19953" result="shape"/>
</filter>
<filter id="filter2_d_2440_19953" x="21" y="40.5" width="44" height="37.5" filterUnits="userSpaceOnUse" color-interpolation-filters="sRGB">
<feFlood flood-opacity="0" result="BackgroundImageFix"/>
<feColorMatrix in="SourceAlpha" type="matrix" values="0 0 0 0 0 0 0 0 0 0 0 0 0 0 0 0 0 0 127 0" result="hardAlpha"/>
<feOffset dy="4"/>
<feGaussianBlur stdDeviation="2"/>
<feComposite in2="hardAlpha" operator="out"/>
<feColorMatrix type="matrix" values="0 0 0 0 0 0 0 0 0 0 0 0 0 0 0 0 0 0 0.25 0"/>
<feBlend mode="normal" in2="BackgroundImageFix" result="effect1_dropShadow_2440_19953"/>
<feBlend mode="normal" in="SourceGraphic" in2="effect1_dropShadow_2440_19953" result="shape"/>
</filter>
</defs>
</svg>
