<svg width="161" height="200" viewBox="0 0 161 200" fill="none" xmlns="http://www.w3.org/2000/svg">
<path d="M85.4669 200.008C124.113 200.008 155.442 197.993 155.442 195.508C155.442 193.023 124.113 191.008 85.4669 191.008C46.8209 191.008 15.4922 193.023 15.4922 195.508C15.4922 197.993 46.8209 200.008 85.4669 200.008Z" fill="#DDDDED"/>
<path d="M124.988 2.54632L13.4578 43.3454C9.61513 44.7511 7.62503 49.045 9.01283 52.9362L32.5397 118.901C33.9274 122.792 38.1676 124.807 42.0103 123.401L153.54 82.6024C157.383 81.1967 159.373 76.9028 157.985 73.0116L134.458 7.04659C133.07 3.15545 128.83 1.14061 124.988 2.54632Z" fill="#9991BF"/>
<path d="M127.853 47.1556L7.97842 65.3861C3.8482 66.0142 0.991849 69.8406 1.59858 73.9326L11.8842 143.302C12.4909 147.394 16.331 150.202 20.4612 149.574L140.335 131.343C144.465 130.715 147.322 126.889 146.715 122.797L136.429 53.4274C135.823 49.3355 131.983 46.5275 127.853 47.1556Z" fill="#BBB8D6"/>
<path d="M135.5 159.008C146.546 159.008 155.5 150.054 155.5 139.008C155.5 127.962 146.546 119.008 135.5 119.008C124.454 119.008 115.5 127.962 115.5 139.008C115.5 150.054 124.454 159.008 135.5 159.008Z" fill="#473289"/>
<path d="M126 139.935L132 145.935L144 133.078" stroke="white" stroke-width="2.25" stroke-linecap="round" stroke-linejoin="round"/>
<path d="M124.228 58.4694L114.371 59.9686C112.725 60.2189 111.589 61.757 111.833 63.4041L113.295 73.2667C113.539 74.9137 115.072 76.0459 116.718 75.7956L126.575 74.2964C128.221 74.046 129.357 72.5079 129.113 70.8609L127.651 60.9983C127.407 59.3513 125.874 58.2191 124.228 58.4694Z" fill="#F3F4F9"/>
<path d="M51.9142 119.261L23.0606 123.649C22.1556 123.787 21.5321 124.642 21.668 125.558L21.7969 126.428C21.9328 127.344 22.7767 127.976 23.6817 127.838L52.5353 123.45C53.4403 123.312 54.0639 122.458 53.9279 121.541L53.799 120.672C53.6631 119.755 52.8193 119.124 51.9142 119.261Z" fill="#F3F4F9"/>
<path d="M71.4167 124.875L24.732 131.975C23.5899 132.148 22.8031 133.227 22.9746 134.383C23.1461 135.54 24.211 136.337 25.3531 136.163L72.0378 129.064C73.1799 128.89 73.9667 127.811 73.7951 126.655C73.6236 125.498 72.5588 124.701 71.4167 124.875Z" fill="#F3F4F9"/>
</svg>
