<svg width="159" height="200" viewBox="0 0 159 200" fill="none" xmlns="http://www.w3.org/2000/svg">
<path d="M87.6641 200C122.458 200 150.664 197.985 150.664 195.5C150.664 193.015 122.458 191 87.6641 191C52.8701 191 24.6641 193.015 24.6641 195.5C24.6641 197.985 52.8701 200 87.6641 200Z" fill="#DDDDED"/>
<path d="M9.39255 30.4849L61.3965 21.9441C63.693 21.5668 66.0479 22.0835 67.9686 23.3861L72.0477 26.1574L114.063 54.6798C115.065 55.3595 115.917 56.2327 116.569 57.2468C117.221 58.261 117.66 59.3952 117.858 60.5813L132.311 146.885C132.702 149.22 132.14 151.613 130.749 153.538C129.359 155.463 127.253 156.762 124.895 157.149L33.1281 172.22C30.77 172.607 28.3532 172.051 26.4091 170.674C24.465 169.297 23.1529 167.212 22.7612 164.876L1.97435 40.7493C1.58392 38.414 2.14609 36.0208 3.53722 34.0959C4.92834 32.171 7.03451 30.8721 9.39255 30.4849Z" fill="#9991BF"/>
<path d="M47.3163 0H100.033C102.36 0.00036893 104.598 0.892571 106.276 2.48975L109.845 5.88465L146.582 40.8276C147.457 41.661 148.154 42.661 148.63 43.7675C149.105 44.874 149.351 46.0643 149.351 47.2669V134.747C149.351 137.114 148.401 139.385 146.71 141.059C145.02 142.733 142.727 143.673 140.337 143.673H47.3163C44.926 143.673 42.6339 142.732 40.944 141.058C39.254 139.384 38.3047 137.114 38.3047 134.747V8.93862C38.3031 7.76555 38.535 6.60368 38.9871 5.51942C39.4393 4.43516 40.1028 3.44979 40.9397 2.61964C41.7766 1.78948 42.7706 1.13083 43.8647 0.681332C44.9588 0.231836 46.1317 0.00031445 47.3163 0Z" fill="#DDDDED"/>
<path d="M104.734 35.951L104.908 3.49682C104.912 2.76596 105.788 2.39426 106.316 2.89939L146.567 41.3901C147.114 41.9128 146.737 42.8345 145.981 42.8247L111.063 42.3715C109.371 42.3492 107.756 41.6618 106.57 40.4591C105.385 39.2564 104.725 37.636 104.734 35.951Z" fill="#9991BF"/>
<path d="M136.204 163.819C148.519 163.819 158.502 153.933 158.502 141.738C158.502 129.542 148.519 119.656 136.204 119.656C123.889 119.656 113.906 129.542 113.906 141.738C113.906 153.933 123.889 163.819 136.204 163.819Z" fill="#473289"/>
<path d="M144 133.25H130.25H134C135.326 133.25 136.598 133.777 137.536 134.714C138.473 135.652 139 136.924 139 138.25C139 139.576 138.473 140.848 137.536 141.786C136.598 142.723 135.326 143.25 134 143.25H130.25L137.75 150.75M130.25 138.25H144" stroke="white" stroke-width="2.91667" stroke-linecap="round" stroke-linejoin="round"/>
<path d="M134.553 68.4609H53.0328C52.1129 68.4609 51.3672 69.2067 51.3672 70.1265V72.081C51.3672 73.0009 52.1129 73.7466 53.0328 73.7466H134.553C135.473 73.7466 136.219 73.0009 136.219 72.081V70.1265C136.219 69.2067 135.473 68.4609 134.553 68.4609Z" fill="#BBB8D6"/>
<path d="M134.553 83.7422H53.0328C52.1129 83.7422 51.3672 84.4879 51.3672 85.4078V87.3623C51.3672 88.2821 52.1129 89.0279 53.0328 89.0279H134.553C135.473 89.0279 136.219 88.2821 136.219 87.3623V85.4078C136.219 84.4879 135.473 83.7422 134.553 83.7422Z" fill="#BBB8D6"/>
<path d="M134.553 99.0156H53.0328C52.1129 99.0156 51.3672 99.7613 51.3672 100.681V102.636C51.3672 103.556 52.1129 104.301 53.0328 104.301H134.553C135.473 104.301 136.219 103.556 136.219 102.636V100.681C136.219 99.7613 135.473 99.0156 134.553 99.0156Z" fill="#BBB8D6"/>
<path d="M134.553 114.297H53.0328C52.1129 114.297 51.3672 115.043 51.3672 115.962V117.917C51.3672 118.837 52.1129 119.583 53.0328 119.583H134.553C135.473 119.583 136.219 118.837 136.219 117.917V115.962C136.219 115.043 135.473 114.297 134.553 114.297Z" fill="#BBB8D6"/>
</svg>
