<svg width="161" height="200" viewBox="0 0 161 200" fill="none" xmlns="http://www.w3.org/2000/svg">
<path d="M85.4669 200C124.113 200 155.442 197.985 155.442 195.5C155.442 193.015 124.113 191 85.4669 191C46.8209 191 15.4922 193.015 15.4922 195.5C15.4922 197.985 46.8209 200 85.4669 200Z" fill="#DDDDED"/>
<path d="M124.988 7.54371L13.4578 48.3452C9.61513 49.751 7.6252 54.0457 9.01321 57.9377L32.5436 123.917C33.9316 127.809 38.1719 129.824 42.0147 128.418L153.544 87.6168C157.387 86.211 159.377 81.9163 157.989 78.0243L134.459 12.0453C133.071 8.15335 128.83 6.13791 124.988 7.54371Z" fill="#9991BF"/>
<path d="M83.4766 40C94.5223 40 103.477 31.0457 103.477 20C103.477 8.9543 94.5223 0 83.4766 0C72.4309 0 63.4766 8.9543 63.4766 20C63.4766 31.0457 72.4309 40 83.4766 40Z" fill="#473289"/>
<path d="M88.0666 17H86.4766V12C86.4766 11.45 86.0266 11 85.4766 11H81.4766C80.9266 11 80.4766 11.45 80.4766 12V17H78.8866C77.9966 17 77.5466 18.08 78.1766 18.71L82.7666 23.3C83.1566 23.69 83.7866 23.69 84.1766 23.3L88.7666 18.71C89.3966 18.08 88.9566 17 88.0666 17ZM76.4766 27C76.4766 27.55 76.9266 28 77.4766 28H89.4766C90.0266 28 90.4766 27.55 90.4766 27C90.4766 26.45 90.0266 26 89.4766 26H77.4766C76.9266 26 76.4766 26.45 76.4766 27Z" fill="white"/>
<path d="M127.852 47.1388L7.97842 65.3704C3.8482 65.9986 0.991849 69.8252 1.59858 73.9174L11.8842 143.291C12.4909 147.383 16.331 150.191 20.4612 149.563L140.335 131.331C144.465 130.703 147.322 126.877 146.715 122.784L136.429 53.411C135.823 49.3188 131.983 46.5107 127.852 47.1388Z" fill="#BBB8D6"/>
<path d="M154.15 91H103.45C100.164 91 97.5 94.0028 97.5 97.7069V164.043C97.5 167.747 100.164 170.75 103.45 170.75H154.15C157.436 170.75 160.1 167.747 160.1 164.043V97.7069C160.1 94.0028 157.436 91 154.15 91Z" fill="#DDDDED"/>
<g clip-path="url(#clip0_2894_20838)">
<path fill-rule="evenodd" clip-rule="evenodd" d="M128.5 105C122.977 105 118.5 109.477 118.5 115C118.5 120.523 122.977 125 128.5 125C134.023 125 138.5 120.523 138.5 115C138.5 109.477 134.023 105 128.5 105ZM125 112.5C125 112.04 125.091 111.585 125.266 111.161C125.442 110.736 125.7 110.35 126.025 110.025C126.35 109.7 126.736 109.442 127.161 109.266C127.585 109.091 128.04 109 128.5 109C128.96 109 129.415 109.091 129.839 109.266C130.264 109.442 130.65 109.7 130.975 110.025C131.3 110.35 131.558 110.736 131.734 111.161C131.909 111.585 132 112.04 132 112.5C132 113.428 131.631 114.318 130.975 114.975C130.318 115.631 129.428 116 128.5 116C127.572 116 126.682 115.631 126.025 114.975C125.369 114.318 125 113.428 125 112.5ZM134.758 119.984C134.009 120.926 133.058 121.686 131.974 122.208C130.891 122.73 129.703 123.001 128.5 123C127.297 123.001 126.109 122.73 125.026 122.208C123.942 121.686 122.991 120.926 122.242 119.984C123.863 118.821 126.075 118 128.5 118C130.925 118 133.137 118.821 134.758 119.984Z" fill="white"/>
</g>
<path d="M144.834 148H109.166C108.246 148 107.5 148.746 107.5 149.666V150.334C107.5 151.254 108.246 152 109.166 152H144.834C145.754 152 146.5 151.254 146.5 150.334V149.666C146.5 148.746 145.754 148 144.834 148Z" fill="#AAA5CB"/>
<path d="M134.834 156H109.166C108.246 156 107.5 156.746 107.5 157.666V158.334C107.5 159.254 108.246 160 109.166 160H134.834C135.754 160 136.5 159.254 136.5 158.334V157.666C136.5 156.746 135.754 156 134.834 156Z" fill="#AAA5CB"/>
<path d="M124.228 58.4538L114.371 59.9529C112.725 60.2033 111.589 61.7414 111.833 63.3884L113.295 73.2511C113.539 74.8981 115.072 76.0303 116.718 75.7799L126.575 74.2808C128.221 74.0304 129.357 72.4923 129.113 70.8453L127.651 60.9827C127.407 59.3357 125.874 58.2034 124.228 58.4538Z" fill="#F3F4F9"/>
<path d="M51.9142 119.253L23.0606 123.641C22.1556 123.779 21.532 124.634 21.668 125.55L21.7969 126.42C21.9328 127.336 22.7766 127.968 23.6817 127.83L52.5352 123.442C53.4403 123.304 54.0638 122.45 53.9279 121.533L53.799 120.664C53.6631 119.747 52.8192 119.115 51.9142 119.253Z" fill="#F3F4F9"/>
<path d="M71.4166 124.866L24.732 131.967C23.5899 132.14 22.8031 133.219 22.9746 134.376C23.1461 135.532 24.211 136.329 25.3531 136.156L72.0377 129.055C73.1797 128.882 73.9666 127.803 73.7951 126.646C73.6236 125.49 72.5587 124.693 71.4166 124.866Z" fill="#F3F4F9"/>
<defs>
<clipPath id="clip0_2894_20838">
<rect width="24" height="24" fill="white" transform="translate(116.5 103)"/>
</clipPath>
</defs>
</svg>
