<svg width="181" height="200" viewBox="0 0 181 200" fill="none" xmlns="http://www.w3.org/2000/svg">
<path d="M87.1641 200C121.958 200 150.164 197.985 150.164 195.5C150.164 193.015 121.958 191 87.1641 191C52.3701 191 24.1641 193.015 24.1641 195.5C24.1641 197.985 52.3701 200 87.1641 200Z" fill="#DDDDED"/>
<path d="M8.89255 30.4849L60.8965 21.9441C63.193 21.5668 65.5479 22.0835 67.4686 23.3861L71.5477 26.1574L113.563 54.6798C114.565 55.3595 115.417 56.2327 116.069 57.2468C116.721 58.261 117.16 59.3952 117.358 60.5813L131.811 146.885C132.202 149.22 131.64 151.613 130.249 153.538C128.859 155.463 126.753 156.762 124.395 157.149L32.6281 172.22C30.27 172.607 27.8532 172.051 25.9091 170.674C23.965 169.297 22.6529 167.212 22.2612 164.876L1.47435 40.7493C1.08392 38.414 1.64609 36.0208 3.03722 34.0959C4.42834 32.171 6.53451 30.8721 8.89255 30.4849Z" fill="#9991BF"/>
<path d="M46.8163 0H99.5329C101.86 0.00036893 104.098 0.892571 105.776 2.48975L109.345 5.88465L146.082 40.8276C146.957 41.661 147.654 42.661 148.13 43.7675C148.605 44.874 148.851 46.0643 148.851 47.2669V134.747C148.851 137.114 147.901 139.385 146.21 141.059C144.52 142.733 142.227 143.673 139.837 143.673H46.8163C44.426 143.673 42.1339 142.732 40.444 141.058C38.754 139.384 37.8047 137.114 37.8047 134.747V8.93862C37.8031 7.76555 38.035 6.60368 38.4871 5.51942C38.9393 4.43516 39.6028 3.44979 40.4397 2.61964C41.2766 1.78948 42.2706 1.13083 43.3647 0.681332C44.4588 0.231836 45.6317 0.00031445 46.8163 0Z" fill="#DDDDED"/>
<path d="M104.234 35.951L104.408 3.49682C104.412 2.76596 105.288 2.39426 105.816 2.89939L146.067 41.3901C146.614 41.9128 146.237 42.8345 145.481 42.8247L110.563 42.3715C108.871 42.3492 107.256 41.6618 106.07 40.4591C104.885 39.2564 104.225 37.636 104.234 35.951Z" fill="#9991BF"/>
<path d="M178.457 91.542C177.139 90.2235 175.061 90.1627 173.65 91.323L173.028 90.7012L171.327 92.412L171.471 92.5575L170.866 93.123L170.729 92.991C169.432 91.6927 167.937 90.3465 165.948 91.1505C163.241 92.2477 161.948 98.1052 160.451 100.321C159.144 102.249 155.867 104.29 152.937 105.829C153.083 105.973 153.372 106.407 153.564 106.456C154.378 106.096 155.208 105.776 156.014 105.401C157.697 104.619 159.335 103.708 160.782 102.537C163.745 100.139 164.939 92.9497 167.053 92.8087C167.937 92.745 168.801 93.5662 169.533 94.3702L154.221 108.688L154.825 109.292L140.055 124.087L135.414 132.277L136.028 132.891L134.709 134.641C134.485 134.905 134.433 135.251 134.592 135.411C134.749 135.566 135.096 135.514 135.358 135.288L137.11 133.974L137.723 134.586L145.913 129.946L160.684 115.15L160.696 115.162L161.313 115.779L177.432 98.5177L177.597 98.682L179.297 96.9712L178.677 96.3502C179.838 94.9395 179.775 92.8612 178.457 91.542ZM137.85 133.653L136.348 132.151L140.222 125.315L144.686 129.78L137.85 133.653ZM161.313 114.719L155.285 108.69L156.408 107.58L162.43 113.601L161.313 114.719ZM177.595 97.62L172.386 92.4112L173.03 91.764L178.237 96.9727L177.595 97.62Z" fill="#473289"/>
<path d="M134.053 68.4609H52.5328C51.6129 68.4609 50.8672 69.2067 50.8672 70.1265V72.081C50.8672 73.0009 51.6129 73.7466 52.5328 73.7466H134.053C134.973 73.7466 135.719 73.0009 135.719 72.081V70.1265C135.719 69.2067 134.973 68.4609 134.053 68.4609Z" fill="#BBB8D6"/>
<path d="M134.053 83.7422H52.5328C51.6129 83.7422 50.8672 84.4879 50.8672 85.4078V87.3623C50.8672 88.2821 51.6129 89.0279 52.5328 89.0279H134.053C134.973 89.0279 135.719 88.2821 135.719 87.3623V85.4078C135.719 84.4879 134.973 83.7422 134.053 83.7422Z" fill="#BBB8D6"/>
<path d="M134.053 99.0156H52.5328C51.6129 99.0156 50.8672 99.7613 50.8672 100.681V102.636C50.8672 103.556 51.6129 104.301 52.5328 104.301H134.053C134.973 104.301 135.719 103.556 135.719 102.636V100.681C135.719 99.7613 134.973 99.0156 134.053 99.0156Z" fill="#BBB8D6"/>
<path d="M134.053 114.297H52.5328C51.6129 114.297 50.8672 115.043 50.8672 115.962V117.917C50.8672 118.837 51.6129 119.583 52.5328 119.583H134.053C134.973 119.583 135.719 118.837 135.719 117.917V115.962C135.719 115.043 134.973 114.297 134.053 114.297Z" fill="#BBB8D6"/>
</svg>
