<svg width="24" height="24" viewBox="0 0 24 24" fill="none" xmlns="http://www.w3.org/2000/svg">
<g clip-path="url(#clip0_2978_67919)">
<path d="M8.90625 2.33594V21.6469H19.8572C20.2357 21.6469 20.6811 21.3627 20.6811 20.8214V3.15862C20.6811 2.67163 20.4704 2.33594 20.0061 2.33594H8.90625Z" fill="#473289"/>
<path d="M4.78125 3.11508V4.26365H6.06971C6.46634 4.26365 6.78572 4.61851 6.78572 5.05921V5.82548C6.78572 6.26618 6.46634 6.62104 6.06971 6.62104H4.78125V10.8319H6.06971C6.46634 10.8319 6.78572 11.1868 6.78572 11.6275V12.3938C6.78572 12.8345 6.46634 13.1893 6.06971 13.1893H4.78125V17.4002H6.06971C6.46634 17.4002 6.78572 17.7551 6.78572 18.1958V18.962C6.78572 19.4027 6.46634 19.7569 6.06971 19.7569H4.78125V20.6472C4.78125 21.3602 5.16434 21.6469 5.70137 21.6469H8.90678V2.33594H5.50541C4.98886 2.33594 4.78125 2.57308 4.78125 3.11508Z" fill="#D8D7E8"/>
<path d="M4.02851 4.26562C3.63188 4.26562 3.3125 4.62049 3.3125 5.06119V5.82745C3.3125 6.26815 3.63188 6.62302 4.02851 6.62302H6.06989C6.46652 6.62302 6.78589 6.26815 6.78589 5.82745V5.06119C6.78589 4.62049 6.46652 4.26562 6.06989 4.26562H4.02851ZM4.02851 10.8339C3.63188 10.8339 3.3125 11.1888 3.3125 11.6295V12.3957C3.3125 12.8364 3.63188 13.1913 4.02851 13.1913H6.06989C6.46652 13.1913 6.78589 12.8364 6.78589 12.3957V11.6295C6.78589 11.1888 6.46652 10.8339 6.06989 10.8339H4.02851ZM4.02851 17.4022C3.63188 17.4022 3.3125 17.757 3.3125 18.1977V18.964C3.3125 19.4047 3.63188 19.7589 4.02851 19.7589H6.06989C6.46652 19.7589 6.78589 19.4047 6.78589 18.964V18.1977C6.78589 17.757 6.46652 17.4022 6.06989 17.4022H4.02851Z" fill="#473289"/>
<path d="M17.1833 4.91406H12.2623C11.8672 4.91406 11.5469 5.26998 11.5469 5.70902V8.15564C11.5469 8.59468 11.8672 8.9506 12.2623 8.9506H17.1833C17.5784 8.9506 17.8987 8.59468 17.8987 8.15564V5.70902C17.8987 5.26998 17.5784 4.91406 17.1833 4.91406Z" fill="#D8D7E8"/>
</g>
<defs>
<clipPath id="clip0_2978_67919">
<rect width="18" height="20" fill="white" transform="translate(3 2)"/>
</clipPath>
</defs>
</svg>
