<svg width="20" height="20" viewBox="0 0 20 20" fill="none" xmlns="http://www.w3.org/2000/svg">
<g clip-path="url(#clip0_1480_10369)">
<path d="M5.44358 10.1146H5.11024V10.4479V11.8257H4.88802V9.89236H9.55469H9.88802V9.55903V8.11458H10.1102V9.55903V9.89236H10.4436H15.1102V11.8257H14.888V10.4479V10.1146H14.5547H5.44358Z" fill="#4B5563" stroke="#4B5563" stroke-width="0.666667"/>
<path d="M7.77604 12.7812H2.22049C1.9258 12.7812 1.64319 12.8983 1.43481 13.1067C1.22644 13.3151 1.10938 13.5977 1.10938 13.8924V17.2257C1.10938 17.5204 1.22644 17.803 1.43481 18.0114C1.64319 18.2197 1.9258 18.3368 2.22049 18.3368H7.77604C8.07073 18.3368 8.35334 18.2197 8.56172 18.0114C8.77009 17.803 8.88715 17.5204 8.88715 17.2257V13.8924C8.88715 13.5977 8.77009 13.3151 8.56172 13.1067C8.35334 12.8983 8.07073 12.7812 7.77604 12.7812ZM2.22049 17.2257V13.8924H7.77604V17.2257H2.22049Z" fill="#4B5563"/>
<path d="M17.776 12.7812H12.2205C11.9258 12.7812 11.6432 12.8983 11.4348 13.1067C11.2264 13.3151 11.1094 13.5977 11.1094 13.8924V17.2257C11.1094 17.5204 11.2264 17.803 11.4348 18.0114C11.6432 18.2197 11.9258 18.3368 12.2205 18.3368H17.776C18.0707 18.3368 18.3533 18.2197 18.5617 18.0114C18.7701 17.803 18.8872 17.5204 18.8872 17.2257V13.8924C18.8872 13.5977 18.7701 13.3151 18.5617 13.1067C18.3533 12.8983 18.0707 12.7812 17.776 12.7812ZM12.2205 17.2257V13.8924H17.776V17.2257H12.2205Z" fill="#4B5563"/>
<path d="M7.22049 7.21962H12.776C13.0707 7.21962 13.3533 7.10255 13.5617 6.89418C13.7701 6.68581 13.8872 6.40319 13.8872 6.10851V2.77517C13.8872 2.48049 13.7701 2.19787 13.5617 1.9895C13.3533 1.78113 13.0707 1.66406 12.776 1.66406H7.22049C6.9258 1.66406 6.64319 1.78113 6.43481 1.9895C6.22644 2.19787 6.10938 2.48049 6.10938 2.77517V6.10851C6.10938 6.40319 6.22644 6.68581 6.43481 6.89418C6.64319 7.10255 6.9258 7.21962 7.22049 7.21962ZM7.22049 2.77517H12.776V6.10851H7.22049V2.77517Z" fill="#4B5563"/>
</g>
<defs>
<clipPath id="clip0_1480_10369">
<rect width="20" height="20" fill="white"/>
</clipPath>
</defs>
</svg>
