<svg width="20" height="20" viewBox="0 0 20 20" fill="none" xmlns="http://www.w3.org/2000/svg">
<path d="M10.5713 14.5H10.0713V15V16.6667V17.1667H10.5713H13.1667C13.2551 17.1667 13.3399 17.2018 13.4024 17.2643C13.4649 17.3268 13.5001 17.4116 13.5001 17.5C13.5001 17.5884 13.4649 17.6732 13.4024 17.7357C13.3399 17.7982 13.2551 17.8333 13.1667 17.8333H6.50006C6.41165 17.8333 6.32687 17.7982 6.26436 17.7357C6.20184 17.6732 6.16672 17.5884 6.16672 17.5C6.16672 17.4116 6.20184 17.3268 6.26436 17.2643C6.32687 17.2018 6.41165 17.1667 6.50006 17.1667H9.42724H9.92724V16.6667V15V14.5H9.42724H3.16672C2.90362 14.5 2.64967 14.4111 2.44503 14.25H2.75006H16.9167H17.2217C17.0171 14.4111 16.7632 14.5 16.5001 14.5H10.5713ZM17.6667 13.3333C17.6667 13.5964 17.5778 13.8504 17.4167 14.055V13.75V3.75V3.44497C17.5778 3.64961 17.6667 3.90356 17.6667 4.16667V13.3333ZM17.2218 3.25H16.9167H2.75006H2.44503C2.64967 3.08887 2.90362 3 3.16672 3H16.5001C16.7632 3 17.0171 3.08887 17.2218 3.25ZM2.00006 4.16667C2.00006 3.90356 2.08893 3.64962 2.25006 3.44497V3.75V13.75V14.055C2.08893 13.8504 2.00006 13.5964 2.00006 13.3333V4.16667Z" fill="#4B5563" stroke="#4B5563"/>
</svg>
