<svg width="60" height="60" viewBox="0 0 60 60" fill="none" xmlns="http://www.w3.org/2000/svg">
<path d="M54.5625 3V48.9375H5.4375V12.9375L18.375 0H51.6562C53.25 0 54.5625 1.40625 54.5625 3Z" fill="#E9E9E9"/>
<path d="M15.6563 12.9375H5.53125L18.375 0L18.2812 10.125C18.375 11.7188 17.1563 12.9375 15.6563 12.9375Z" fill="#C1C1C1"/>
<path d="M34.7812 26.2513C32.0625 23.6263 30.0937 20.6263 30.0937 20.6263C30.8437 19.5013 32.625 13.0325 29.9062 11.1575C27.1875 9.28253 25.7812 12.7513 25.7812 12.7513C24.5625 17.0638 27.4687 21.0013 27.4687 21.0013L24.1875 28.22C23.8125 28.22 13.4063 32.2513 16.9688 37.22C20.625 42.1888 25.6875 30.1888 25.6875 30.1888C27.6562 29.5325 33.6562 28.6888 33.6562 28.6888C36 31.8763 38.8125 32.9075 38.8125 32.9075C43.125 34.0325 43.5938 30.47 43.5938 30.47C43.6875 25.7825 34.7812 26.2513 34.7812 26.2513ZM18.75 35.5325C18.6562 35.5325 18.6562 35.4388 18.6562 35.4388C18.0938 34.1263 22.4062 31.595 22.4062 31.595C22.4062 31.595 20.0625 36.095 18.75 35.5325ZM28.5 12.845C29.7188 13.97 28.6875 17.8138 28.6875 17.8138C28.6875 17.8138 27.2812 13.97 28.5 12.845ZM27.375 27.3763L29.0625 23.2513L31.6875 26.4388L27.375 27.3763ZM41.25 30.3763C40.5 31.595 37.4062 28.97 37.125 28.6888C37.5937 28.6888 41.625 28.97 41.25 30.3763ZM54.5625 45.9388V57.0013C54.5625 58.595 53.25 60.0013 51.5625 60.0013H8.34375C6.75 60.0013 5.34375 58.6888 5.34375 57.0013V45.9388H54.5625Z" fill="#D24625"/>
<path d="M26.1562 50.8125C26.1562 51.5625 25.875 52.125 25.4062 52.5937C24.9375 52.9687 24.1875 53.1562 23.25 53.1562H22.5V55.875H21.2812V48.6562H23.4375C24.375 48.6562 25.0312 48.8437 25.5 49.2187C25.9688 49.5937 26.1562 50.0625 26.1562 50.8125ZM22.5937 52.2187H23.25C23.8125 52.2187 24.2812 52.125 24.5625 51.9375C24.8438 51.75 25.0312 51.375 25.0312 50.9062C25.0312 50.5312 24.9375 50.1562 24.6562 49.9687C24.375 49.7812 24 49.6875 23.4375 49.6875H22.5937V52.2187ZM33.5625 52.2187C33.5625 53.4375 33.1875 54.375 32.5312 54.9375C31.875 55.5937 30.9375 55.875 29.625 55.875H27.5625V48.6562H29.8125C30.9375 48.6562 31.875 48.9375 32.5312 49.5938C33.1875 50.1562 33.5625 51.0937 33.5625 52.2187ZM32.25 52.2187C32.25 50.4375 31.4062 49.5938 29.8125 49.5938H28.7812V54.8437H29.625C31.4062 54.9375 32.25 54 32.25 52.2187ZM36.2812 55.875H35.0625V48.6562H39.1875V49.6875H36.2812V51.9375H39V52.9687H36.2812V55.875Z" fill="#EFF2F3"/>
</svg>
