<svg width="24" height="24" viewBox="0 0 24 24" fill="none" xmlns="http://www.w3.org/2000/svg">
<path d="M17.7866 10.8959V19.4548C17.7866 19.6743 17.6994 19.8848 17.5442 20.04C17.389 20.1952 17.1785 20.2824 16.9591 20.2824H4.54526C4.32577 20.2824 4.11527 20.1952 3.96007 20.04C3.80486 19.8848 3.71767 19.6743 3.71767 19.4548V9.52377H9.79464L14.761 4.55825H4.54526C3.17643 4.55825 2.0625 5.67218 2.0625 7.04101V19.4548C2.0625 20.8236 3.17643 21.9376 4.54526 21.9376H16.9591C18.3279 21.9376 19.4418 20.8236 19.4418 19.4548V9.2399L17.7866 10.8959ZM20.2777 6.0628L21.4479 4.89259C21.606 4.73991 21.7321 4.55727 21.8188 4.35533C21.9056 4.15339 21.9512 3.9362 21.9531 3.71643C21.955 3.49666 21.9132 3.2787 21.8299 3.07529C21.7467 2.87188 21.6238 2.68707 21.4684 2.53166C21.313 2.37626 21.1282 2.25335 20.9248 2.17013C20.7214 2.08691 20.5034 2.04503 20.2836 2.04694C20.0639 2.04885 19.8467 2.09451 19.6447 2.18125C19.4428 2.268 19.2602 2.39409 19.1075 2.55218L17.9373 3.72239L20.2777 6.0628Z" fill="#8A7EB5"/>
<path d="M16.7651 4.89062L10.9141 10.7425L10.3281 13.6688L13.2545 13.0829L19.1063 7.23187L16.7651 4.89062Z" fill="#473289"/>
</svg>
