<svg width="20" height="14" viewBox="0 0 20 14" fill="none" xmlns="http://www.w3.org/2000/svg">
<path d="M10.0026 4.5C9.33956 4.5 8.70368 4.76339 8.23484 5.23223C7.766 5.70107 7.5026 6.33696 7.5026 7C7.5026 7.66304 7.766 8.29893 8.23484 8.76777C8.70368 9.23661 9.33956 9.5 10.0026 9.5C10.6656 9.5 11.3015 9.23661 11.7704 8.76777C12.2392 8.29893 12.5026 7.66304 12.5026 7C12.5026 6.33696 12.2392 5.70107 11.7704 5.23223C11.3015 4.76339 10.6656 4.5 10.0026 4.5ZM10.0026 11.1667C8.89754 11.1667 7.83773 10.7277 7.05633 9.94628C6.27492 9.16488 5.83594 8.10507 5.83594 7C5.83594 5.89493 6.27492 4.83512 7.05633 4.05372C7.83773 3.27232 8.89754 2.83333 10.0026 2.83333C11.1077 2.83333 12.1675 3.27232 12.9489 4.05372C13.7303 4.83512 14.1693 5.89493 14.1693 7C14.1693 8.10507 13.7303 9.16488 12.9489 9.94628C12.1675 10.7277 11.1077 11.1667 10.0026 11.1667ZM10.0026 0.75C5.83594 0.75 2.2776 3.34167 0.835938 7C2.2776 10.6583 5.83594 13.25 10.0026 13.25C14.1693 13.25 17.7276 10.6583 19.1693 7C17.7276 3.34167 14.1693 0.75 10.0026 0.75Z" fill="#473289"/>
</svg>
