<svg width="24" height="24" viewBox="0 0 24 24" fill="none" xmlns="http://www.w3.org/2000/svg">
<path d="M11.25 7.875H20.25C21.075 7.875 21.75 8.55 21.75 9.375V14.625C21.75 15.45 21.075 16.125 20.25 16.125H19.5V18.375L16.5 16.125H11.25C10.425 16.125 9.75 15.45 9.75 14.625V9.375C9.75 8.55 10.425 7.875 11.25 7.875Z" fill="#D8D7E8"/>
<path d="M9.75 9.375C9.75 8.55 10.425 7.875 11.25 7.875H13.5V7.125C13.5 6.3 12.825 5.625 12 5.625H3C2.175 5.625 1.5 6.3 1.5 7.125V12.375C1.5 13.2 2.175 13.875 3 13.875H3.75V16.125L6.75 13.875H9.75V9.375Z" fill="#473289"/>
<path d="M19.5 18.75C19.425 18.75 19.35 18.75 19.275 18.675L16.35 16.5H11.25C10.2 16.5 9.375 15.675 9.375 14.625V9.375C9.375 8.325 10.2 7.5 11.25 7.5H20.25C21.3 7.5 22.125 8.325 22.125 9.375V14.625C22.125 15.675 21.3 16.5 20.25 16.5H19.875V18.375C19.875 18.525 19.8 18.675 19.65 18.675C19.575 18.75 19.575 18.75 19.5 18.75ZM11.25 8.25C10.65 8.25 10.125 8.775 10.125 9.375V14.625C10.125 15.225 10.65 15.75 11.25 15.75H16.5C16.575 15.75 16.65 15.75 16.725 15.825L19.125 17.625V16.125C19.125 15.9 19.275 15.75 19.5 15.75H20.25C20.85 15.75 21.375 15.225 21.375 14.625V9.375C21.375 8.775 20.85 8.25 20.25 8.25H11.25Z" fill="#473289"/>
<path d="M19.5 18.75C19.425 18.75 19.35 18.75 19.275 18.675L16.35 16.5H11.25C10.2 16.5 9.375 15.675 9.375 14.625V9.375C9.375 8.325 10.2 7.5 11.25 7.5H20.25C21.3 7.5 22.125 8.325 22.125 9.375V14.625C22.125 15.675 21.3 16.5 20.25 16.5H19.875V18.375C19.875 18.525 19.8 18.675 19.65 18.675C19.575 18.75 19.575 18.75 19.5 18.75ZM11.25 8.25C10.65 8.25 10.125 8.775 10.125 9.375V14.625C10.125 15.225 10.65 15.75 11.25 15.75H16.5C16.575 15.75 16.65 15.75 16.725 15.825L19.125 17.625V16.125C19.125 15.9 19.275 15.75 19.5 15.75H20.25C20.85 15.75 21.375 15.225 21.375 14.625V9.375C21.375 8.775 20.85 8.25 20.25 8.25H11.25Z" fill="#473289"/>
<path d="M3.75 16.5C3.675 16.5 3.6 16.5 3.6 16.425C3.45 16.35 3.375 16.2 3.375 16.125V14.25H3C1.95 14.25 1.125 13.425 1.125 12.375V7.125C1.125 6.075 1.95 5.25 3 5.25H12C13.05 5.25 13.875 6.075 13.875 7.125V7.875C13.875 8.1 13.725 8.25 13.5 8.25H11.25C10.65 8.25 10.125 8.775 10.125 9.375V13.875C10.125 14.1 9.975 14.25 9.75 14.25H6.9L3.975 16.425C3.9 16.5 3.825 16.5 3.75 16.5ZM3 6C2.4 6 1.875 6.525 1.875 7.125V12.375C1.875 12.975 2.4 13.5 3 13.5H3.75C3.975 13.5 4.125 13.65 4.125 13.875V15.375L6.525 13.575C6.6 13.5 6.675 13.5 6.75 13.5H9.375V9.375C9.375 8.325 10.2 7.5 11.25 7.5H13.125V7.125C13.125 6.525 12.6 6 12 6H3Z" fill="#473289"/>
</svg>
