<svg width="20" height="20" viewBox="0 0 20 20" fill="none" xmlns="http://www.w3.org/2000/svg">
<path d="M14.6231 17.3551L14.7268 17.4594L16.6085 19.3492C16.7806 19.5135 16.9214 19.5661 17.0946 19.5661C17.3713 19.5661 17.5942 19.3546 17.5942 19.0161C17.5942 18.891 17.53 18.7501 17.4123 18.632L14.6231 17.3551ZM14.6231 17.3551L14.5009 17.437C13.945 17.8096 13.2687 18.0175 12.5496 18.0175C10.5711 18.0175 8.95316 16.4139 8.95316 14.4379C8.95316 12.4692 10.5719 10.8496 12.5496 10.8496C14.5268 10.8496 16.1292 12.4519 16.1292 14.4379L16.1292 14.4382C16.1305 15.1739 15.905 15.8921 15.4836 16.4952L15.3978 16.6179L15.5037 16.7238L17.4121 18.6318L14.6231 17.3551ZM16.1292 2.87821V10.8375C15.833 10.549 15.5002 10.2999 15.1389 10.0967V2.90357C15.1389 2.45149 15.0094 2.07395 14.7428 1.80976C14.4764 1.54581 14.0972 1.41893 13.646 1.41893H4.89887C4.43174 1.41893 4.04948 1.54752 3.78451 1.81388C3.51973 2.08004 3.3978 2.4579 3.3978 2.90357V15.5682C3.3978 16.0186 3.52226 16.3916 3.79016 16.6507C4.05708 16.9089 4.43897 17.0275 4.89887 17.0275H8.20894C8.41414 17.3889 8.66514 17.7218 8.95537 18.0179H4.82352C3.98937 18.0179 3.39417 17.8073 3.00614 17.4164C2.61788 17.0253 2.40709 16.4234 2.40709 15.5761V2.87857C2.40709 2.03539 2.61778 1.43101 3.00658 1.03661C3.39492 0.64267 3.9902 0.428571 4.82352 0.428571H13.7132C14.5512 0.428571 15.1461 0.640944 15.533 1.03348C15.9204 1.42649 16.1292 2.03046 16.1292 2.87821ZM12.4492 4.83393H6.10423C5.89694 4.83393 5.7553 4.683 5.7553 4.485C5.7553 4.30511 5.88733 4.16143 6.10423 4.16143H12.4492C12.6493 4.16143 12.7896 4.30503 12.7896 4.485C12.7896 4.68336 12.6397 4.83393 12.4492 4.83393ZM12.4492 7.75536H6.10423C5.89694 7.75536 5.7553 7.60443 5.7553 7.40643C5.7553 7.22654 5.88733 7.08286 6.10423 7.08286H12.4492C12.6493 7.08286 12.7896 7.22619 12.7896 7.40643C12.7896 7.60452 12.6397 7.75536 12.4492 7.75536ZM9.7928 14.4379C9.7928 15.9523 11.0289 17.1775 12.5496 17.1775C14.055 17.1775 15.281 15.9504 15.281 14.4379C15.281 12.9422 14.0468 11.6979 12.5496 11.6979C11.0281 11.6979 9.7928 12.941 9.7928 14.4379Z" fill="#4B5563" stroke="#473289" stroke-width="0.357143"/>
</svg>
