<svg width="13" height="10" viewBox="0 0 13 10" fill="none" xmlns="http://www.w3.org/2000/svg">
<path fill-rule="evenodd" clip-rule="evenodd" d="M12.172 0.358123C12.2562 0.430266 12.3253 0.51829 12.3755 0.617165C12.4256 0.71604 12.4558 0.823826 12.4642 0.934364C12.4727 1.0449 12.4593 1.15602 12.4248 1.26138C12.3903 1.36673 12.3354 1.46426 12.2631 1.54837L5.51314 9.42337C5.43746 9.51166 5.34435 9.58336 5.23965 9.63396C5.13495 9.68455 5.02092 9.71296 4.90472 9.7174C4.78851 9.72183 4.67265 9.7022 4.56439 9.65974C4.45614 9.61727 4.35783 9.55289 4.27564 9.47062L0.338141 5.53312C0.184518 5.37392 0.0995719 5.16074 0.101598 4.93952C0.103624 4.71829 0.19246 4.5067 0.348972 4.35034C0.505485 4.19397 0.717151 4.10534 0.938381 4.10352C1.15961 4.1017 1.37271 4.18685 1.53177 4.34062L4.82577 7.6335L10.9829 0.450373C11.1286 0.280706 11.3356 0.175805 11.5586 0.158718C11.7816 0.141632 12.0022 0.212632 12.172 0.358123Z" fill="white"/>
</svg>
