<svg width="24" height="24" viewBox="0 0 24 24" fill="none" xmlns="http://www.w3.org/2000/svg">
<path fill-rule="evenodd" clip-rule="evenodd" d="M5.08575 7.40884L9.58575 4.40884C10.1201 4.05259 10.3871 3.87484 10.6702 3.78896C11.0482 3.67451 11.4515 3.67451 11.8294 3.78896C12.1129 3.87484 12.3799 4.05296 12.9142 4.40884L17.4142 7.40884C17.8477 7.69796 18.0649 7.84271 18.231 8.02571C18.4523 8.26946 18.6097 8.56384 18.69 8.88334C18.7564 9.14809 18.4575 9.33671 18.2021 9.24109C17.4178 8.94807 16.5872 8.79844 15.75 8.79934C11.8837 8.79934 8.74988 11.9336 8.74988 15.7995C8.74988 16.7737 8.949 17.7015 9.30863 18.5445C9.50063 18.9945 9.59663 19.2191 9.58538 19.3447C9.5685 19.53 9.48787 19.6515 9.324 19.74C9.21338 19.7996 8.99775 19.7996 8.56725 19.7996H6.75C5.81813 19.7996 5.35237 19.7996 4.9845 19.6473C4.74185 19.5468 4.52138 19.3994 4.33569 19.2137C4.14999 19.0279 4.00271 18.8074 3.90225 18.5647C3.75 18.1972 3.75 17.7315 3.75 16.7996V9.90484C3.75 9.38359 3.75 9.12296 3.81 8.88334C3.89008 8.56404 4.04775 8.26945 4.269 8.02571C4.43512 7.84271 4.65188 7.69796 5.08575 7.40884Z" fill="#9991BF"/>
<path d="M20.7501 15.7968C20.7501 18.5583 18.5114 20.797 15.7502 20.797C12.9887 20.797 10.75 18.5583 10.75 15.7968C10.75 13.0356 12.9887 10.7969 15.7502 10.7969C18.5117 10.7969 20.7501 13.0356 20.7501 15.7968Z" fill="#D8D7E8"/>
<path fill-rule="evenodd" clip-rule="evenodd" d="M15.7501 11.297C13.265 11.297 11.2501 13.3115 11.2501 15.797C11.2501 18.2821 13.265 20.297 15.7501 20.297C18.2352 20.297 20.2501 18.2821 20.2501 15.797C20.2501 13.3115 18.2352 11.297 15.7501 11.297ZM10.25 15.797C10.25 12.7595 12.7126 10.2969 15.7501 10.2969C18.7876 10.2969 21.2502 12.7595 21.2502 15.797C21.2502 18.8345 18.7876 21.2968 15.7501 21.2968C12.7126 21.2968 10.25 18.8345 10.25 15.797Z" fill="#D8D7E8"/>
<path fill-rule="evenodd" clip-rule="evenodd" d="M13.2734 16.2202C13.2734 15.9442 13.4973 15.7204 13.7737 15.7204H14.8263C14.9589 15.7204 15.0861 15.7731 15.1799 15.8668C15.2737 15.9606 15.3264 16.0878 15.3264 16.2204C15.3264 16.3531 15.2737 16.4803 15.1799 16.574C15.0861 16.6678 14.9589 16.7205 14.8263 16.7205H13.7737C13.708 16.7205 13.6429 16.7076 13.5822 16.6825C13.5215 16.6574 13.4663 16.6206 13.4198 16.5741C13.3734 16.5276 13.3365 16.4725 13.3114 16.4117C13.2863 16.351 13.2734 16.286 13.2734 16.2202ZM13.2734 13.0627C13.2734 12.7864 13.4973 12.5625 13.7737 12.5625H17.7209C17.8536 12.5625 17.9808 12.6152 18.0745 12.709C18.1683 12.8027 18.221 12.9299 18.221 13.0626C18.221 13.1952 18.1683 13.3224 18.0745 13.4162C17.9808 13.5099 17.8536 13.5626 17.7209 13.5626H13.7737C13.708 13.5627 13.6429 13.5498 13.5822 13.5246C13.5215 13.4995 13.4663 13.4627 13.4198 13.4162C13.3734 13.3698 13.3365 13.3146 13.3114 13.2539C13.2863 13.1932 13.2734 13.1285 13.2734 13.0627ZM13.2734 14.6415C13.2734 14.3655 13.4973 14.1416 13.7737 14.1416H17.7209C17.8536 14.1416 17.9808 14.1943 18.0745 14.2881C18.1683 14.3819 18.221 14.5091 18.221 14.6417C18.221 14.7743 18.1683 14.9015 18.0745 14.9953C17.9808 15.0891 17.8536 15.1417 17.7209 15.1417H13.7737C13.708 15.1418 13.6429 15.1289 13.5822 15.1038C13.5215 15.0786 13.4663 15.0418 13.4198 14.9953C13.3734 14.9489 13.3365 14.8937 13.3114 14.833C13.2863 14.7723 13.2734 14.7072 13.2734 14.6415Z" fill="#473289"/>
<path fill-rule="evenodd" clip-rule="evenodd" d="M13.42 15.865C13.615 15.67 13.9319 15.67 14.1269 15.865L16.9184 18.6561C16.9648 18.7026 17.0017 18.7577 17.0268 18.8184C17.0519 18.879 17.0649 18.9441 17.0649 19.0097C17.0649 19.0754 17.0519 19.1405 17.0268 19.2011C17.0017 19.2618 16.9648 19.3169 16.9184 19.3634C16.8719 19.4098 16.8168 19.4467 16.7561 19.4718C16.6955 19.4969 16.6304 19.5099 16.5648 19.5099C16.4991 19.5099 16.4341 19.4969 16.3734 19.4718C16.3127 19.4467 16.2576 19.4098 16.2111 19.3634L13.42 16.5722C13.3735 16.5258 13.3367 16.4707 13.3115 16.41C13.2864 16.3493 13.2734 16.2843 13.2734 16.2186C13.2734 16.1529 13.2864 16.0879 13.3115 16.0272C13.3367 15.9665 13.3735 15.9114 13.42 15.865Z" fill="#473289"/>
<path fill-rule="evenodd" clip-rule="evenodd" d="M15.9054 14.6419C15.9054 14.0831 15.4022 13.563 14.6953 13.563V12.5625C15.8777 12.5625 16.9059 13.4565 16.9059 14.6415C16.9059 15.8265 15.8777 16.7205 14.6953 16.7205V15.7204C15.4022 15.7204 15.9058 15.2006 15.9058 14.6415L15.9054 14.6419Z" fill="#473289"/>
</svg>
