<svg width="20" height="20" viewBox="0 0 20 20" fill="none" xmlns="http://www.w3.org/2000/svg">
<path d="M17.0399 17.3359H6.65104V17.947C6.65104 18.2712 6.52227 18.5821 6.29306 18.8113C6.06385 19.0405 5.75297 19.1693 5.42882 19.1693C5.10467 19.1693 4.79379 19.0405 4.56458 18.8113C4.33537 18.5821 4.2066 18.2712 4.2066 17.947V2.05816C4.2066 1.73401 4.07783 1.42313 3.84862 1.19392C3.61941 0.964707 3.30853 0.835938 2.98438 0.835938H15.2066C15.6928 0.835938 16.1591 1.02909 16.503 1.37291C16.8468 1.71673 17.0399 2.18304 17.0399 2.66927V17.3359Z" fill="#DDDDED"/>
<path d="M14.901 3.73871C14.9013 2.75956 14.7781 1.78427 14.5344 0.835938H2.98438C3.30853 0.835938 3.61941 0.964707 3.84862 1.19392C4.07783 1.42313 4.2066 1.73401 4.2066 2.05816V15.4415C7.12194 15.1615 9.82967 13.8096 11.8054 11.6477C13.7811 9.48567 14.8842 6.66742 14.901 3.73871Z" fill="#DDDDED"/>
<path d="M17.0356 17.3359H6.6467V17.947C6.6467 18.2712 6.51793 18.5821 6.28872 18.8113C6.05951 19.0405 5.74863 19.1693 5.42448 19.1693H17.0356C17.3597 19.1693 17.6706 19.0405 17.8998 18.8113C18.129 18.5821 18.2578 18.2712 18.2578 17.947V17.3359H17.0356ZM2.98003 0.835938C3.30419 0.835938 3.61507 0.964707 3.84428 1.19392C4.07349 1.42313 4.20226 1.73401 4.20226 2.05816V4.5026H1.75781V2.05816C1.75781 1.73401 1.88658 1.42313 2.11579 1.19392C2.345 0.964707 2.65588 0.835938 2.98003 0.835938Z" fill="#7A6CAB"/>
<path d="M13.3628 10.3064C13.3628 10.9712 13.1657 11.621 12.7964 12.1738C12.4271 12.7265 11.9021 13.1573 11.288 13.4117C10.6738 13.6661 9.99801 13.7326 9.34602 13.603C8.69403 13.4733 8.09513 13.1531 7.62507 12.6831C7.15501 12.213 6.8349 11.6141 6.70521 10.9621C6.57552 10.3102 6.64208 9.63434 6.89648 9.02018C7.15087 8.40602 7.58167 7.88109 8.1344 7.51176C8.68714 7.14244 9.33697 6.94531 10.0017 6.94531V10.3064H13.3628Z" fill="#473289"/>
<path d="M14.5877 9.07986C14.5877 8.18844 14.2336 7.33353 13.6032 6.7032C12.9729 6.07287 12.118 5.71875 11.2266 5.71875V9.07986H14.5877Z" fill="#473289"/>
<path d="M12.8591 10.3064H10.0024V6.94531C9.15978 6.94468 8.34768 7.26076 7.72716 7.83086C7.10665 8.40095 6.72305 9.18344 6.65244 10.0231C6.58184 10.8628 6.82938 11.6983 7.34599 12.3641C7.86259 13.0298 8.61051 13.477 9.44143 13.6171C10.7917 12.7547 11.9541 11.6286 12.8591 10.3064Z" fill="#473289"/>
<path d="M14.2363 7.59058C13.9591 7.0289 13.5304 6.55594 12.9985 6.22516C12.4667 5.89438 11.8529 5.71897 11.2266 5.71875V9.07986H13.5925C13.8415 8.59905 14.0567 8.10141 14.2363 7.59058Z" fill="#473289"/>
</svg>
