<svg width="20" height="20" viewBox="0 0 20 20" fill="none" xmlns="http://www.w3.org/2000/svg">
<path fill-rule="evenodd" clip-rule="evenodd" d="M5.49192 14.1956C6.52384 14.8851 7.73705 15.2531 8.97813 15.2531C9.80217 15.2531 10.6181 15.0908 11.3795 14.7755C11.9477 14.5401 12.4772 14.2229 12.9515 13.8349L16.2281 17.1114C16.2858 17.1699 16.3546 17.2162 16.4304 17.2477C16.5063 17.2791 16.5877 17.2952 16.6698 17.2948C16.7519 17.2952 16.8333 17.2791 16.9091 17.2477C16.9849 17.2162 17.0537 17.1699 17.1114 17.1114C17.2285 16.9942 17.2942 16.8354 17.2942 16.6698C17.2942 16.5041 17.2285 16.3453 17.1114 16.2281L13.8349 12.9515C14.2229 12.4772 14.5401 11.9477 14.7755 11.3795C15.0908 10.6181 15.2531 9.80217 15.2531 8.97813C15.2531 7.73705 14.8851 6.52384 14.1956 5.49192C13.5061 4.46001 12.5261 3.65572 11.3795 3.18078C10.2329 2.70584 8.97117 2.58158 7.75394 2.8237C6.53671 3.06582 5.41861 3.66346 4.54103 4.54103C3.66346 5.41861 3.06582 6.53671 2.8237 7.75394C2.58158 8.97117 2.70584 10.2329 3.18078 11.3795C3.65572 12.5261 4.46001 13.5061 5.49192 14.1956ZM6.20028 4.80411C7.02252 4.25471 7.98922 3.96146 8.97813 3.96146C10.3042 3.96146 11.576 4.48825 12.5137 5.42593C13.4513 6.36361 13.9781 7.63538 13.9781 8.96146C13.9781 9.95037 13.6849 10.9171 13.1355 11.7393C12.5861 12.5616 11.8052 13.2024 10.8915 13.5809C9.97791 13.9593 8.97258 14.0583 8.00268 13.8654C7.03277 13.6725 6.14186 13.1963 5.44259 12.497C4.74333 11.7977 4.26713 10.9068 4.0742 9.93691C3.88128 8.96701 3.98029 7.96167 4.35873 7.04804C4.73717 6.13441 5.37803 5.35352 6.20028 4.80411Z" fill="#473289"/>
</svg>
