<svg width="18" height="18" viewBox="0 0 18 18" fill="none" xmlns="http://www.w3.org/2000/svg">
<path d="M8.16406 0.664062C12.3041 0.664062 15.6641 4.02406 15.6641 8.16406C15.6641 12.3041 12.3041 15.6641 8.16406 15.6641C4.02406 15.6641 0.664062 12.3041 0.664062 8.16406C0.664062 4.02406 4.02406 0.664062 8.16406 0.664062ZM8.16406 13.9974C11.387 13.9974 13.9974 11.387 13.9974 8.16406C13.9974 4.94115 11.387 2.33073 8.16406 2.33073C4.94115 2.33073 2.33073 4.94115 2.33073 8.16406C2.33073 11.387 4.94115 13.9974 8.16406 13.9974ZM15.2351 14.0566L17.5921 16.4136L16.4136 17.5921L14.0566 15.2351L15.2351 14.0566Z" fill="#473289"/>
</svg>
