<svg width="20" height="20" viewBox="0 0 20 20" fill="none" xmlns="http://www.w3.org/2000/svg">
<g clip-path="url(#clip0_3097_71718)">
<path d="M6.99427 9.55885C8.46094 9.55885 9.6526 8.36719 9.6526 6.90052C9.6526 5.43385 8.46094 4.24219 6.99427 4.24219C5.5276 4.24219 4.33594 5.43385 4.33594 6.90052C4.33594 8.36719 5.5276 9.55885 6.99427 9.55885Z" fill="#BBB8D6" stroke="#BBB8D6" stroke-width="1.875" stroke-miterlimit="10"/>
<path d="M9.31771 11.2812H4.67604C2.98438 11.2812 1.60938 12.6562 1.60938 14.3479V16.2563H3.16771H10.826H12.3927V14.3479C12.3844 12.6562 11.0094 11.2812 9.31771 11.2812Z" fill="#8A7EB5"/>
<path d="M12.2626 11.2963C12.092 11.2963 11.9496 11.2393 11.8355 11.1252C11.7215 11.0111 11.6643 10.8688 11.6641 10.6981V6.70926C11.6641 6.53889 11.7212 6.39667 11.8355 6.28259C11.9499 6.16852 12.0921 6.11136 12.2622 6.11111H13.8863V5.59815C13.8863 5.42778 13.9434 5.28543 14.0578 5.17111C14.1721 5.05679 14.3144 4.99975 14.4848 5H15.5104C15.6807 5 15.8231 5.05704 15.9374 5.17111C16.0517 5.28519 16.1088 5.42753 16.1085 5.59815V6.11111H17.7326C17.903 6.11111 18.0452 6.16827 18.1592 6.28259C18.2733 6.39691 18.3305 6.53926 18.3307 6.70963V10.6981C18.3307 10.8685 18.2736 11.0109 18.1592 11.1252C18.0449 11.2395 17.9027 11.2965 17.7326 11.2963H12.2626ZM14.2567 6.11111H15.7381V5.59815C15.7381 5.54136 15.7144 5.48914 15.667 5.44148C15.6196 5.39383 15.5674 5.37012 15.5104 5.37037H14.4844C14.4276 5.37037 14.3754 5.39407 14.3278 5.44148C14.2801 5.48889 14.2564 5.54111 14.2567 5.59815V6.11111ZM14.8122 8.88889V9.81482C14.8122 9.86741 14.83 9.91136 14.8655 9.94667C14.9011 9.98198 14.9452 9.99975 14.9978 10C15.0504 10.0002 15.0943 9.98247 15.1296 9.94667C15.1649 9.91087 15.1826 9.86691 15.1826 9.81482V8.88889H16.1085C16.1611 8.88889 16.205 8.87111 16.2404 8.83556C16.2757 8.8 16.2934 8.75593 16.2937 8.70333C16.2939 8.65074 16.2762 8.60679 16.2404 8.57148C16.2046 8.53617 16.1606 8.51852 16.1085 8.51852H15.1826V7.59259C15.1826 7.54 15.1648 7.49605 15.1292 7.46074C15.0937 7.42543 15.0496 7.40766 14.997 7.40741C14.9444 7.40716 14.9005 7.42494 14.8652 7.46074C14.8299 7.49654 14.8122 7.54049 14.8122 7.59259V8.51852H13.8863C13.8337 8.51852 13.7897 8.5363 13.7544 8.57185C13.7191 8.60741 13.7013 8.65148 13.7011 8.70407C13.7009 8.75667 13.7186 8.80062 13.7544 8.83593C13.7902 8.87124 13.8342 8.88889 13.8863 8.88889H14.8122Z" fill="#473289"/>
</g>
<defs>
<clipPath id="clip0_3097_71718">
<rect width="20" height="20" fill="white"/>
</clipPath>
</defs>
</svg>
