<svg width="20" height="20" viewBox="0 0 20 20" fill="none" xmlns="http://www.w3.org/2000/svg">
<circle cx="10" cy="10" r="10" fill="#FF3D32"/>
<path d="M6.39801 5.11919L10.0007 8.72185L13.5847 5.13785C13.6638 5.05359 13.7592 4.98618 13.8651 4.93967C13.9709 4.89316 14.0851 4.86851 14.2007 4.86719C14.4482 4.86719 14.6856 4.96552 14.8606 5.14055C15.0357 5.31559 15.134 5.55299 15.134 5.80052C15.1362 5.91495 15.115 6.02862 15.0716 6.13454C15.0283 6.24047 14.9638 6.33643 14.882 6.41652L11.2513 10.0005L14.882 13.6312C15.0358 13.7817 15.126 13.9855 15.134 14.2005C15.134 14.4481 15.0357 14.6855 14.8606 14.8605C14.6856 15.0355 14.4482 15.1339 14.2007 15.1339C14.0817 15.1388 13.963 15.1189 13.8522 15.0756C13.7413 15.0322 13.6407 14.9662 13.5567 14.8819L10.0007 11.2792L6.40734 14.8725C6.32848 14.954 6.23427 15.019 6.13014 15.0639C6.02602 15.1087 5.91404 15.1325 5.80067 15.1339C5.55314 15.1339 5.31574 15.0355 5.14071 14.8605C4.96567 14.6855 4.86734 14.4481 4.86734 14.2005C4.86516 14.0861 4.88639 13.9724 4.92973 13.8665C4.97306 13.7606 5.03759 13.6646 5.11934 13.5845L8.75001 10.0005L5.11934 6.36985C4.96551 6.21936 4.87531 6.01557 4.86734 5.80052C4.86734 5.55299 4.96567 5.31559 5.14071 5.14055C5.31574 4.96552 5.55314 4.86719 5.80067 4.86719C6.02467 4.86999 6.23934 4.96052 6.39801 5.11919Z" fill="white"/>
</svg>
