<svg width="20" height="20" viewBox="0 0 20 20" fill="none" xmlns="http://www.w3.org/2000/svg">
<circle cx="10" cy="10" r="10" fill="#EAB308"/>
<path d="M10 13.75C10.4125 13.75 10.7655 13.8967 11.059 14.1902C11.3525 14.4837 11.4995 14.837 11.5 15.25C11.5 15.6625 11.353 16.0155 11.059 16.309C10.765 16.6025 10.412 16.7495 10 16.75C9.5875 16.75 9.23425 16.603 8.94025 16.309C8.64625 16.015 8.4995 15.662 8.5 15.25C8.5 14.8375 8.64675 14.4842 8.94025 14.1902C9.23375 13.8962 9.587 13.7495 10 13.75ZM10 3.25C10.3125 3.25 10.578 3.35925 10.7965 3.57775C11.015 3.79625 11.1245 4.062 11.125 4.375V11.125C11.125 11.4375 11.0155 11.703 10.7965 11.9215C10.5775 12.14 10.312 12.2495 10 12.25C9.6875 12.25 9.42175 12.1405 9.20275 11.9215C8.98375 11.7025 8.8745 11.437 8.875 11.125V4.375C8.875 4.0625 8.98425 3.79675 9.20275 3.57775C9.42125 3.35875 9.687 3.2495 10 3.25Z" fill="white"/>
</svg>
