<svg width="14" height="14" viewBox="0 0 14 14" fill="none" xmlns="http://www.w3.org/2000/svg">
<g clip-path="url(#clip0_4413_163540)">
<path d="M31.9547 29.4441H19.1447C18.9566 29.4441 18.3933 28.9584 18.3933 28.7692L18.8034 20.0739C18.8034 19.8858 18.9566 19.7327 19.1447 19.7327L31.7436 19.3848C31.9317 19.3848 32.2959 19.8847 32.2959 20.0739V29.1028C32.2959 29.292 32.1428 29.4441 31.9547 29.4441ZM11.5322 13.6864H2.75266C2.58313 13.6864 2.44531 13.5486 2.44531 13.3791V2.07297C2.44531 1.90344 2.58313 1.76562 2.75266 1.76562H11.5322C11.7017 1.76562 11.8395 1.90344 11.8395 2.07297V13.3802C11.8395 13.5497 11.7017 13.6864 11.5322 13.6864Z" fill="#8A7EB5"/>
<path d="M11.2431 13.3984H2.46359C2.29406 13.3984 2.15625 13.2606 2.15625 13.0911V1.78391C2.15625 1.61437 2.29406 1.47656 2.46359 1.47656H11.2431C11.4127 1.47656 11.5505 1.61437 11.5505 1.78391V13.0911C11.5505 13.2606 11.4127 13.3984 11.2431 13.3984Z" fill="#D8D7E8"/>
<path d="M10.2188 5.10156H3.49219C3.41967 5.10156 3.35012 5.07275 3.29884 5.02147C3.24756 4.9702 3.21875 4.90065 3.21875 4.82812C3.21875 4.7556 3.24756 4.68606 3.29884 4.63478C3.35012 4.5835 3.41967 4.55469 3.49219 4.55469H10.2188C10.2913 4.55469 10.3608 4.5835 10.4121 4.63478C10.4634 4.68606 10.4922 4.7556 10.4922 4.82812C10.4922 4.90065 10.4634 4.9702 10.4121 5.02147C10.3608 5.07275 10.2913 5.10156 10.2188 5.10156ZM10.2188 6.60328H3.49219C3.41967 6.60328 3.35012 6.57447 3.29884 6.52319C3.24756 6.47191 3.21875 6.40236 3.21875 6.32984C3.21875 6.25732 3.24756 6.18777 3.29884 6.13649C3.35012 6.08521 3.41967 6.05641 3.49219 6.05641H10.2188C10.2913 6.05641 10.3608 6.08521 10.4121 6.13649C10.4634 6.18777 10.4922 6.25732 10.4922 6.32984C10.4922 6.40236 10.4634 6.47191 10.4121 6.52319C10.3608 6.57447 10.2913 6.60328 10.2188 6.60328ZM10.2188 8.105H3.49219C3.41967 8.105 3.35012 8.07619 3.29884 8.02491C3.24756 7.97363 3.21875 7.90408 3.21875 7.83156C3.21875 7.75904 3.24756 7.68949 3.29884 7.63821C3.35012 7.58693 3.41967 7.55813 3.49219 7.55813H10.2188C10.2913 7.55813 10.3608 7.58693 10.4121 7.63821C10.4634 7.68949 10.4922 7.75904 10.4922 7.83156C10.4922 7.90408 10.4634 7.97363 10.4121 8.02491C10.3608 8.07619 10.2913 8.105 10.2188 8.105ZM10.2188 9.60781H3.49219C3.41967 9.60781 3.35012 9.579 3.29884 9.52772C3.24756 9.47644 3.21875 9.4069 3.21875 9.33438C3.21875 9.26186 3.24756 9.19231 3.29884 9.14103C3.35012 9.08975 3.41967 9.06094 3.49219 9.06094H10.2188C10.2913 9.06094 10.3608 9.08975 10.4121 9.14103C10.4634 9.19231 10.4922 9.26186 10.4922 9.33438C10.4922 9.4069 10.4634 9.47644 10.4121 9.52772C10.3608 9.579 10.2913 9.60781 10.2188 9.60781ZM6.36875 11.1095H3.49219C3.41967 11.1095 3.35012 11.0807 3.29884 11.0294C3.24756 10.9782 3.21875 10.9086 3.21875 10.8361C3.21875 10.7636 3.24756 10.694 3.29884 10.6427C3.35012 10.5915 3.41967 10.5627 3.49219 10.5627H6.36875C6.44127 10.5627 6.51082 10.5915 6.5621 10.6427C6.61338 10.694 6.64219 10.7636 6.64219 10.8361C6.64219 10.9086 6.61338 10.9782 6.5621 11.0294C6.51082 11.0807 6.44127 11.1095 6.36875 11.1095Z" fill="#473289"/>
<path d="M10.2188 5.10156H3.49219C3.41967 5.10156 3.35012 5.07275 3.29884 5.02147C3.24756 4.9702 3.21875 4.90065 3.21875 4.82812C3.21875 4.7556 3.24756 4.68606 3.29884 4.63478C3.35012 4.5835 3.41967 4.55469 3.49219 4.55469H10.2188C10.2913 4.55469 10.3608 4.5835 10.4121 4.63478C10.4634 4.68606 10.4922 4.7556 10.4922 4.82812C10.4922 4.90065 10.4634 4.9702 10.4121 5.02147C10.3608 5.07275 10.2913 5.10156 10.2188 5.10156ZM10.2188 6.60328H3.49219C3.41967 6.60328 3.35012 6.57447 3.29884 6.52319C3.24756 6.47191 3.21875 6.40236 3.21875 6.32984C3.21875 6.25732 3.24756 6.18777 3.29884 6.13649C3.35012 6.08521 3.41967 6.05641 3.49219 6.05641H10.2188C10.2913 6.05641 10.3608 6.08521 10.4121 6.13649C10.4634 6.18777 10.4922 6.25732 10.4922 6.32984C10.4922 6.40236 10.4634 6.47191 10.4121 6.52319C10.3608 6.57447 10.2913 6.60328 10.2188 6.60328ZM10.2188 8.105H3.49219C3.41967 8.105 3.35012 8.07619 3.29884 8.02491C3.24756 7.97363 3.21875 7.90408 3.21875 7.83156C3.21875 7.75904 3.24756 7.68949 3.29884 7.63821C3.35012 7.58693 3.41967 7.55813 3.49219 7.55813H10.2188C10.2913 7.55813 10.3608 7.58693 10.4121 7.63821C10.4634 7.68949 10.4922 7.75904 10.4922 7.83156C10.4922 7.90408 10.4634 7.97363 10.4121 8.02491C10.3608 8.07619 10.2913 8.105 10.2188 8.105ZM10.2188 9.60781H3.49219C3.41967 9.60781 3.35012 9.579 3.29884 9.52772C3.24756 9.47644 3.21875 9.4069 3.21875 9.33438C3.21875 9.26186 3.24756 9.19231 3.29884 9.14103C3.35012 9.08975 3.41967 9.06094 3.49219 9.06094H10.2188C10.2913 9.06094 10.3608 9.08975 10.4121 9.14103C10.4634 9.19231 10.4922 9.26186 10.4922 9.33438C10.4922 9.4069 10.4634 9.47644 10.4121 9.52772C10.3608 9.579 10.2913 9.60781 10.2188 9.60781ZM6.36875 11.1095H3.49219C3.41967 11.1095 3.35012 11.0807 3.29884 11.0294C3.24756 10.9782 3.21875 10.9086 3.21875 10.8361C3.21875 10.7636 3.24756 10.694 3.29884 10.6427C3.35012 10.5915 3.41967 10.5627 3.49219 10.5627H6.36875C6.44127 10.5627 6.51082 10.5915 6.5621 10.6427C6.61338 10.694 6.64219 10.7636 6.64219 10.8361C6.64219 10.9086 6.61338 10.9782 6.5621 11.0294C6.51082 11.0807 6.44127 11.1095 6.36875 11.1095Z" fill="black" fill-opacity="0.2"/>
<path d="M11.5531 10.3281L10.2045 12.0147L8.46875 13.4027H11.2458C11.4175 13.4027 11.5531 13.2703 11.5531 13.0953V10.3281Z" fill="#BBB8D6"/>
<path d="M8.46875 13.4027C8.55625 12.9247 8.58688 12.3658 8.50813 11.6537C8.49063 11.4908 8.61094 11.3464 8.775 11.3387C9.15344 11.3202 9.80313 11.272 10.2636 11.1495C10.9231 10.9745 11.5531 10.3281 11.5531 10.3281C11.5531 10.3281 11.1692 11.3486 10.1575 12.3253C9.44438 13.0133 8.46875 13.4027 8.46875 13.4027Z" fill="#68589F"/>
<path d="M4.17063 2.74063C3.615 2.74063 3.17969 2.20687 3.17969 1.52656C3.17969 0.84625 3.615 0.3125 4.17063 0.3125C4.72625 0.3125 5.16156 0.84625 5.16156 1.52656C5.16156 1.58891 5.15828 1.65016 5.15062 1.71031C5.12875 1.89078 4.96469 2.01766 4.78531 1.99578C4.60594 1.97391 4.47797 1.80984 4.49984 1.62937C4.50422 1.59656 4.50641 1.56156 4.50641 1.52547C4.50641 1.20609 4.32922 0.967656 4.17172 0.967656C4.01422 0.967656 3.83703 1.20609 3.83703 1.52547C3.83703 1.84484 4.01422 2.08328 4.17172 2.08328C4.35328 2.08328 4.49984 2.22984 4.49984 2.41141C4.49984 2.59297 4.35219 2.74063 4.17063 2.74063Z" fill="#473289"/>
<path d="M4.17063 2.74063C3.615 2.74063 3.17969 2.20687 3.17969 1.52656C3.17969 0.84625 3.615 0.3125 4.17063 0.3125C4.72625 0.3125 5.16156 0.84625 5.16156 1.52656C5.16156 1.58891 5.15828 1.65016 5.15062 1.71031C5.12875 1.89078 4.96469 2.01766 4.78531 1.99578C4.60594 1.97391 4.47797 1.80984 4.49984 1.62937C4.50422 1.59656 4.50641 1.56156 4.50641 1.52547C4.50641 1.20609 4.32922 0.967656 4.17172 0.967656C4.01422 0.967656 3.83703 1.20609 3.83703 1.52547C3.83703 1.84484 4.01422 2.08328 4.17172 2.08328C4.35328 2.08328 4.49984 2.22984 4.49984 2.41141C4.49984 2.59297 4.35219 2.74063 4.17063 2.74063Z" fill="black" fill-opacity="0.2"/>
<path d="M4.40625 1.48438H5.26375V2.14937H4.40625V1.48438Z" fill="#D8D7E8"/>
<path d="M6.83469 2.74063C6.27906 2.74063 5.84375 2.20687 5.84375 1.52656C5.84375 0.84625 6.27906 0.3125 6.83469 0.3125C7.39031 0.3125 7.82562 0.84625 7.82562 1.52656C7.82562 1.58781 7.82234 1.64906 7.81469 1.70922C7.79281 1.88859 7.62875 2.01656 7.44938 1.99578C7.40654 1.99069 7.36513 1.97719 7.32753 1.95606C7.28992 1.93492 7.25686 1.90657 7.23023 1.87263C7.20361 1.83869 7.18395 1.79983 7.17238 1.75827C7.16081 1.71672 7.15756 1.67328 7.16281 1.63047C7.16719 1.59656 7.16937 1.56156 7.16937 1.52656C7.16937 1.20719 6.99219 0.96875 6.83469 0.96875C6.67719 0.96875 6.5 1.20719 6.5 1.52656C6.5 1.84594 6.67719 2.08438 6.83469 2.08438C7.01625 2.08438 7.16281 2.23094 7.16281 2.4125C7.16281 2.59406 7.01625 2.74063 6.83469 2.74063Z" fill="#473289"/>
<path d="M6.83469 2.74063C6.27906 2.74063 5.84375 2.20687 5.84375 1.52656C5.84375 0.84625 6.27906 0.3125 6.83469 0.3125C7.39031 0.3125 7.82562 0.84625 7.82562 1.52656C7.82562 1.58781 7.82234 1.64906 7.81469 1.70922C7.79281 1.88859 7.62875 2.01656 7.44938 1.99578C7.40654 1.99069 7.36513 1.97719 7.32753 1.95606C7.28992 1.93492 7.25686 1.90657 7.23023 1.87263C7.20361 1.83869 7.18395 1.79983 7.17238 1.75827C7.16081 1.71672 7.15756 1.67328 7.16281 1.63047C7.16719 1.59656 7.16937 1.56156 7.16937 1.52656C7.16937 1.20719 6.99219 0.96875 6.83469 0.96875C6.67719 0.96875 6.5 1.20719 6.5 1.52656C6.5 1.84594 6.67719 2.08438 6.83469 2.08438C7.01625 2.08438 7.16281 2.23094 7.16281 2.4125C7.16281 2.59406 7.01625 2.74063 6.83469 2.74063Z" fill="black" fill-opacity="0.2"/>
<path d="M7.07031 1.48438H7.92781V2.14937H7.07031V1.48438Z" fill="#D8D7E8"/>
<path d="M9.49094 2.74063C8.93531 2.74063 8.5 2.20687 8.5 1.52656C8.5 0.84625 8.93531 0.3125 9.49094 0.3125C10.0466 0.3125 10.4819 0.84625 10.4819 1.52656C10.4819 1.58781 10.4786 1.64906 10.4709 1.70922C10.4491 1.88859 10.285 2.01656 10.1056 1.99578C10.0628 1.99069 10.0214 1.97719 9.98378 1.95606C9.94617 1.93492 9.91311 1.90657 9.88648 1.87263C9.85986 1.83869 9.8402 1.79983 9.82863 1.75827C9.81706 1.71672 9.81381 1.67328 9.81906 1.63047C9.82344 1.59656 9.82563 1.56156 9.82563 1.52656C9.82563 1.20719 9.64844 0.96875 9.49094 0.96875C9.33344 0.96875 9.15625 1.20719 9.15625 1.52656C9.15625 1.84594 9.33344 2.08438 9.49094 2.08438C9.6725 2.08438 9.81906 2.23094 9.81906 2.4125C9.81906 2.59406 9.6725 2.74063 9.49094 2.74063Z" fill="#473289"/>
<path d="M9.49094 2.74063C8.93531 2.74063 8.5 2.20687 8.5 1.52656C8.5 0.84625 8.93531 0.3125 9.49094 0.3125C10.0466 0.3125 10.4819 0.84625 10.4819 1.52656C10.4819 1.58781 10.4786 1.64906 10.4709 1.70922C10.4491 1.88859 10.285 2.01656 10.1056 1.99578C10.0628 1.99069 10.0214 1.97719 9.98378 1.95606C9.94617 1.93492 9.91311 1.90657 9.88648 1.87263C9.85986 1.83869 9.8402 1.79983 9.82863 1.75827C9.81706 1.71672 9.81381 1.67328 9.81906 1.63047C9.82344 1.59656 9.82563 1.56156 9.82563 1.52656C9.82563 1.20719 9.64844 0.96875 9.49094 0.96875C9.33344 0.96875 9.15625 1.20719 9.15625 1.52656C9.15625 1.84594 9.33344 2.08438 9.49094 2.08438C9.6725 2.08438 9.81906 2.23094 9.81906 2.4125C9.81906 2.59406 9.6725 2.74063 9.49094 2.74063Z" fill="black" fill-opacity="0.2"/>
<path d="M9.72656 1.48438H10.5841V2.14937H9.72656V1.48438Z" fill="#D8D7E8"/>
</g>
<defs>
<clipPath id="clip0_4413_163540">
<rect width="14" height="14" fill="white"/>
</clipPath>
</defs>
</svg>
