<svg width="20" height="20" viewBox="0 0 20 20" fill="none" xmlns="http://www.w3.org/2000/svg">
<path d="M16.5923 2.5H5.28274C4.954 2.5 4.6875 2.7665 4.6875 3.09524V18.5714C4.6875 18.9002 4.954 19.1667 5.28274 19.1667H16.5923C16.921 19.1667 17.1875 18.9002 17.1875 18.5714V3.09524C17.1875 2.7665 16.921 2.5 16.5923 2.5Z" fill="#68589F"/>
<path d="M14.7173 0.835938H3.40774C3.079 0.835938 2.8125 1.10243 2.8125 1.43118V16.9074C2.8125 17.2361 3.079 17.5026 3.40774 17.5026H14.7173C15.046 17.5026 15.3125 17.2361 15.3125 16.9074V1.43118C15.3125 1.10243 15.046 0.835938 14.7173 0.835938Z" fill="#DDDDED"/>
<path d="M4.6875 2.5H13.4375V4.375H4.6875V2.5Z" fill="#9991BF"/>
<path d="M4.6875 6.25H6.5625V8.125H4.6875V6.25ZM4.6875 10.1562H6.5625V12.0312H4.6875V10.1562ZM4.6875 14.0625H6.5625V15.9375H4.6875V14.0625Z" fill="#9991BF"/>
<path d="M4.6875 4.6875H13.4375C13.5204 4.6875 13.5999 4.65458 13.6585 4.59597C13.7171 4.53737 13.75 4.45788 13.75 4.375V2.5C13.75 2.41712 13.7171 2.33763 13.6585 2.27903C13.5999 2.22042 13.5204 2.1875 13.4375 2.1875H4.6875C4.60462 2.1875 4.52513 2.22042 4.46653 2.27903C4.40792 2.33763 4.375 2.41712 4.375 2.5V4.375C4.375 4.45788 4.40792 4.53737 4.46653 4.59597C4.52513 4.65458 4.60462 4.6875 4.6875 4.6875ZM5 2.8125H13.125V4.0625H5V2.8125ZM4.6875 8.4375H6.5625C6.64538 8.4375 6.72487 8.40458 6.78347 8.34597C6.84208 8.28737 6.875 8.20788 6.875 8.125V6.25C6.875 6.16712 6.84208 6.08763 6.78347 6.02903C6.72487 5.97042 6.64538 5.9375 6.5625 5.9375H4.6875C4.60462 5.9375 4.52513 5.97042 4.46653 6.02903C4.40792 6.08763 4.375 6.16712 4.375 6.25V8.125C4.375 8.20788 4.40792 8.28737 4.46653 8.34597C4.52513 8.40458 4.60462 8.4375 4.6875 8.4375ZM5 6.5625H6.25V7.8125H5V6.5625ZM13.4375 5.9375H9.6875C9.60462 5.9375 9.52513 5.97042 9.46653 6.02903C9.40792 6.08763 9.375 6.16712 9.375 6.25C9.375 6.33288 9.40792 6.41237 9.46653 6.47097C9.52513 6.52958 9.60462 6.5625 9.6875 6.5625H13.4375C13.5204 6.5625 13.5999 6.52958 13.6585 6.47097C13.7171 6.41237 13.75 6.33288 13.75 6.25C13.75 6.16712 13.7171 6.08763 13.6585 6.02903C13.5999 5.97042 13.5204 5.9375 13.4375 5.9375ZM13.4375 7.8125H8.4375C8.35462 7.8125 8.27513 7.84542 8.21653 7.90403C8.15792 7.96263 8.125 8.04212 8.125 8.125C8.125 8.20788 8.15792 8.28737 8.21653 8.34597C8.27513 8.40458 8.35462 8.4375 8.4375 8.4375H13.4375C13.5204 8.4375 13.5999 8.40458 13.6585 8.34597C13.7171 8.28737 13.75 8.20788 13.75 8.125C13.75 8.04212 13.7171 7.96263 13.6585 7.90403C13.5999 7.84542 13.5204 7.8125 13.4375 7.8125ZM4.6875 12.3438H6.5625C6.64538 12.3438 6.72487 12.3108 6.78347 12.2522C6.84208 12.1936 6.875 12.1141 6.875 12.0312V10.1562C6.875 10.0734 6.84208 9.99388 6.78347 9.93528C6.72487 9.87667 6.64538 9.84375 6.5625 9.84375H4.6875C4.60462 9.84375 4.52513 9.87667 4.46653 9.93528C4.40792 9.99388 4.375 10.0734 4.375 10.1562V12.0312C4.375 12.1141 4.40792 12.1936 4.46653 12.2522C4.52513 12.3108 4.60462 12.3438 4.6875 12.3438ZM5 10.4688H6.25V11.7188H5V10.4688ZM13.4375 9.84375H9.6875C9.60462 9.84375 9.52513 9.87667 9.46653 9.93528C9.40792 9.99388 9.375 10.0734 9.375 10.1562C9.375 10.2391 9.40792 10.3186 9.46653 10.3772C9.52513 10.4358 9.60462 10.4688 9.6875 10.4688H13.4375C13.5204 10.4688 13.5999 10.4358 13.6585 10.3772C13.7171 10.3186 13.75 10.2391 13.75 10.1562C13.75 10.0734 13.7171 9.99388 13.6585 9.93528C13.5999 9.87667 13.5204 9.84375 13.4375 9.84375ZM13.4375 11.7188H8.4375C8.35462 11.7188 8.27513 11.7517 8.21653 11.8103C8.15792 11.8689 8.125 11.9484 8.125 12.0312C8.125 12.1141 8.15792 12.1936 8.21653 12.2522C8.27513 12.3108 8.35462 12.3438 8.4375 12.3438H13.4375C13.5204 12.3438 13.5999 12.3108 13.6585 12.2522C13.7171 12.1936 13.75 12.1141 13.75 12.0312C13.75 11.9484 13.7171 11.8689 13.6585 11.8103C13.5999 11.7517 13.5204 11.7188 13.4375 11.7188ZM4.6875 16.25H6.5625C6.64538 16.25 6.72487 16.2171 6.78347 16.1585C6.84208 16.0999 6.875 16.0204 6.875 15.9375V14.0625C6.875 13.9796 6.84208 13.9001 6.78347 13.8415C6.72487 13.7829 6.64538 13.75 6.5625 13.75H4.6875C4.60462 13.75 4.52513 13.7829 4.46653 13.8415C4.40792 13.9001 4.375 13.9796 4.375 14.0625V15.9375C4.375 16.0204 4.40792 16.0999 4.46653 16.1585C4.52513 16.2171 4.60462 16.25 4.6875 16.25ZM5 14.375H6.25V15.625H5V14.375ZM13.4375 13.75H9.6875C9.60462 13.75 9.52513 13.7829 9.46653 13.8415C9.40792 13.9001 9.375 13.9796 9.375 14.0625C9.375 14.1454 9.40792 14.2249 9.46653 14.2835C9.52513 14.3421 9.60462 14.375 9.6875 14.375H13.4375C13.5204 14.375 13.5999 14.3421 13.6585 14.2835C13.7171 14.2249 13.75 14.1454 13.75 14.0625C13.75 13.9796 13.7171 13.9001 13.6585 13.8415C13.5999 13.7829 13.5204 13.75 13.4375 13.75ZM13.4375 15.625H8.4375C8.35462 15.625 8.27513 15.6579 8.21653 15.7165C8.15792 15.7751 8.125 15.8546 8.125 15.9375C8.125 16.0204 8.15792 16.0999 8.21653 16.1585C8.27513 16.2171 8.35462 16.25 8.4375 16.25H13.4375C13.5204 16.25 13.5999 16.2171 13.6585 16.1585C13.7171 16.0999 13.75 16.0204 13.75 15.9375C13.75 15.8546 13.7171 15.7751 13.6585 15.7165C13.5999 15.6579 13.5204 15.625 13.4375 15.625Z" fill="#9991BF"/>
</svg>
