<svg width="242" height="242" viewBox="0 0 242 242" fill="none" xmlns="http://www.w3.org/2000/svg">
<g clip-path="url(#clip0_3976_128722)">
<path d="M242 0H0V242H242V0Z" fill="white"/>
<path d="M73.2616 46.5388C73.2616 46.5388 100.245 74.4225 153.36 38.2208C200.532 6.06983 224.865 71.993 220.625 101.117C215.132 138.845 168.94 162.6 185.297 190.451C201.655 218.303 135.209 249.915 108.23 209.557C74.6688 159.354 58.2424 193.421 35.2533 189.883C18.7542 187.345 -8.81215 141.136 18.7561 114.156C41.9542 91.4525 32.7669 81.3192 29.0516 71.6391C23.6933 57.678 46.4686 25.5264 73.2616 46.5388Z" fill="#F3F4F9"/>
<path d="M127.307 75.5078H113.781V91.702H127.307V75.5078Z" fill="#68589F"/>
<path d="M130.484 70.5859H110.609V75.4932H130.484V70.5859Z" fill="#BBB8D6"/>
<path d="M157.972 88.9582L146.734 81.4297L137.721 94.8838L148.958 102.412L157.972 88.9582Z" fill="#68589F"/>
<path d="M163.34 86.6483L146.828 75.5859L144.097 79.6629L160.609 90.7253L163.34 86.6483Z" fill="#BBB8D6"/>
<path d="M92.1143 102.403L103.352 94.875L94.3379 81.4209L83.1006 88.9494L92.1143 102.403Z" fill="#68589F"/>
<path d="M80.4644 90.7187L96.9766 79.6562L94.2452 75.5793L77.733 86.6417L80.4644 90.7187Z" fill="#BBB8D6"/>
<path d="M158.408 171.592C179.32 150.679 179.32 116.774 158.408 95.8615C137.495 74.9492 103.59 74.9492 82.6775 95.8615C61.7653 116.774 61.7653 150.679 82.6775 171.592C103.59 192.504 137.495 192.504 158.408 171.592Z" fill="#BBB8D6"/>
<path d="M120.544 180.032C146.115 180.032 166.845 159.303 166.845 133.731C166.845 108.16 146.115 87.4297 120.544 87.4297C94.972 87.4297 74.2422 108.16 74.2422 133.731C74.2422 159.303 94.972 180.032 120.544 180.032Z" fill="white"/>
<path d="M120.544 95.292C121.764 95.292 122.753 94.3032 122.753 93.0835C122.753 91.8638 121.764 90.875 120.544 90.875C119.325 90.875 118.336 91.8638 118.336 93.0835C118.336 94.3032 119.325 95.292 120.544 95.292Z" fill="#8A7EB5"/>
<path d="M122.753 174.396C122.753 175.616 121.764 176.604 120.544 176.604C119.325 176.604 118.336 175.616 118.336 174.396C118.336 173.176 119.325 172.188 120.544 172.188C121.764 172.188 122.753 173.176 122.753 174.396Z" fill="#8A7EB5"/>
<path d="M161.201 135.933C162.42 135.933 163.409 134.944 163.409 133.724C163.409 132.504 162.42 131.516 161.201 131.516C159.981 131.516 158.992 132.504 158.992 133.724C158.992 134.944 159.981 135.933 161.201 135.933Z" fill="#8A7EB5"/>
<path d="M79.8882 135.933C81.1079 135.933 82.0967 134.944 82.0967 133.724C82.0967 132.504 81.1079 131.516 79.8882 131.516C78.6685 131.516 77.6797 132.504 77.6797 133.724C77.6797 134.944 78.6685 135.933 79.8882 135.933Z" fill="#8A7EB5"/>
<path d="M150.855 103.422L146.258 108.019" stroke="#473289" stroke-width="0.968" stroke-miterlimit="10" stroke-linecap="round"/>
<path d="M94.8319 159.453L90.2344 164.051" stroke="#473289" stroke-width="0.968" stroke-miterlimit="10" stroke-linecap="round"/>
<path d="M90.2344 103.422L94.8319 108.019" stroke="#473289" stroke-width="0.968" stroke-miterlimit="10" stroke-linecap="round"/>
<path d="M146.258 159.453L150.855 164.051" stroke="#473289" stroke-width="0.968" stroke-miterlimit="10" stroke-linecap="round"/>
<path d="M118.109 131.201L142.288 113.055L122.949 136.291C121.596 137.917 119.127 137.999 117.669 136.466C116.211 134.932 116.417 132.471 118.109 131.201Z" fill="#473289"/>
<path d="M94.0536 65.4569H27.0908C26.2641 65.4569 25.5938 64.8102 25.5938 64.0126V63.7413C25.5938 62.9436 26.2641 62.2969 27.0908 62.2969H94.0536C94.8803 62.2969 95.5506 62.9436 95.5506 63.7413V64.0126C95.5506 64.8102 94.8803 65.4569 94.0536 65.4569Z" fill="#68589F"/>
<path d="M94.0536 187.293H27.0908C26.2641 187.293 25.5938 186.646 25.5938 185.849V185.577C25.5938 184.78 26.2641 184.133 27.0908 184.133H94.0536C94.8803 184.133 95.5506 184.78 95.5506 185.577V185.849C95.5506 186.646 94.8803 187.293 94.0536 187.293Z" fill="#68589F"/>
<path d="M83.2613 147.757C80.5006 143.448 76.9015 140.514 72.9245 137.332C69.9847 134.979 62.7344 129.247 62.9343 124.793C62.7344 120.339 69.9847 114.606 72.9245 112.254C76.902 109.071 80.5006 106.137 83.2613 101.829C85.9204 97.6787 87.6923 93.0523 88.9309 88.3376C89.2968 86.9456 92.6528 65.4531 91.7497 65.4531C91.7487 65.4531 60.5689 65.4531 60.5689 65.4531C60.5689 65.4531 29.3892 65.4531 29.3882 65.4531C28.4846 65.4531 31.8411 86.9456 32.207 88.3376C33.4461 93.0523 35.2175 97.6787 37.8766 101.829C40.6373 106.137 44.2364 109.071 48.2134 112.254C51.1532 114.606 58.4035 120.339 58.2036 124.793C58.4035 129.247 51.1532 134.979 48.2134 137.332C44.2359 140.514 40.6373 143.448 37.8766 147.757C35.2175 151.907 33.4456 156.533 32.207 161.248C31.8411 162.64 28.4851 184.132 29.3882 184.132C29.3892 184.132 60.5689 184.132 60.5689 184.132C60.5689 184.132 91.7487 184.132 91.7497 184.132C92.6533 184.132 89.2968 162.64 88.9309 161.248C87.6918 156.533 85.9204 151.907 83.2613 147.757Z" fill="#DDDDED"/>
<path d="M72.1666 110.284C75.9002 107.237 79.278 104.426 81.8699 100.3C84.3663 96.3255 86.0289 91.8948 87.1919 87.3795C87.2698 87.076 87.4939 85.7721 87.7829 83.942C85.2898 83.8454 82.7585 84.0709 80.2891 84.4258C75.6476 85.0932 71.0515 86.1868 66.361 86.3279C59.6775 86.5287 53.113 84.7906 46.669 83.0674C41.9979 81.8182 37.3273 80.569 32.6562 79.3203C33.2443 83.3667 33.8116 86.8565 33.9466 87.3795C35.1096 91.8948 36.7722 96.3255 39.2687 100.3C41.86 104.426 45.2383 107.236 48.9719 110.284C51.7317 112.537 59.7728 118.027 59.585 122.293V155.858C40.0644 156.754 35.0099 184.142 35.0099 184.142H60.5695H86.1291C86.1291 184.142 81.0746 156.754 61.554 155.858V122.293C61.3657 118.027 69.4069 112.537 72.1666 110.284Z" fill="#9991BF"/>
<path d="M39.7613 161.247C41.0003 156.533 42.7718 151.906 45.4309 147.756C48.1916 143.448 51.7906 140.514 55.7677 137.331C57.8581 135.659 62.125 132.277 64.3461 128.862C63.4434 127.474 62.8767 126.08 62.9343 124.792C62.8762 123.505 63.4429 122.111 64.3461 120.722C62.125 117.307 57.8581 113.926 55.7677 112.253C51.7902 109.071 48.1916 106.137 45.4309 101.828C42.7718 97.6782 40.9999 93.0518 39.7613 88.3372C39.3954 86.9451 36.0393 65.4531 36.9425 65.4531C32.5918 65.4531 29.3882 65.4531 29.3882 65.4531C28.4846 65.4531 31.8411 86.9456 32.207 88.3372C33.4461 93.0518 35.2175 97.6782 37.8766 101.828C40.6373 106.137 44.2364 109.071 48.2134 112.253C51.1532 114.605 58.4035 120.338 58.2036 124.792C58.4035 129.246 51.1532 134.979 48.2134 137.331C44.2359 140.513 40.6373 143.448 37.8766 147.756C35.2175 151.906 33.4456 156.533 32.207 161.247C31.8411 162.639 28.4851 184.132 29.3882 184.132C29.3882 184.132 32.5918 184.132 36.9425 184.132C36.0389 184.132 39.3954 162.639 39.7613 161.247Z" fill="#DDDDED"/>
<path opacity="0.5" d="M83.2681 147.756C80.5073 143.448 76.9083 140.514 72.9313 137.331C69.9915 134.979 62.7411 129.246 62.941 124.792C62.7411 120.338 69.991 114.605 72.9313 112.253C76.9088 109.071 80.5073 106.137 83.2681 101.828C85.9272 97.6782 87.6991 93.0518 88.9376 88.3372C89.3035 86.9451 92.6596 65.4531 91.7564 65.4531C91.7564 65.4531 91.3126 65.4531 90.5382 65.4531C91.4419 65.4531 88.0853 86.9456 87.7194 88.3372C86.4804 93.0518 84.7089 97.6782 82.0498 101.828C79.2891 106.137 75.6901 109.071 71.713 112.253C68.7732 114.605 61.5229 120.338 61.7228 124.792C61.5229 129.246 68.7727 134.979 71.713 137.331C75.6906 140.513 79.2891 143.448 82.0498 147.756C84.7089 151.906 86.4808 156.533 87.7194 161.247C88.0853 162.639 91.4414 184.132 90.5382 184.132C91.3126 184.132 91.7564 184.132 91.7564 184.132C92.6601 184.132 89.3035 162.639 88.9376 161.247C87.6986 156.533 85.9272 151.906 83.2681 147.756Z" fill="#DDDDED"/>
<path d="M225.088 187.297H16V189.98H225.088V187.297Z" fill="#473289"/>
<path d="M194.11 158.206H172.351C171.454 158.206 170.727 157.478 170.727 156.581V156.046C170.727 155.149 171.454 154.422 172.351 154.422H194.11C195.007 154.422 195.735 155.149 195.735 156.046V156.581C195.735 157.479 195.007 158.206 194.11 158.206Z" fill="#9991BF"/>
<path d="M174.525 158.203L170.086 187.283H171.369L177.373 158.203H174.525Z" fill="#473289"/>
<path d="M191.935 158.203L196.374 187.283H195.09L189.086 158.203H191.935Z" fill="#473289"/>
<path d="M171.687 106.691C171.687 107.5 171.031 108.156 170.222 108.156C169.414 108.156 168.758 107.5 168.758 106.691C168.758 105.882 169.414 105.227 170.222 105.227C171.031 105.227 171.687 105.882 171.687 106.691Z" fill="white"/>
<path d="M182.027 108.289L173.18 110.483L177.723 115.419L182.027 108.289Z" fill="#8A7EB5"/>
<path d="M180.477 104.688L181.443 109.251L193.515 112.925C195.478 113.522 196.959 115.142 197.38 117.15L202.027 138.531C202.42 140.408 200.988 142.171 199.07 142.171H159.844L164.27 117.75C164.643 115.964 165.869 114.474 167.549 113.763L177.596 109.516L178.259 104.688H180.477Z" fill="white"/>
<path opacity="0.5" d="M176.797 111.745C179.015 111.326 180.652 109.6 181.071 107.515L180.472 104.688H178.254L177.591 109.516L173.422 111.279C174.432 111.778 175.604 111.97 176.797 111.745Z" fill="white"/>
<path d="M162.196 129.148H167.313L168.833 142.172H159.836L162.196 129.148Z" fill="white"/>
<path opacity="0.4" d="M166.616 129.148L165.461 142.172H168.835L167.315 129.148H166.616Z" fill="white"/>
<path d="M172.775 111.554L177.72 115.408L182.574 109.602L193.919 113.054C195.657 113.583 197.032 114.919 197.611 116.641L201.729 128.887H191.25L193.262 137.134L175.222 137.93V142.175H168.831L167.311 129.152H160.375L163.005 118.144C163.415 116.424 164.62 115.001 166.249 114.312L172.775 111.554Z" fill="#AAA5CB"/>
<path d="M190.797 126.859V137.237L193.267 137.128L190.797 126.859Z" fill="#BBB8D6"/>
<path d="M167.311 129.158H160.375L160.803 127.367H167.102L167.311 129.158Z" fill="#DDDDED"/>
<path d="M177.719 115.414C178.02 117.269 178.269 119.131 178.51 120.993C178.752 122.855 178.95 124.721 179.173 126.585C179.356 128.453 179.56 130.319 179.724 132.189L179.96 134.995C180.021 135.933 180.099 136.868 180.146 137.807C179.99 136.88 179.865 135.95 179.724 135.021L179.353 132.229C179.113 130.367 178.912 128.501 178.691 126.637C178.509 124.768 178.303 122.903 178.14 121.032C177.978 119.162 177.822 117.291 177.719 115.414Z" fill="#473289"/>
<path d="M175.229 137.931L168.265 136.586L160.25 140.22H175.229V137.931Z" fill="white"/>
<path d="M161.003 136.586L145.078 138.296V142.177H159.835L161.003 136.586Z" fill="white" stroke="#473289" stroke-width="0.484" stroke-miterlimit="10"/>
<path d="M164.876 140.228H138.08L133.547 121.898H160.343L164.876 140.228Z" fill="#DDDDED"/>
<path d="M179.664 140.227H138.078V142.183H179.664V140.227Z" fill="#8A7EB5"/>
<path d="M168.258 136.59C168.032 135.57 167.858 134.543 167.693 133.516C167.522 132.489 167.389 131.457 167.256 130.426C167.135 129.393 167.014 128.36 166.93 127.322L166.807 125.766C166.783 125.245 166.743 124.726 166.734 124.203C166.852 124.713 166.939 125.226 167.043 125.737L167.3 127.277C167.471 128.304 167.604 129.335 167.736 130.367C167.857 131.4 167.978 132.433 168.061 133.47C168.15 134.507 168.23 135.545 168.258 136.59Z" fill="#473289"/>
<path d="M177.726 115.413L175.803 117.801L172.781 111.559L173.183 110.477L177.726 115.413Z" fill="#DDDDED"/>
<path d="M177.727 115.419L180.545 117.807L182.581 109.612L182.03 108.289L177.727 115.419Z" fill="#DDDDED"/>
<path d="M190.797 126.859H201.054L201.734 128.881H191.255L190.797 126.859Z" fill="#DDDDED"/>
<path d="M184.723 144.438L185.893 149.953C186.382 152.256 184.626 154.424 182.272 154.424H157.63L160.416 180.788H153.531L145.132 150.751C144.245 147.58 146.629 144.438 149.922 144.438L184.723 144.438Z" fill="#473289"/>
<path d="M196.263 144.438L197.433 149.953C197.922 152.256 196.165 154.424 193.811 154.424H169.17L171.955 180.788H165.071L156.671 150.751C155.784 147.58 158.168 144.438 161.461 144.438L196.263 144.438Z" fill="#68589F"/>
<path d="M153.533 180.781L141.609 187.281H162.07L160.417 180.781H153.533Z" fill="#9991BF"/>
<path d="M165.072 180.781L153.148 187.281H173.61L171.957 180.781H165.072Z" fill="#AAA5CB"/>
<path d="M182.308 103.669C182.308 104.48 181.654 105.135 180.842 105.135C180.735 105.135 180.628 105.124 180.532 105.101C180.515 104.966 180.492 104.824 180.47 104.689L180.047 102.44C180.278 102.288 180.549 102.203 180.842 102.203C181.654 102.203 182.308 102.862 182.308 103.669Z" fill="white"/>
<path d="M176.181 110.985C173.262 111.537 170.448 109.618 169.897 106.699L169.134 102.66C168.582 99.7411 170.501 96.9271 173.42 96.3758C176.339 95.824 179.153 97.7436 179.705 100.663L180.468 104.701C181.02 107.62 179.101 110.434 176.181 110.985Z" fill="white"/>
<path d="M180.352 104.06L178.937 101.714L178.652 99.6659C178.652 99.6659 175.999 101.324 172.085 100.263C172.085 100.263 171.23 102.064 169.137 102.656L169.679 103.675L169.901 106.694C169.901 106.694 168.071 103.778 167.79 101.921C167.509 100.064 168.172 97.2779 169.631 96.4159C169.631 96.4159 172.641 92.1049 177.603 94.8903C182.565 97.6757 180.352 104.06 180.352 104.06Z" fill="#473289"/>
<path d="M193.268 137.138C192.888 135.969 192.561 134.787 192.241 133.603C191.916 132.421 191.628 131.23 191.34 130.039C191.063 128.845 190.787 127.651 190.548 126.448L190.191 124.644C190.089 124.039 189.97 123.437 189.883 122.828C190.077 123.412 190.241 124.002 190.422 124.589L190.91 126.363C191.235 127.545 191.524 128.736 191.811 129.927C192.087 131.121 192.363 132.315 192.602 133.518C192.846 134.72 193.083 135.923 193.268 137.138Z" fill="#473289"/>
<path d="M215.953 142.188H118.68V144.439H215.953V142.188Z" fill="#BBB8D6"/>
<path d="M126.048 144.445L117.969 187.296H120.455L129.753 144.445H126.048Z" fill="#473289"/>
<path d="M208.58 144.445L216.659 187.296H214.174L204.875 144.445H208.58Z" fill="#473289"/>
<path d="M84.5568 73.4688C84.5568 73.4688 83.6774 89.3614 75.25 98.4722" stroke="white" stroke-width="1.936" stroke-miterlimit="10" stroke-linecap="round"/>
<path d="M70.6719 137.82C70.6719 137.82 80.8291 144.718 84.0182 155.65" stroke="white" stroke-width="1.936" stroke-miterlimit="10" stroke-linecap="round"/>
<path opacity="0.5" d="M133.547 121.898C133.547 121.898 140.512 137.373 164.875 140.228H138.08L133.547 121.898Z" fill="#EDEEF6"/>
</g>
<defs>
<clipPath id="clip0_3976_128722">
<rect width="242" height="242" fill="white"/>
</clipPath>
</defs>
</svg>
