<svg width="24" height="24" viewBox="0 0 24 24" fill="none" xmlns="http://www.w3.org/2000/svg">
<path d="M7.04764 3.38281V7.32618C7.04764 9.55376 8.85107 11.3834 11.2221 11.7193V13.011C8.85107 13.3483 7.04688 15.1779 7.04688 17.4055V20.6242H16.9654V17.4055C16.9654 15.1779 15.1619 13.3482 12.7909 13.0117V11.72C15.1619 11.3835 16.9654 9.55307 16.9654 7.32618V3.38281H7.04764Z" fill="#D8D7E8"/>
<path fill-rule="evenodd" clip-rule="evenodd" d="M18.4531 2.6875V21.3081H19.2623V2.6875H18.4531Z" fill="#473289"/>
<path d="M8.1875 4.41406V7.3802H8.19207C8.20931 8.16343 8.52067 8.91802 9.07488 9.51971C9.6291 10.1214 10.3931 10.5344 11.2412 10.6906C11.997 10.8285 11.997 11.3098 11.997 11.3098C11.997 11.3098 11.997 10.8299 12.7612 10.6892C13.6075 10.5316 14.3694 10.1181 14.922 9.51684C15.4745 8.91558 15.7848 8.16213 15.802 7.3802H15.8065V4.41406H8.1875ZM11.997 17.8623C11.997 17.8623 11.997 18.1333 11.2275 18.2781C10.3232 18.4515 9.51924 18.9165 8.9654 19.5864H15.0286C14.4744 18.9162 13.6699 18.4512 12.765 18.2781C11.997 18.1333 11.997 17.8623 11.997 17.8623Z" fill="#8A7EB5"/>
<path d="M4.7619 20.6207H19.2381C19.6602 20.6207 20 20.9283 20 21.3103C20 21.6924 19.6602 22 19.2381 22H4.7619C4.33981 22 4 21.6924 4 21.3103C4 20.9283 4.33981 20.6207 4.7619 20.6207ZM4.7619 2H19.2381C19.6602 2 20 2.30759 20 2.68965C20 3.07172 19.6602 3.37935 19.2381 3.37935H4.7619C4.33981 3.37935 4 3.07172 4 2.68965C4 2.30759 4.33981 2 4.7619 2Z" fill="#473289"/>
<path fill-rule="evenodd" clip-rule="evenodd" d="M4.73438 2.6875V21.3081H5.54276V2.6875H4.73438Z" fill="#473289"/>
</svg>
