<svg width="24" height="24" viewBox="0 0 24 24" fill="none" xmlns="http://www.w3.org/2000/svg">
<g clip-path="url(#clip0_2978_67928)">
<path d="M15.4375 2.3125H8.5625C7.87214 2.3125 7.3125 2.87214 7.3125 3.5625V6.0625C7.3125 6.75286 7.87214 7.3125 8.5625 7.3125H15.4375C16.1279 7.3125 16.6875 6.75286 16.6875 6.0625V3.5625C16.6875 2.87214 16.1279 2.3125 15.4375 2.3125Z" fill="#8A7EB5"/>
<path d="M7.9375 6.0625V3.5625C7.9375 3.23098 8.0692 2.91304 8.30362 2.67862C8.53804 2.4442 8.85598 2.3125 9.1875 2.3125H8.5625C8.23098 2.3125 7.91304 2.4442 7.67862 2.67862C7.4442 2.91304 7.3125 3.23098 7.3125 3.5625V6.0625C7.3125 6.39402 7.4442 6.71196 7.67862 6.94638C7.91304 7.1808 8.23098 7.3125 8.5625 7.3125H9.1875C8.85598 7.3125 8.53804 7.1808 8.30362 6.94638C8.0692 6.71196 7.9375 6.39402 7.9375 6.0625Z" fill="#AAA5CB"/>
<path d="M15.4375 16.6875H8.5625C7.87214 16.6875 7.3125 17.2471 7.3125 17.9375V20.4375C7.3125 21.1279 7.87214 21.6875 8.5625 21.6875H15.4375C16.1279 21.6875 16.6875 21.1279 16.6875 20.4375V17.9375C16.6875 17.2471 16.1279 16.6875 15.4375 16.6875Z" fill="#8A7EB5"/>
<path d="M7.9375 20.4375V17.9375C7.9375 17.606 8.0692 17.288 8.30362 17.0536C8.53804 16.8192 8.85598 16.6875 9.1875 16.6875H8.5625C8.23098 16.6875 7.91304 16.8192 7.67862 17.0536C7.4442 17.288 7.3125 17.606 7.3125 17.9375V20.4375C7.3125 20.769 7.4442 21.087 7.67862 21.3214C7.91304 21.5558 8.23098 21.6875 8.5625 21.6875H9.1875C8.85598 21.6875 8.53804 21.5558 8.30362 21.3214C8.0692 21.087 7.9375 20.769 7.9375 20.4375Z" fill="#AAA5CB"/>
<path d="M17.4385 13.5075C17.3974 13.5075 17.3568 13.4995 17.3189 13.4838C17.2809 13.4681 17.2465 13.445 17.2175 13.4159L16.3337 12.5321C16.3047 12.5031 16.2817 12.4687 16.266 12.4308C16.2503 12.3929 16.2422 12.3522 16.2422 12.3112C16.2422 12.2702 16.2503 12.2295 16.266 12.1916C16.2817 12.1537 16.3047 12.1193 16.3337 12.0903L17.2175 11.2065C17.2763 11.1489 17.3555 11.1168 17.4378 11.1172C17.5201 11.1176 17.599 11.1505 17.6572 11.2087C17.7154 11.2669 17.7483 11.3458 17.7487 11.4281C17.7491 11.5104 17.717 11.5896 17.6594 11.6484L16.9966 12.3112L17.6594 12.974C17.7031 13.0177 17.7329 13.0734 17.7449 13.134C17.757 13.1947 17.7508 13.2575 17.7272 13.3146C17.7035 13.3717 17.6635 13.4205 17.6121 13.4548C17.5607 13.4892 17.5003 13.5075 17.4385 13.5075Z" fill="#473289"/>
<path d="M20.434 12.625H16.684C16.6011 12.625 16.5217 12.5921 16.463 12.5335C16.4044 12.4749 16.3715 12.3954 16.3715 12.3125C16.3715 12.2296 16.4044 12.1501 16.463 12.0915C16.5217 12.0329 16.6011 12 16.684 12H20.434C20.6826 11.9997 20.9209 11.9009 21.0966 11.7251C21.2724 11.5494 21.3713 11.3111 21.3715 11.0625V6.6875C21.3713 6.43894 21.2724 6.20064 21.0966 6.02489C20.9209 5.84913 20.6826 5.75027 20.434 5.75H17.934C17.8511 5.75 17.7717 5.71708 17.713 5.65847C17.6544 5.59987 17.6215 5.52038 17.6215 5.4375C17.6215 5.35462 17.6544 5.27513 17.713 5.21653C17.7717 5.15792 17.8511 5.125 17.934 5.125H20.434C20.8483 5.12538 21.2455 5.29013 21.5385 5.58307C21.8314 5.87601 21.9961 6.27322 21.9965 6.6875V11.0625C21.9961 11.4768 21.8314 11.874 21.5385 12.1669C21.2455 12.4599 20.8483 12.6246 20.434 12.625ZM5.30465 20.3838C5.24285 20.3838 5.18243 20.3654 5.13105 20.3311C5.07967 20.2968 5.03962 20.248 5.01597 20.1909C4.99232 20.1338 4.98614 20.0709 4.99819 20.0103C5.01024 19.9497 5.04 19.894 5.0837 19.8503L5.74652 19.1875L5.08368 18.5247C5.02606 18.4659 4.99397 18.3867 4.99438 18.3044C4.9948 18.222 5.02768 18.1432 5.0859 18.085C5.14411 18.0268 5.22294 17.9939 5.30527 17.9935C5.38759 17.9931 5.46675 18.0252 5.52555 18.0828L6.40934 18.9666C6.43836 18.9956 6.46138 19.03 6.47709 19.0679C6.4928 19.1058 6.50088 19.1465 6.50088 19.1875C6.50088 19.2285 6.4928 19.2692 6.47709 19.3071C6.46138 19.345 6.43836 19.3794 6.40934 19.4084L5.52557 20.2922C5.49659 20.3213 5.46216 20.3443 5.42424 20.3601C5.38633 20.3758 5.34569 20.3838 5.30465 20.3838Z" fill="#473289"/>
<path d="M6.0625 19.5H3.5625C3.14822 19.4996 2.75101 19.3349 2.45807 19.0419C2.16513 18.749 2.00038 18.3518 2 17.9375V13.5625C2.00038 13.1482 2.16513 12.751 2.45807 12.4581C2.75101 12.1651 3.14822 12.0004 3.5625 12H7.3125C7.39538 12 7.47487 12.0329 7.53347 12.0915C7.59208 12.1501 7.625 12.2296 7.625 12.3125C7.625 12.3954 7.59208 12.4749 7.53347 12.5335C7.47487 12.5921 7.39538 12.625 7.3125 12.625H3.5625C3.31394 12.6253 3.07564 12.7241 2.89989 12.8999C2.72413 13.0756 2.62527 13.3139 2.625 13.5625V17.9375C2.62527 18.1861 2.72413 18.4244 2.89989 18.6001C3.07564 18.7759 3.31394 18.8747 3.5625 18.875H6.0625C6.14538 18.875 6.22487 18.9079 6.28347 18.9665C6.34208 19.0251 6.375 19.1046 6.375 19.1875C6.375 19.2704 6.34208 19.3499 6.28347 19.4085C6.22487 19.4671 6.14538 19.5 6.0625 19.5Z" fill="#473289"/>
<path d="M12 15.75C11.2583 15.75 10.5333 15.5301 9.91661 15.118C9.29993 14.706 8.81928 14.1203 8.53545 13.4351C8.25162 12.7498 8.17736 11.9958 8.32206 11.2684C8.46675 10.541 8.8239 9.8728 9.34835 9.34835C9.8728 8.8239 10.541 8.46675 11.2684 8.32206C11.9958 8.17736 12.7498 8.25162 13.4351 8.53545C14.1203 8.81928 14.706 9.29993 15.118 9.91661C15.5301 10.5333 15.75 11.2583 15.75 12C15.7489 12.9942 15.3535 13.9474 14.6505 14.6505C13.9474 15.3535 12.9942 15.7489 12 15.75ZM12 8.875C11.3819 8.875 10.7777 9.05828 10.2638 9.40166C9.74994 9.74504 9.3494 10.2331 9.11288 10.8041C8.87635 11.3751 8.81447 12.0035 8.93505 12.6097C9.05563 13.2158 9.35325 13.7727 9.79029 14.2097C10.2273 14.6467 10.7842 14.9444 11.3903 15.065C11.9965 15.1855 12.6249 15.1236 13.1959 14.8871C13.7669 14.6506 14.255 14.2501 14.5983 13.7362C14.9417 13.2223 15.125 12.6181 15.125 12C15.124 11.1715 14.7945 10.3772 14.2086 9.79137C13.6228 9.20553 12.8285 8.87598 12 8.875Z" fill="#8A7EB5"/>
<path d="M12 15.125C13.7259 15.125 15.125 13.7259 15.125 12C15.125 10.2741 13.7259 8.875 12 8.875C10.2741 8.875 8.875 10.2741 8.875 12C8.875 13.7259 10.2741 15.125 12 15.125Z" fill="white"/>
<path d="M13.4062 12.3125H12.625C12.5421 12.3125 12.4626 12.2796 12.404 12.221C12.3454 12.1624 12.3125 12.0829 12.3125 12C12.3125 11.9171 12.3454 11.8376 12.404 11.779C12.4626 11.7204 12.5421 11.6875 12.625 11.6875H13.4062C13.4891 11.6875 13.5686 11.7204 13.6272 11.779C13.6858 11.8376 13.7188 11.9171 13.7188 12C13.7188 12.0829 13.6858 12.1624 13.6272 12.221C13.5686 12.2796 13.4891 12.3125 13.4062 12.3125ZM12 11.6875C11.959 11.6875 11.9183 11.6795 11.8804 11.6638C11.8425 11.6481 11.808 11.625 11.779 11.596C11.75 11.567 11.7269 11.5325 11.7112 11.4946C11.6955 11.4567 11.6875 11.416 11.6875 11.375V10.2812C11.6875 10.1984 11.7204 10.1189 11.779 10.0603C11.8376 10.0017 11.9171 9.96875 12 9.96875C12.0829 9.96875 12.1624 10.0017 12.221 10.0603C12.2796 10.1189 12.3125 10.1984 12.3125 10.2812V11.375C12.3125 11.416 12.3045 11.4567 12.2888 11.4946C12.2731 11.5325 12.25 11.567 12.221 11.596C12.192 11.625 12.1575 11.6481 12.1196 11.6638C12.0817 11.6795 12.041 11.6875 12 11.6875Z" fill="#473289"/>
<path d="M14.8125 4.5H9.1875C9.10462 4.5 9.02513 4.46708 8.96653 4.40847C8.90792 4.34987 8.875 4.27038 8.875 4.1875C8.875 4.10462 8.90792 4.02513 8.96653 3.96653C9.02513 3.90792 9.10462 3.875 9.1875 3.875H14.8125C14.8954 3.875 14.9749 3.90792 15.0335 3.96653C15.0921 4.02513 15.125 4.10462 15.125 4.1875C15.125 4.27038 15.0921 4.34987 15.0335 4.40847C14.9749 4.46708 14.8954 4.5 14.8125 4.5ZM12.3125 5.75H9.1875C9.10462 5.75 9.02513 5.71708 8.96653 5.65847C8.90792 5.59987 8.875 5.52038 8.875 5.4375C8.875 5.35462 8.90792 5.27513 8.96653 5.21653C9.02513 5.15792 9.10462 5.125 9.1875 5.125H12.3125C12.3954 5.125 12.4749 5.15792 12.5335 5.21653C12.5921 5.27513 12.625 5.35462 12.625 5.4375C12.625 5.52038 12.5921 5.59987 12.5335 5.65847C12.4749 5.71708 12.3954 5.75 12.3125 5.75ZM14.8125 18.875H9.1875C9.10462 18.875 9.02513 18.8421 8.96653 18.7835C8.90792 18.7249 8.875 18.6454 8.875 18.5625C8.875 18.4796 8.90792 18.4001 8.96653 18.3415C9.02513 18.2829 9.10462 18.25 9.1875 18.25H14.8125C14.8954 18.25 14.9749 18.2829 15.0335 18.3415C15.0921 18.4001 15.125 18.4796 15.125 18.5625C15.125 18.6454 15.0921 18.7249 15.0335 18.7835C14.9749 18.8421 14.8954 18.875 14.8125 18.875ZM12.3125 20.125H9.1875C9.10462 20.125 9.02513 20.0921 8.96653 20.0335C8.90792 19.9749 8.875 19.8954 8.875 19.8125C8.875 19.7296 8.90792 19.6501 8.96653 19.5915C9.02513 19.5329 9.10462 19.5 9.1875 19.5H12.3125C12.3954 19.5 12.4749 19.5329 12.5335 19.5915C12.5921 19.6501 12.625 19.7296 12.625 19.8125C12.625 19.8954 12.5921 19.9749 12.5335 20.0335C12.4749 20.0921 12.3954 20.125 12.3125 20.125Z" fill="white"/>
<path d="M12.3854 12.4944C12.658 12.2826 12.7073 11.89 12.4956 11.6174C12.2838 11.3448 11.8912 11.2955 11.6186 11.5072C11.346 11.719 11.2967 12.1116 11.5084 12.3842C11.7202 12.6568 12.1128 12.7061 12.3854 12.4944Z" fill="#8A7EB5"/>
</g>
<defs>
<clipPath id="clip0_2978_67928">
<rect width="20" height="20" fill="white" transform="translate(2 2)"/>
</clipPath>
</defs>
</svg>
