<svg width="24" height="24" viewBox="0 0 24 24" fill="none" xmlns="http://www.w3.org/2000/svg">
<path d="M9.39437 11.4684C11.1569 11.4684 12.5856 10.0397 12.5856 8.27719C12.5856 6.51471 11.1569 5.08594 9.39437 5.08594C7.6319 5.08594 6.20312 6.51471 6.20312 8.27719C6.20312 10.0397 7.6319 11.4684 9.39437 11.4684Z" fill="#BBB8D6" stroke="#BBB8D6" stroke-width="1.875" stroke-miterlimit="10"/>
<path d="M12.1788 13.5391H6.60438C4.57375 13.5391 2.92188 15.1909 2.92188 17.2216V19.5109H4.79688H13.9844H15.8594V17.2197C15.8594 15.1891 14.2094 13.5391 12.1788 13.5391Z" fill="#8A7EB5"/>
<path d="M16.157 12.5556V13.3988C16.157 13.5545 16.0536 13.6804 15.9102 13.6953C15.8193 13.6953 15.7545 13.6638 15.6897 13.6009C15.3644 13.258 15.0528 12.9134 14.7275 12.5706C14.5193 12.3519 14.325 12.1332 14.1168 11.9295C13.9611 11.7738 13.9611 11.6164 14.1168 11.4607C14.6241 10.914 15.13 10.3823 15.6373 9.83733C15.7021 9.77438 15.7545 9.71309 15.8455 9.69652C16.015 9.68161 16.157 9.80585 16.157 9.99304V10.8362H20.1863C20.5888 10.8362 20.9403 11.1493 20.9927 11.5551C21.0451 11.9924 20.8108 12.3983 20.4206 12.5076C20.3421 12.5225 20.2649 12.5391 20.1739 12.5391H16.1708L16.1584 12.554L16.157 12.5556Z" fill="#473289"/>
<path d="M19.7383 8.86844H15.7142C15.3233 8.86844 14.9973 8.60296 14.9199 8.21139C14.8025 7.67878 15.181 7.14783 15.7018 7.14783H19.7396V6.31822C19.7396 6.17719 19.8046 6.06768 19.9096 6.02122C20.027 5.97476 20.1306 6.00629 20.2218 6.0992C20.7564 6.66168 21.2896 7.22581 21.8104 7.78829C21.9278 7.91273 21.9278 8.08529 21.8104 8.21139C21.2758 8.77386 20.7425 9.33799 20.2218 9.90047C20.1306 9.99504 20.0394 10.0249 19.922 9.97845C19.8046 9.93199 19.7521 9.82249 19.7521 9.68146V8.85185L19.7396 8.86678L19.7383 8.86844Z" fill="#473289"/>
</svg>
