<svg width="20" height="20" viewBox="0 0 20 20" fill="none" xmlns="http://www.w3.org/2000/svg">
<g clip-path="url(#clip0_3817_79551)">
<path fill-rule="evenodd" clip-rule="evenodd" d="M9.41345 14.0314C9.57379 14.1915 9.7904 14.2828 10.0171 14.2857C10.2439 14.2828 10.4605 14.1915 10.6208 14.0314C10.7812 13.8713 10.8726 13.655 10.8755 13.4286V2.92568L13.9886 6.03432C14.0679 6.11444 14.1624 6.17796 14.2665 6.22113C14.3707 6.26431 14.4824 6.28628 14.5952 6.28574C14.708 6.28628 14.8197 6.26431 14.9239 6.22113C15.0281 6.17796 15.1226 6.11444 15.2018 6.03432C15.3625 5.8736 15.4528 5.65575 15.4528 5.4286C15.4528 5.20146 15.3625 4.9836 15.2018 4.82289L10.6447 0.272314C10.638 0.265121 10.6311 0.258032 10.6241 0.251051C10.4631 0.0903057 10.2448 0 10.0171 0C9.78948 0 9.57115 0.0903057 9.41017 0.251051C9.40258 0.258635 9.39514 0.266346 9.38786 0.274179L4.8326 4.82289C4.68098 4.98537 4.59843 5.20028 4.60236 5.42234C4.60628 5.6444 4.69637 5.85627 4.85364 6.01331C5.01091 6.17036 5.22308 6.26031 5.44546 6.26423C5.66784 6.26815 5.88306 6.18572 6.04578 6.03432L9.15876 2.92581V13.4286C9.16173 13.655 9.25311 13.8713 9.41345 14.0314ZM17.1359 20.0001H2.89832C2.50142 19.9839 2.11161 19.8897 1.7512 19.723C1.39078 19.5562 1.06683 19.3201 0.797881 19.0282C0.528935 18.7363 0.320271 18.3943 0.18383 18.0218C0.047389 17.6492 -0.0141515 17.2535 0.00272986 16.8572V13.4286C0.00272986 13.2013 0.0931657 12.9833 0.254143 12.8225C0.41512 12.6618 0.633451 12.5715 0.861107 12.5715C1.08876 12.5715 1.30709 12.6618 1.46807 12.8225C1.62905 12.9833 1.71948 13.2013 1.71948 13.4286V16.8572C1.68993 17.1966 1.79232 17.5342 2.00542 17.8002C2.21851 18.0662 2.52596 18.2401 2.86399 18.2858H17.1359C17.474 18.2401 17.7814 18.0662 17.9945 17.8002C18.2076 17.5342 18.31 17.1966 18.2804 16.8572V13.4286C18.2804 13.2013 18.3709 12.9833 18.5319 12.8225C18.6928 12.6618 18.9112 12.5715 19.1388 12.5715C19.3665 12.5715 19.5848 12.6618 19.7458 12.8225C19.9068 12.9833 19.9972 13.2013 19.9972 13.4286V16.8572C20.0315 17.6519 19.7501 18.428 19.2142 19.0166C18.6784 19.6052 17.9314 19.9586 17.1359 20.0001Z" fill="#4B5563"/>
</g>
<defs>
<clipPath id="clip0_3817_79551">
<rect width="20" height="20" fill="white"/>
</clipPath>
</defs>
</svg>
