<svg width="64" height="65" viewBox="0 0 64 65" fill="none" xmlns="http://www.w3.org/2000/svg">
<path fill-rule="evenodd" clip-rule="evenodd" d="M26.444 31.76C28.0885 32.8588 30.0219 33.4453 31.9997 33.4453C34.6518 33.4453 37.1954 32.3918 39.0707 30.5164C40.9461 28.641 41.9997 26.0975 41.9997 23.4453C41.9997 21.4675 41.4132 19.5341 40.3144 17.8896C39.2156 16.2451 37.6538 14.9634 35.8265 14.2065C33.9992 13.4496 31.9886 13.2516 30.0488 13.6375C28.109 14.0233 26.3271 14.9757 24.9286 16.3742C23.5301 17.7728 22.5777 19.5546 22.1918 21.4944C21.806 23.4342 22.004 25.4449 22.7609 27.2722C23.5178 29.0994 24.7995 30.6612 26.444 31.76ZM28.6663 18.4565C29.6529 17.7972 30.813 17.4453 31.9997 17.4453C33.591 17.4453 35.1171 18.0775 36.2423 19.2027C37.3675 20.3279 37.9997 21.854 37.9997 23.4453C37.9997 24.632 37.6478 25.792 36.9885 26.7787C36.3292 27.7654 35.3921 28.5345 34.2958 28.9886C33.1994 29.4427 31.993 29.5615 30.8291 29.33C29.6652 29.0985 28.5961 28.5271 27.757 27.688C26.9179 26.8488 26.3465 25.7797 26.115 24.6159C25.8835 23.452 26.0023 22.2456 26.4564 21.1492C26.9105 20.0529 27.6796 19.1158 28.6663 18.4565ZM49.2598 51.5186C49.6334 51.8921 50.1381 52.1051 50.6663 52.112C51.1946 52.1051 51.6993 51.8921 52.0729 51.5186C52.4465 51.145 52.6594 50.6403 52.6663 50.112C52.6663 37.4453 38.1863 37.4453 31.9997 37.4453C25.813 37.4453 11.333 37.4453 11.333 50.112C11.333 50.6424 11.5437 51.1511 11.9188 51.5262C12.2939 51.9013 12.8026 52.112 13.333 52.112C13.8634 52.112 14.3721 51.9013 14.7472 51.5262C15.1223 51.1511 15.333 50.6424 15.333 50.112C15.333 44.912 18.1597 41.4453 31.9997 41.4453C45.8397 41.4453 48.6663 44.912 48.6663 50.112C48.6732 50.6403 48.8862 51.145 49.2598 51.5186Z" fill="#473289"/>
</svg>
