<svg width="16" height="16" viewBox="0 0 16 16" fill="none" xmlns="http://www.w3.org/2000/svg">
<path d="M14.6406 15L8.87763 9.237C8.71381 9.07533 8.58374 8.88272 8.49497 8.67038C8.40619 8.45803 8.36048 8.23016 8.36048 8C8.36048 7.76984 8.40619 7.54197 8.49497 7.32962C8.58374 7.11728 8.71381 6.92467 8.87763 6.763L14.6406 1M7.64063 15L1.87763 9.237C1.71381 9.07533 1.58374 8.88272 1.49497 8.67038C1.40619 8.45803 1.36048 8.23016 1.36048 8C1.36048 7.76984 1.40619 7.54197 1.49497 7.32962C1.58374 7.11728 1.71381 6.92467 1.87763 6.763L7.64063 1" stroke="#4B5563" stroke-width="1.5" stroke-linecap="round" stroke-linejoin="round"/>
</svg>
