<svg width="16" height="16" viewBox="0 0 16 16" fill="none" xmlns="http://www.w3.org/2000/svg">
<path d="M1.35938 15L7.12238 9.237C7.28619 9.07533 7.41626 8.88272 7.50503 8.67038C7.59381 8.45803 7.63952 8.23016 7.63952 8C7.63952 7.76984 7.59381 7.54197 7.50503 7.32962C7.41626 7.11728 7.28619 6.92467 7.12238 6.763L1.35938 1M8.35937 15L14.1224 9.237C14.2862 9.07533 14.4163 8.88272 14.505 8.67038C14.5938 8.45803 14.6395 8.23016 14.6395 8C14.6395 7.76984 14.5938 7.54197 14.505 7.32962C14.4163 7.11728 14.2862 6.92467 14.1224 6.763L8.35937 1" stroke="#4B5563" stroke-width="1.5" stroke-linecap="round" stroke-linejoin="round"/>
</svg>
