<svg width="58" height="27" viewBox="0 0 58 27" fill="none" xmlns="http://www.w3.org/2000/svg">
<path d="M7.71664 0.75H33.7066L43.4684 8.39774L51.9954 9.42911L55.8327 12.3131L57.0676 15.991V19.4043V21.7861L53.0257 21.6032L52.3742 18.2678L49.8324 15.3838L47.1769 14.9051L44.6541 15.6018L41.5895 19.6961L41.4835 21.7861L16.4481 21.5487L15.4973 18.0031L12.251 15.0647L8.3341 15.3566L5.63699 17.322L4.75437 20.1476L3.97403 21.3035V17.1547L3.30354 15.6524L2.64062 15.0375L3.30354 10.4761L4.23919 7.38972L6.01579 3.60671L7.71664 0.75Z" fill="#7A6CAB"/>
<path d="M57.9886 22.1147C57.7689 22.3871 57.4886 22.4727 57.1439 22.4649C55.9734 22.4455 54.8029 22.4766 53.6361 22.4494C53.2573 22.4416 53.0945 22.5467 52.9543 22.9281C52.0452 25.419 49.7534 27.0186 47.1926 26.9952C44.7266 26.9719 42.4348 25.3294 41.5863 22.9437C41.4613 22.5895 41.3249 22.4455 40.9272 22.4494C32.9268 22.465 24.9264 22.465 16.926 22.4494C16.5358 22.4494 16.3767 22.57 16.2441 22.9359C15.3388 25.4073 13.0735 27.003 10.5317 26.9952C8.02782 26.9874 5.77391 25.38 4.87993 22.932C4.74734 22.57 4.58824 22.4299 4.19807 22.4494C3.34955 22.4883 2.50102 22.4494 1.65249 22.4727C1.13732 22.4844 0.872151 22.3132 0.800177 21.7333C0.572893 19.9196 0.281216 18.1137 0.0349918 16.3039C-0.0900144 15.3932 0.0955968 15.1986 0.989581 15.1947C1.1411 15.1947 1.29263 15.1831 1.44036 15.1947C1.75856 15.2259 1.89493 15.1208 1.96312 14.7666C2.35329 12.7078 2.78134 10.6606 3.1753 8.60172C3.23591 8.29036 3.33819 8.01014 3.46698 7.72992C4.54279 5.39084 5.62997 3.05955 6.68305 0.712685C6.91034 0.202835 7.19444 -0.0112242 7.75507 0.00045174C9.35742 0.0354795 10.9636 0.0393715 12.5659 0.00045174C13.0735 -0.0112242 13.047 0.245648 13.0356 0.592034C13.0243 0.911176 13.1228 1.21864 12.5849 1.20307C11.1151 1.16026 9.64153 1.19918 8.16797 1.17972C7.86113 1.17972 7.70961 1.26145 7.57703 1.55335C6.55425 3.81069 5.51253 6.06026 4.47082 8.30593C4.33066 8.60951 4.32309 8.94033 4.22081 9.2439C4.27005 9.27114 4.30035 9.30228 4.33066 9.30228C5.67921 9.26725 5.57315 9.44239 5.56936 10.5983C5.56557 11.548 5.56936 12.4976 5.56936 13.4472C5.56936 14.3385 5.47844 14.428 4.58824 14.428C4.2852 14.428 3.98594 14.4319 3.6829 14.428C3.42152 14.4241 3.20181 14.3852 3.12226 14.7783C3.0465 15.1441 3.13742 15.2726 3.44046 15.436C4.08822 15.7824 4.44051 16.3506 4.44051 17.1252C4.43672 18.0281 4.44051 18.931 4.47839 19.8457C4.77007 18.3823 5.37238 17.0979 6.47092 16.1094C8.26268 14.4942 10.331 14.0116 12.5697 14.8289C14.7933 15.6423 16.1456 17.312 16.5699 19.7328C16.6305 20.0792 16.6949 20.4256 16.657 20.7719C16.6078 21.1923 16.7631 21.2818 17.1495 21.2818C20.3201 21.2662 23.4907 21.274 26.6613 21.274C31.3206 21.274 35.9838 21.274 40.6431 21.2818C41.0446 21.2818 41.2075 21.2429 41.1999 20.7291C41.1696 17.9658 42.9424 15.545 45.5297 14.7433C45.7191 14.6849 46.0714 14.3774 46.1093 14.9067C46.1358 15.2492 46.5828 15.6657 45.8517 15.8914C43.4841 16.6309 42.0409 18.9933 42.3856 21.4569C42.7227 23.8894 44.738 25.7303 47.1699 25.8198C49.4882 25.9055 51.7232 24.0607 52.1133 21.7333C52.549 19.1568 51.1928 16.7593 48.8518 15.9381C48.6662 15.8719 48.3366 15.9109 48.3215 15.7046C48.2988 15.3932 48.3897 15.0507 48.5033 14.7511C48.5829 14.5409 48.8064 14.6771 48.9465 14.7277C51.2913 15.5178 52.7384 17.1407 53.2536 19.6355C53.3369 20.0364 53.3899 20.4411 53.3483 20.8459C53.3104 21.2273 53.4581 21.2974 53.7952 21.2857C54.6817 21.2623 55.5681 21.2662 56.4545 21.2857C56.7651 21.2935 56.9242 21.2195 56.8674 20.8731C56.8674 20.8537 56.8674 20.8342 56.8674 20.8148C56.8775 20.2102 56.5883 19.9053 55.9999 19.9001C54.8559 19.8885 54.0452 19.1178 54.0377 18.0398C54.0301 16.9461 54.818 16.1833 55.9696 16.1599C56.5429 16.1496 56.7638 15.8616 56.6325 15.2959C55.8976 12.1551 53.1323 9.80045 49.939 9.54747C47.8328 9.38401 45.7342 9.1505 43.6319 8.95979C43.2152 8.92087 42.9614 8.62897 42.6773 8.38377C40.6923 6.65184 38.7036 4.93159 36.7338 3.1802C35.1958 1.81022 33.4192 1.18361 31.3964 1.1914C26.2067 1.20307 21.0171 1.19139 15.8274 1.20696C15.388 1.20696 15.2554 1.09799 15.2706 0.638736C15.2857 0.21451 15.2933 0.000449602 15.8237 0.00434158C21.0512 0.0276935 26.2787 0.0315871 31.5063 0.0121272C33.7905 0.00434324 35.7754 0.763279 37.5028 2.29283C39.3476 3.92357 41.2454 5.48814 43.0371 7.18115C43.791 7.89338 44.6433 7.82333 45.4956 7.92452C47.2911 8.13469 49.1056 8.21642 50.8898 8.51221C54.5377 9.11546 57.2462 11.9449 57.8864 15.6735C57.9015 15.7513 57.9091 15.8213 58 15.8408V22.1225L57.9886 22.1147ZM10.562 25.7848C13.2743 25.777 15.4865 23.508 15.4979 20.7252C15.5055 17.9308 13.2402 15.619 10.5241 15.6501C7.78537 15.6851 5.62239 17.9347 5.63754 20.7369C5.65269 23.543 7.84978 25.7926 10.5658 25.7809L10.562 25.7848ZM1.26232 16.4129C1.45173 17.7557 1.64871 19.0283 1.8116 20.3088C1.94039 21.3013 2.05403 21.3947 3.05029 21.2507C3.25106 21.2234 3.29652 21.1456 3.29652 20.9588C3.29273 19.6978 3.30788 18.4406 3.28515 17.1796C3.27758 16.6815 3.00105 16.4012 2.48966 16.4129C2.0957 16.4207 1.70174 16.4129 1.25854 16.4129H1.26232ZM56.8446 17.9658C56.9696 17.491 56.8181 17.2886 56.2613 17.3275C55.5037 17.382 55.1703 17.5416 55.159 18.0086C55.1514 18.4912 55.5264 18.6625 56.2954 18.7364C56.9545 18.7987 56.8749 18.4134 56.8409 17.9658H56.8446ZM4.42915 11.8904C4.42915 11.5246 4.42915 11.1588 4.42915 10.7929C4.42915 10.6528 4.4784 10.4815 4.23217 10.4777C4.03898 10.4777 3.99731 10.5516 3.96322 10.7384C3.83821 11.4117 3.69048 12.0812 3.53895 12.7506C3.44804 13.1476 3.52001 13.3227 3.98216 13.2954C4.33824 13.2721 4.48218 13.202 4.44051 12.8167C4.40642 12.5132 4.43294 12.2018 4.43294 11.8943L4.42915 11.8904Z" fill="#473289"/>
<path d="M30.4706 8.9694C27.5121 8.9694 24.5499 8.9694 21.5914 8.9694C20.7618 8.9694 20.6747 8.9188 20.5838 8.0898C20.3944 6.36177 20.2201 4.62984 20.0648 2.89402C20.008 2.25573 20.1822 2.08838 20.7997 2.08448C24.2696 2.08448 27.7394 2.06113 31.2055 2.10394C33.2208 2.12729 34.986 2.91347 36.4785 4.28734C37.702 5.41212 38.8726 6.5914 40.0734 7.73953C40.3196 7.97305 40.5431 8.21435 40.3878 8.58798C40.2363 8.95382 39.9143 8.9655 39.5771 8.9655C36.5429 8.96161 33.5049 8.9655 30.4706 8.9655V8.9694ZM38.4521 7.78623C37.2399 6.70037 36.2853 5.57559 35.1186 4.69211C33.8534 3.73857 32.4139 3.27154 30.8456 3.26764C27.8076 3.25986 24.7696 3.27154 21.7315 3.25597C21.3452 3.25597 21.2543 3.36884 21.2959 3.74247C21.4285 4.95287 21.5459 6.16717 21.6558 7.38147C21.6861 7.70061 21.8149 7.79012 22.1217 7.79012C27.5008 7.78234 32.876 7.78234 38.4521 7.78234V7.78623Z" fill="#473289"/>
<path d="M13.485 8.9748C11.8258 8.9748 10.1666 8.9748 8.50746 8.9748C7.77258 8.9748 7.54529 8.6362 7.8294 7.94732C8.55292 6.19203 9.29538 4.44064 10.0189 2.68536C10.1856 2.28059 10.428 2.10156 10.875 2.10156C13.2691 2.12102 15.6631 2.11713 18.0572 2.10156C18.5383 2.10156 18.7845 2.27281 18.8337 2.79044C18.9966 4.54183 19.1974 6.28934 19.3641 8.04073C19.436 8.80355 19.2618 8.97091 18.5193 8.97091C16.8412 8.97091 15.1631 8.97091 13.485 8.97091V8.9748ZM9.15522 7.8111C12.0985 7.8111 14.9434 7.8072 17.7844 7.81888C18.0837 7.81888 18.1708 7.73715 18.1405 7.42968C18.0079 6.1609 17.8867 4.89211 17.7693 3.61944C17.7466 3.36257 17.6481 3.26527 17.3791 3.26527C15.3639 3.27694 13.3486 3.27305 11.3296 3.26527C11.1477 3.26527 11.0265 3.29251 10.9432 3.49879C10.3636 4.91547 9.76888 6.32436 9.15143 7.80332L9.15522 7.8111Z" fill="#473289"/>
<path d="M51.0984 14.2986C50.9015 14.2908 50.5643 14.322 50.231 14.2169C49.4052 13.9639 48.8938 13.2478 48.9317 12.3565C48.9657 11.5392 49.5718 10.8387 50.3938 10.6946C50.9166 10.6012 51.4431 10.609 51.9659 10.6752C52.9091 10.7958 53.5986 11.6132 53.5607 12.5278C53.5266 13.4502 52.7993 14.213 51.856 14.2947C51.6515 14.3142 51.4431 14.2947 51.0984 14.2947V14.2986ZM51.2197 11.8661C51.2197 11.8661 51.2197 11.8661 51.2197 11.8622H50.712C50.3257 11.8622 50.0946 12.088 50.0832 12.4538C50.0681 12.8275 50.2991 13.0649 50.6817 13.0765C51.0757 13.0882 51.4697 13.0921 51.8636 13.0649C52.2235 13.0376 52.3939 12.7808 52.375 12.4305C52.3561 12.1074 52.1818 11.8895 51.8447 11.87C51.6401 11.8584 51.4318 11.87 51.2234 11.87L51.2197 11.8661Z" fill="#473289"/>
<path d="M25.2085 12.3436C24.5873 12.3436 23.9623 12.3203 23.341 12.3514C22.8145 12.3787 23.0152 11.9934 23.0115 11.7598C23.0115 11.5302 22.8183 11.1605 23.341 11.1721C24.5835 11.1994 25.8298 11.1994 27.0723 11.1721C27.5988 11.1605 27.398 11.5341 27.4018 11.7637C27.4018 11.9933 27.5988 12.3787 27.0723 12.3514C26.451 12.3203 25.8298 12.3436 25.2047 12.3436H25.2085Z" fill="#473289"/>
<path d="M10.5612 25.7875C7.84512 25.7952 5.64804 23.5457 5.63289 20.7435C5.61774 17.9412 7.78073 15.6917 10.5195 15.6566C13.2355 15.6216 15.5046 17.9373 15.4932 20.7318C15.4856 23.5145 13.2734 25.7797 10.5574 25.7914L10.5612 25.7875ZM10.5612 24.0945C12.3681 24.0945 13.8227 22.6077 13.8303 20.7551C13.8378 18.8753 12.3681 17.3536 10.5536 17.3536C8.7732 17.3536 7.2807 18.8792 7.26933 20.7045C7.25797 22.5688 8.7391 24.0945 10.5612 24.0945Z" fill="#D8D7E8"/>
<path d="M47.2901 25.8457C44.5437 25.8534 42.3277 23.5805 42.3126 20.7472C42.2974 17.9177 44.4831 15.6448 47.2484 15.6098C49.991 15.5747 52.2828 17.9138 52.2752 20.7355C52.2676 23.5455 50.0327 25.8379 47.2901 25.8457ZM47.2901 24.1371C49.1159 24.1371 50.5857 22.6348 50.5933 20.7666C50.6009 18.8673 49.1159 17.33 47.2825 17.33C45.4832 17.33 43.9755 18.8712 43.9642 20.716C43.9528 22.5998 45.4491 24.141 47.2901 24.141V24.1371Z" fill="#D8D7E8"/>
<path d="M1.26562 16.4142C1.70883 16.4142 2.10279 16.4181 2.49675 16.4142C3.00814 16.4064 3.28467 16.6828 3.29224 17.1809C3.31118 18.4381 3.29603 19.699 3.30361 20.9601C3.30361 21.1469 3.25815 21.2208 3.05738 21.2519C2.06112 21.396 1.94369 21.3026 1.81869 20.3101C1.6558 19.0335 1.45882 17.7608 1.26942 16.4142H1.26562Z" fill="#EDEEF6"/>
<path d="M56.8461 17.9633C56.8764 18.4109 56.9597 18.7962 56.3006 18.7339C55.5316 18.66 55.1566 18.4848 55.1642 18.0061C55.1718 17.5391 55.5089 17.3756 56.2665 17.325C56.8196 17.2861 56.9749 17.4885 56.8499 17.9633H56.8461Z" fill="#EDEEF6"/>
<path d="M4.42815 11.8854C4.42815 12.1929 4.40164 12.5042 4.43573 12.8078C4.4774 13.1931 4.33345 13.2632 3.97737 13.2865C3.51523 13.3138 3.44326 13.1425 3.53417 12.7417C3.68569 12.0722 3.83343 11.4028 3.95844 10.7295C3.99253 10.5427 4.0342 10.4688 4.22739 10.4688C4.4774 10.4688 4.42437 10.6439 4.42437 10.784C4.42816 11.1498 4.42437 11.5157 4.42437 11.8815L4.42815 11.8854Z" fill="#EDEEF6"/>
<path d="M38.4467 7.78418C32.8706 7.78418 27.4916 7.78418 22.1163 7.79197C21.8095 7.79197 21.6769 7.70245 21.6504 7.38331C21.5405 6.16901 21.4269 4.95472 21.2905 3.74431C21.2488 3.37068 21.3398 3.25781 21.7261 3.25781C24.7642 3.27338 27.8022 3.2617 30.8402 3.26949C32.4123 3.26949 33.848 3.73653 35.1132 4.69395C36.2837 5.57354 37.2345 6.70221 38.4467 7.78808V7.78418Z" fill="#EDEEF6"/>
<path d="M9.15625 7.80367C9.77371 6.32472 10.3684 4.91582 10.948 3.49914C11.0313 3.29287 11.1488 3.26562 11.3344 3.26562C13.3496 3.26952 15.3649 3.27341 17.3839 3.26562C17.6529 3.26562 17.7514 3.36293 17.7741 3.6198C17.8915 4.88858 18.0128 6.16126 18.1453 7.43004C18.1756 7.73362 18.0923 7.81924 17.7893 7.81924C14.9444 7.80756 12.0996 7.81145 9.16004 7.81145L9.15625 7.80367Z" fill="#EDEEF6"/>
<path d="M51.2187 11.8672C51.4271 11.8672 51.6316 11.8555 51.84 11.8672C52.1771 11.8866 52.3551 12.1085 52.3703 12.4276C52.3892 12.7779 52.2226 13.0348 51.8589 13.062C51.465 13.0931 51.071 13.0853 50.677 13.0737C50.2982 13.062 50.0672 12.8246 50.0785 12.451C50.0937 12.0851 50.3248 11.8594 50.7073 11.8594H51.2149C51.2149 11.8594 51.2149 11.8594 51.2149 11.8633L51.2187 11.8672Z" fill="#EDEEF6"/>
<path d="M13.853 20.7379C13.8378 22.5672 12.3302 24.1162 10.5535 24.124C8.74285 24.1317 7.19353 22.5205 7.2352 20.664C7.27687 18.8231 8.81104 17.2896 10.5763 17.3208C12.3718 17.3558 13.8643 18.9126 13.853 20.734V20.7379Z" fill="#473289"/>
<path d="M50.7501 20.7379C50.735 22.5672 49.1894 24.1162 47.3636 24.124C45.5074 24.1317 43.9164 22.5205 43.9619 20.664C44.0073 18.8231 45.5794 17.2896 47.3901 17.3208C49.2311 17.3558 50.7653 18.9126 50.7501 20.734V20.7379Z" fill="#473289"/>
<path d="M16.3399 1.20263H11.9609V0.0155712L16.3399 0V1.20263Z" fill="#473289"/>
<path d="M48.7902 15.8435C48.7902 15.8435 47.5401 15.3064 45.8014 15.8435L45.4453 14.7732C45.4453 14.7732 47.184 13.8741 48.9341 14.7265L48.7864 15.8396L48.7902 15.8435Z" fill="#473289"/>
</svg>
