<svg width="24" height="24" viewBox="0 0 24 24" fill="none" xmlns="http://www.w3.org/2000/svg">
<path fill-rule="evenodd" clip-rule="evenodd" d="M4.91647 18.9278C4.91647 18.2992 4.38461 17.7673 3.75604 17.7673C3.17582 17.7673 2.64395 18.2992 2.64395 18.9278C2.64395 19.508 3.17582 20.0399 3.75604 20.0399C4.38461 20.0399 4.91647 19.508 4.91647 18.9278ZM17.2461 13.0772V20.7651C17.2461 21.3937 16.7626 21.9256 16.1341 21.9256H2.11208C1.53186 21.9256 1 21.3937 1 20.7651V11.9168C1 11.3365 1.53186 10.8047 2.11208 10.8047H16.1341C16.7626 10.8047 17.2461 11.3365 17.2461 11.9168V13.0772Z" fill="#473289"/>
<path fill-rule="evenodd" clip-rule="evenodd" d="M12.8975 2C10.6733 2 8.83594 3.83737 8.83594 6.06155C8.83594 8.28573 10.6733 10.1231 12.8975 10.1231C15.1216 10.1231 16.959 8.28573 16.959 6.06155C17.0074 3.83737 15.17 2 12.8975 2Z" fill="#BBB8D6"/>
<path fill-rule="evenodd" clip-rule="evenodd" d="M4.72479 4.51562C3.22588 4.51562 1.96875 5.77277 1.96875 7.27167C1.96875 8.77058 3.22588 9.97936 4.72479 9.97936C6.22369 9.97936 7.43248 8.72222 7.43248 7.27167C7.43248 5.77277 6.22369 4.51562 4.72479 4.51562Z" fill="#BBB8D6"/>
<path fill-rule="evenodd" clip-rule="evenodd" d="M22.081 10.8007C22.5645 10.4139 22.9997 10.6073 22.9997 11.2359V21.5348C22.9997 22.1633 22.5645 22.3568 22.081 21.97L19.3249 19.9392C18.7931 19.5524 18.4062 18.7304 18.4062 18.1018V14.6688C18.4062 14.0403 18.7931 13.2183 19.3249 12.8315L22.081 10.8007Z" fill="#BBB8D6"/>
</svg>
