<svg width="30" height="30" viewBox="0 0 30 30" fill="none" xmlns="http://www.w3.org/2000/svg">
<path d="M8.95932 28.4375C5.98432 28.4375 3.54688 26.275 3.54688 23.6125V21.0625C3.54688 20.55 3.97188 20.125 4.48438 20.125C4.99688 20.125 5.42188 20.55 5.42188 21.0625C5.42188 22.625 6.93432 23.8 8.95932 23.8C10.9843 23.8 12.4969 22.625 12.4969 21.0625C12.4969 20.55 12.9218 20.125 13.4343 20.125C13.9468 20.125 14.3718 20.55 14.3718 21.0625V23.6125C14.3718 26.275 11.9468 28.4375 8.95932 28.4375ZM5.74681 24.8375C6.29681 25.8625 7.53432 26.5625 8.95932 26.5625C10.3843 26.5625 11.6218 25.85 12.1718 24.8375C11.2843 25.375 10.1843 25.6875 8.95932 25.6875C7.73432 25.6875 6.63431 25.375 5.74681 24.8375Z" fill="#473289"/>
<path d="M8.95932 22.2468C6.90932 22.2468 5.07186 21.3093 4.15936 19.8218C3.75936 19.1718 3.54688 18.4093 3.54688 17.6343C3.54688 16.3218 4.12186 15.0968 5.17186 14.1843C7.19686 12.4093 10.6843 12.4094 12.7218 14.1719C13.7718 15.0969 14.3593 16.3218 14.3593 17.6343C14.3593 18.4093 14.1468 19.1718 13.7468 19.8218C12.8468 21.3093 11.0093 22.2468 8.95932 22.2468ZM8.95932 14.6844C7.98432 14.6844 7.08435 15.0093 6.40935 15.5968C5.77185 16.1468 5.42188 16.8718 5.42188 17.6343C5.42188 18.0718 5.53432 18.4719 5.75933 18.8469C6.33432 19.7969 7.55932 20.3844 8.95932 20.3844C10.3593 20.3844 11.5843 19.7969 12.1468 18.8594C12.3718 18.4969 12.4843 18.0844 12.4843 17.6469C12.4843 16.8844 12.1344 16.1593 11.4969 15.5968C10.8344 15.0093 9.93432 14.6844 8.95932 14.6844Z" fill="#473289"/>
<path d="M8.95932 25.6875C5.87182 25.6875 3.54688 23.7 3.54688 21.075V17.6375C3.54688 14.975 5.97182 12.8125 8.95932 12.8125C10.3718 12.8125 11.7219 13.3 12.7343 14.175C13.7843 15.1 14.3718 16.325 14.3718 17.6375V21.075C14.3718 23.7 12.0468 25.6875 8.95932 25.6875ZM8.95932 14.6875C7.00933 14.6875 5.42188 16.0125 5.42188 17.6375V21.075C5.42188 22.6375 6.93432 23.8125 8.95932 23.8125C10.9843 23.8125 12.4969 22.6375 12.4969 21.075V17.6375C12.4969 16.875 12.1469 16.15 11.5094 15.5875C10.8344 15.0125 9.93432 14.6875 8.95932 14.6875Z" fill="#473289"/>
<path d="M23.8018 18.5C21.9143 18.5 20.3143 17.1 20.1643 15.3C20.0643 14.2625 20.4393 13.25 21.1893 12.5125C21.8143 11.8625 22.7018 11.5 23.6393 11.5H26.2518C27.4893 11.5375 28.4393 12.5125 28.4393 13.7125V16.2875C28.4393 17.4875 27.4893 18.4625 26.2893 18.5H23.8018ZM26.2143 13.375H23.6518C23.2143 13.375 22.8143 13.5375 22.5268 13.8375C22.1643 14.1875 21.9893 14.6625 22.0393 15.1375C22.1018 15.9625 22.9018 16.625 23.8018 16.625H26.2518C26.4143 16.625 26.5643 16.475 26.5643 16.2875V13.7125C26.5643 13.525 26.4143 13.3875 26.2143 13.375Z" fill="#473289"/>
<path d="M19.9968 26.5625H16.8718C16.3593 26.5625 15.9343 26.1375 15.9343 25.625C15.9343 25.1125 16.3593 24.6875 16.8718 24.6875H19.9968C23.2218 24.6875 25.3093 22.6 25.3093 19.375V18.5H23.7968C21.9093 18.5 20.3093 17.1 20.1593 15.3C20.0593 14.2625 20.4345 13.25 21.1845 12.5125C21.8095 11.8625 22.6968 11.5 23.6343 11.5H25.2968V10.625C25.2968 7.7 23.5845 5.68747 20.8095 5.36247C20.5095 5.31247 20.2468 5.3125 19.9843 5.3125H8.73438C8.43437 5.3125 8.14686 5.33749 7.85936 5.37499C5.10936 5.72499 3.42188 7.725 3.42188 10.625V13.125C3.42188 13.6375 2.99688 14.0625 2.48438 14.0625C1.97188 14.0625 1.54688 13.6375 1.54688 13.125V10.625C1.54688 6.775 3.92192 3.98751 7.60943 3.52501C7.94693 3.47501 8.33437 3.4375 8.73438 3.4375H19.9843C20.2843 3.4375 20.6718 3.45 21.0718 3.5125C24.7593 3.9375 27.1718 6.7375 27.1718 10.625V12.4375C27.1718 12.95 26.7468 13.375 26.2343 13.375H23.6343C23.1968 13.375 22.797 13.5375 22.5095 13.8375C22.147 14.1875 21.9718 14.6625 22.0218 15.1375C22.0843 15.9625 22.8845 16.625 23.7845 16.625H26.2468C26.7593 16.625 27.1843 17.05 27.1843 17.5625V19.375C27.1843 23.675 24.2968 26.5625 19.9968 26.5625Z" fill="#473289"/>
</svg>
