<svg width="60" height="60" viewBox="0 0 60 60" fill="none" xmlns="http://www.w3.org/2000/svg">
<g clip-path="url(#clip0_3702_82885)">
<path d="M31.3589 0H35.4342V5.5814C42.7261 5.62326 50.0115 5.50437 57.2969 5.62326C58.8507 5.46251 60.0703 6.69768 59.9274 8.28837C60.043 22.0326 59.9002 35.7834 59.9956 49.5276C59.9274 50.9369 60.1319 52.4997 59.3343 53.7483C58.3393 54.4739 57.051 54.3834 55.893 54.4387C49.0705 54.4047 42.2556 54.4186 35.4342 54.4186V60H31.1752C20.8034 58.0605 10.4034 56.2817 0.0109625 54.4186C0.00387501 38.1421 0.0109625 21.8651 0.0109625 5.59535C10.4574 3.72558 20.9114 1.90493 31.3589 0Z" fill="#2A5699"/>
<path d="M35.4349 7.67188H57.9241V52.323H35.4349V46.7416H53.1536V43.9509H35.4349V40.4626H53.1536V37.6719H35.4349V34.1835H53.1536V31.3928H35.4349V27.9044H53.1536V25.1137H35.4349V21.6254H53.1536V18.8347H35.4349V15.3463H53.1536V12.5556H35.4349V7.67188ZM14.0907 19.9995C15.3856 19.923 16.6804 19.8672 17.9752 19.7975C18.8813 24.507 19.8081 29.2088 20.7895 33.8972C21.5598 29.0553 22.412 24.2274 23.2358 19.3928C24.5987 19.3442 25.9617 19.2672 27.3181 19.1835C25.778 25.9437 24.4286 32.7602 22.7451 39.4786C21.6067 40.0858 19.903 39.4507 18.5537 39.5483C17.647 34.9303 16.591 30.339 15.7797 25.6998C14.9827 30.2068 13.9468 34.6719 13.0336 39.1515C11.7252 39.0817 10.4102 38.998 9.09406 38.907C7.96334 32.7675 6.63416 26.6698 5.57812 20.5163C6.7432 20.4605 7.91536 20.4114 9.08098 20.3695C9.78264 24.8135 10.5803 29.2373 11.1936 33.6879C12.1559 29.1256 13.1366 24.5629 14.0907 19.9995Z" fill="white"/>
</g>
<defs>
<clipPath id="clip0_3702_82885">
<rect width="60" height="60" fill="white"/>
</clipPath>
</defs>
</svg>
